<svg xmlns="http://www.w3.org/2000/svg" xmlns:xlink="http://www.w3.org/1999/xlink" width="338" height="90" viewBox="0 0 338 90">
  <defs>
    <clipPath id="clip-path">
      <rect id="Mask" width="338" height="90" rx="14" transform="translate(19 201)" fill="#f4eaff"/>
    </clipPath>
    <clipPath id="clip-path-2">
      <rect id="Rectangle_2724" data-name="Rectangle 2724" width="338.172" height="151.539" fill="none"/>
    </clipPath>
  </defs>
  <g id="AD_1_image" data-name="AD 1 image" transform="translate(-19 -47)">
    <g id="Mask_Group_6840" data-name="Mask Group 6840" transform="translate(0 -154)" clip-path="url(#clip-path)">
      <g id="Group_7822" data-name="Group 7822" transform="translate(-36.124 116.489)">
        <g id="Group_7821" data-name="Group 7821" transform="translate(54.953 61.877)">
          <rect id="Rectangle_2717" data-name="Rectangle 2717" width="338.172" height="151.539" transform="translate(0 0)" fill="#ffcd60"/>
          <path id="Path_17775" data-name="Path 17775" d="M54.953,215.584H123.3l16.2-19.816L54.953,78.168Z" transform="translate(-54.953 -64.046)" fill="#ffda64"/>
          <path id="Path_17776" data-name="Path 17776" d="M353.922,109.952l51.387,103.464h27.609V61.877H366.012Z" transform="translate(-94.747 -61.877)" fill="#ffda64"/>
          <g id="Group_7820" data-name="Group 7820" transform="translate(0 0)">
            <g id="Group_7819" data-name="Group 7819" clip-path="url(#clip-path-2)">
              <g id="Group_7818" data-name="Group 7818" transform="translate(-42.769 -63.059)">
                <path id="Path_17777" data-name="Path 17777" d="M85.145,238.376c-2.2-1.594-4.094-2.971-4.094-5.761s1.9-4.165,4.093-5.76c2.254-1.637,4.809-3.49,4.809-7.163s-2.555-5.527-4.809-7.164c-2.2-1.594-4.093-2.971-4.093-5.76s1.9-4.164,4.093-5.757c2.254-1.636,4.809-3.49,4.809-7.161a.867.867,0,0,0-1.734,0c0,2.788-1.9,4.165-4.093,5.758-2.254,1.635-4.81,3.489-4.81,7.161s2.555,5.526,4.809,7.163c2.2,1.594,4.093,2.971,4.093,5.761s-1.9,4.165-4.093,5.76c-2.254,1.637-4.809,3.49-4.809,7.163s2.555,5.528,4.809,7.164c2.2,1.594,4.093,2.972,4.093,5.761s-1.9,4.166-4.093,5.761c-2.254,1.637-4.809,3.492-4.809,7.165a.867.867,0,1,0,1.734,0c0-2.79,1.9-4.167,4.094-5.761,2.254-1.637,4.808-3.492,4.808-7.165S87.4,240.013,85.145,238.376Zm8.9,0c-2.2-1.594-4.094-2.971-4.094-5.761s1.9-4.165,4.093-5.76c2.255-1.637,4.81-3.49,4.81-7.163s-2.555-5.527-4.81-7.164c-2.2-1.594-4.093-2.971-4.093-5.76s1.9-4.164,4.094-5.757c2.254-1.636,4.809-3.49,4.809-7.161a.867.867,0,0,0-1.734,0c0,2.788-1.9,4.165-4.093,5.758-2.254,1.635-4.81,3.489-4.81,7.161s2.556,5.526,4.809,7.163c2.2,1.594,4.094,2.971,4.094,5.761s-1.9,4.165-4.094,5.76c-2.253,1.637-4.809,3.49-4.809,7.163s2.556,5.528,4.81,7.164c2.2,1.594,4.093,2.972,4.093,5.761s-1.9,4.166-4.093,5.761c-2.254,1.637-4.81,3.492-4.81,7.165a.867.867,0,1,0,1.734,0c0-2.79,1.9-4.167,4.094-5.761,2.254-1.637,4.809-3.492,4.809-7.165S96.3,240.013,94.047,238.376Zm8.9-11.52c2.254-1.637,4.809-3.49,4.809-7.163s-2.555-5.527-4.809-7.164c-2.2-1.594-4.093-2.971-4.093-5.76s1.9-4.164,4.093-5.757c2.254-1.636,4.809-3.49,4.809-7.161a.867.867,0,0,0-1.734,0c0,2.788-1.9,4.165-4.093,5.758-2.254,1.635-4.809,3.489-4.809,7.161s2.555,5.526,4.809,7.163c2.2,1.594,4.093,2.971,4.093,5.761s-1.9,4.165-4.093,5.76c-2.254,1.637-4.809,3.49-4.809,7.163s2.555,5.528,4.809,7.164c2.2,1.594,4.093,2.972,4.093,5.761s-1.9,4.166-4.093,5.761c-2.254,1.637-4.809,3.492-4.809,7.165a.867.867,0,1,0,1.734,0c0-2.79,1.9-4.167,4.093-5.761,2.254-1.637,4.809-3.492,4.809-7.165s-2.555-5.528-4.809-7.165c-2.2-1.594-4.093-2.971-4.093-5.761S100.753,228.45,102.949,226.856Z" transform="translate(-15.427 -34.269)" fill="#231f20"/>
                <path id="Path_17778" data-name="Path 17778" d="M386.576,63.451c-2.2-1.594-4.093-2.972-4.093-5.761s1.9-4.165,4.093-5.759c2.254-1.637,4.81-3.49,4.81-7.164s-2.556-5.527-4.81-7.163c-2.2-1.594-4.093-2.971-4.093-5.76s1.9-4.165,4.093-5.758c2.254-1.635,4.81-3.489,4.81-7.161a.867.867,0,0,0-1.734,0c0,2.787-1.9,4.164-4.093,5.757-2.254,1.636-4.809,3.49-4.809,7.161s2.554,5.526,4.809,7.163c2.2,1.594,4.093,2.97,4.093,5.76s-1.9,4.166-4.093,5.761c-2.255,1.636-4.809,3.49-4.809,7.162s2.554,5.528,4.809,7.165c2.2,1.594,4.093,2.972,4.093,5.761s-1.9,4.166-4.093,5.761c-2.255,1.637-4.809,3.491-4.809,7.165a.867.867,0,0,0,1.734,0c0-2.79,1.9-4.167,4.093-5.761,2.254-1.636,4.809-3.491,4.809-7.164S388.83,65.088,386.576,63.451Zm8.9,0c-2.2-1.594-4.093-2.972-4.093-5.761s1.9-4.165,4.093-5.759c2.255-1.637,4.81-3.49,4.81-7.164s-2.555-5.527-4.81-7.163c-2.2-1.594-4.093-2.971-4.093-5.76s1.9-4.165,4.093-5.758c2.254-1.635,4.809-3.489,4.809-7.161a.867.867,0,0,0-1.734,0c0,2.787-1.9,4.164-4.093,5.757-2.254,1.636-4.809,3.49-4.809,7.161s2.555,5.526,4.809,7.163c2.2,1.594,4.093,2.97,4.093,5.76s-1.9,4.166-4.093,5.761c-2.254,1.636-4.809,3.49-4.809,7.162s2.555,5.528,4.809,7.165c2.2,1.594,4.093,2.972,4.093,5.761s-1.9,4.166-4.093,5.761c-2.254,1.637-4.809,3.491-4.809,7.165a.867.867,0,0,0,1.734,0c0-2.79,1.9-4.167,4.093-5.761,2.254-1.636,4.809-3.491,4.809-7.164S397.732,65.088,395.478,63.451Zm8.9-11.52c2.254-1.637,4.809-3.49,4.809-7.164s-2.555-5.527-4.809-7.163c-2.2-1.594-4.093-2.971-4.093-5.76s1.9-4.165,4.093-5.758c2.254-1.635,4.809-3.489,4.809-7.161a.867.867,0,0,0-1.734,0c0,2.787-1.9,4.164-4.093,5.757-2.254,1.636-4.81,3.49-4.81,7.161s2.555,5.526,4.809,7.163c2.2,1.594,4.093,2.97,4.093,5.76s-1.9,4.166-4.093,5.761c-2.254,1.636-4.809,3.49-4.809,7.162s2.555,5.528,4.809,7.165c2.2,1.594,4.093,2.972,4.093,5.761s-1.9,4.166-4.093,5.761c-2.254,1.637-4.809,3.491-4.809,7.165a.867.867,0,1,0,1.734,0c0-2.79,1.9-4.167,4.093-5.761,2.255-1.636,4.809-3.491,4.809-7.164s-2.554-5.528-4.809-7.165c-2.2-1.594-4.093-2.972-4.093-5.761S402.184,53.525,404.381,51.931Z" transform="translate(-55.549 15.014)" fill="#231f20"/>
                <g id="Group_7808" data-name="Group 7808" transform="translate(0 0)">
                  <circle id="Ellipse_659" data-name="Ellipse 659" cx="47.197" cy="47.197" r="47.197" transform="translate(4.874 92.088) rotate(-77.309)" fill="none" stroke="#231f20" stroke-miterlimit="10" stroke-width="1"/>
                </g>
                <g id="Group_7809" data-name="Group 7809" transform="translate(324.63 150.11)">
                  <circle id="Ellipse_661" data-name="Ellipse 661" cx="47.197" cy="47.197" r="47.197" transform="translate(4.131)" fill="none" stroke="#231f20" stroke-miterlimit="10" stroke-width="1"/>
                </g>
                <path id="Path_17779" data-name="Path 17779" d="M111.1,71.993a1.752,1.752,0,1,0,1.752,1.752A1.752,1.752,0,0,0,111.1,71.993Zm-16.133,0a1.752,1.752,0,1,0,1.753,1.752A1.752,1.752,0,0,0,94.971,71.993Zm-16.133,0a1.752,1.752,0,1,0,1.753,1.752A1.752,1.752,0,0,0,78.838,71.993Zm64.532,0a1.752,1.752,0,1,0,1.752,1.752A1.752,1.752,0,0,0,143.37,71.993Zm-16.133,0a1.752,1.752,0,1,0,1.752,1.752A1.752,1.752,0,0,0,127.237,71.993Z" transform="translate(-15.13 23.835)" fill="#231f20"/>
                <path id="Path_17780" data-name="Path 17780" d="M377.66,219.231a1.752,1.752,0,1,0,1.753,1.752A1.752,1.752,0,0,0,377.66,219.231Zm-16.133,0a1.752,1.752,0,1,0,1.753,1.752A1.752,1.752,0,0,0,361.527,219.231Zm-16.133,0a1.752,1.752,0,1,0,1.753,1.752A1.752,1.752,0,0,0,345.394,219.231Zm64.532,0a1.752,1.752,0,1,0,1.753,1.752A1.752,1.752,0,0,0,409.926,219.231Zm-16.133,0a1.752,1.752,0,1,0,1.753,1.752A1.753,1.753,0,0,0,393.793,219.231Z" transform="translate(-50.61 -55.763)" fill="#231f20"/>
                <g id="Group_7810" data-name="Group 7810" transform="translate(142.712 26.694)">
                  <rect id="Rectangle_2718" data-name="Rectangle 2718" width="83.249" height="0.73" transform="translate(0 72.369) rotate(-60.378)" fill="#231f20"/>
                  <rect id="Rectangle_2719" data-name="Rectangle 2719" width="83.249" height="0.73" transform="translate(5.606 72.369) rotate(-60.378)" fill="#231f20"/>
                  <rect id="Rectangle_2720" data-name="Rectangle 2720" width="83.249" height="0.73" transform="matrix(0.494, -0.869, 0.869, 0.494, 11.213, 72.369)" fill="#231f20"/>
                </g>
                <g id="Group_7811" data-name="Group 7811" transform="translate(222.23 162.612)">
                  <rect id="Rectangle_2721" data-name="Rectangle 2721" width="83.249" height="0.73" transform="translate(0 72.369) rotate(-60.378)" fill="#231f20"/>
                  <rect id="Rectangle_2722" data-name="Rectangle 2722" width="83.249" height="0.73" transform="translate(5.606 72.369) rotate(-60.378)" fill="#231f20"/>
                  <rect id="Rectangle_2723" data-name="Rectangle 2723" width="83.249" height="0.73" transform="matrix(0.494, -0.869, 0.869, 0.494, 11.213, 72.369)" fill="#231f20"/>
                </g>
                <g id="Group_7812" data-name="Group 7812" transform="translate(258.152 80.423)">
                  <path id="Path_17781" data-name="Path 17781" d="M315.715,99.365a4.769,4.769,0,1,1-4.769-4.769A4.768,4.768,0,0,1,315.715,99.365Z" transform="translate(-303.775 -94.596)" fill="#fff"/>
                  <circle id="Ellipse_662" data-name="Ellipse 662" cx="4.769" cy="4.769" r="4.769" transform="translate(0 2.114)" fill="none" stroke="#231f20" stroke-linecap="round" stroke-linejoin="round" stroke-width="1"/>
                </g>
                <g id="Group_7813" data-name="Group 7813" transform="translate(151.311 167.294)">
                  <path id="Path_17782" data-name="Path 17782" d="M180.161,211.241a4.769,4.769,0,1,1,4.769,4.769A4.769,4.769,0,0,1,180.161,211.241Z" transform="translate(-180.161 -204.358)" fill="#fff"/>
                  <path id="Path_17783" data-name="Path 17783" d="M182.931,208.8a4.769,4.769,0,1,1,4.769,4.769A4.768,4.768,0,0,1,182.931,208.8Z" transform="translate(-180.53 -204.034)" fill="none" stroke="#231f20" stroke-linecap="round" stroke-linejoin="round" stroke-width="1"/>
                </g>
                <g id="Group_7814" data-name="Group 7814" transform="translate(285.665 76.677)">
                  <path id="Path_17784" data-name="Path 17784" d="M341.591,80.318h-.765a.983.983,0,0,1-.983-.983v-.765a.984.984,0,0,0-.984-.983h0a.984.984,0,0,0-.984.983v.765a.983.983,0,0,1-.983.983h-.765a.984.984,0,0,0-.984.984h0a.984.984,0,0,0,.984.984h.765a.983.983,0,0,1,.983.983v.765a.984.984,0,0,0,.984.984h0a.984.984,0,0,0,.984-.984v-.765a.983.983,0,0,1,.983-.983h.765a.984.984,0,0,0,.984-.984h0A.984.984,0,0,0,341.591,80.318Z" transform="translate(-335.143 -77.586)" fill="#fff"/>
                  <path id="Path_17785" data-name="Path 17785" d="M352.489,78.952h-.383a.492.492,0,0,1-.492-.492v-.382a.492.492,0,0,0-.492-.492h0a.492.492,0,0,0-.492.492v.382a.492.492,0,0,1-.492.492h-.382a.492.492,0,0,0-.492.492h0a.492.492,0,0,0,.492.492h.382a.492.492,0,0,1,.492.492v.383a.492.492,0,0,0,.492.492h0a.492.492,0,0,0,.492-.492v-.383a.492.492,0,0,1,.492-.492h.383a.492.492,0,0,0,.492-.492h0A.492.492,0,0,0,352.489,78.952Z" transform="translate(-337.023 -77.586)" fill="#fff"/>
                </g>
                <g id="Group_7816" data-name="Group 7816" transform="translate(118.041 146.689)">
                  <circle id="Ellipse_663" data-name="Ellipse 663" cx="0.858" cy="0.858" r="0.858" transform="translate(0)" fill="#fff"/>
                  <path id="Path_17788" data-name="Path 17788" d="M143.5,170.554a.858.858,0,1,0-.858.858A.858.858,0,0,0,143.5,170.554Z" transform="translate(-141.782 -159.858)" fill="#fff"/>
                  <path id="Path_17789" data-name="Path 17789" d="M143.5,181.9a.858.858,0,1,0-.858.857A.858.858,0,0,0,143.5,181.9Z" transform="translate(-141.782 -161.369)" fill="#fff"/>
                  <path id="Path_17790" data-name="Path 17790" d="M143.5,193.254a.858.858,0,1,0-.858.857A.858.858,0,0,0,143.5,193.254Z" transform="translate(-141.782 -162.879)" fill="#fff"/>
                  <path id="Path_17791" data-name="Path 17791" d="M143.5,204.6a.858.858,0,1,0-.858.858A.858.858,0,0,0,143.5,204.6Z" transform="translate(-141.782 -164.39)" fill="#fff"/>
                </g>
                <g id="Group_7817" data-name="Group 7817" transform="translate(306.164 107.421)">
                  <path id="Path_17792" data-name="Path 17792" d="M360.506,113.908a.858.858,0,1,0-.857.858A.858.858,0,0,0,360.506,113.908Z" transform="translate(-358.79 -113.051)" fill="#fff"/>
                  <path id="Path_17793" data-name="Path 17793" d="M360.506,125.258a.858.858,0,1,0-.857.857A.857.857,0,0,0,360.506,125.258Z" transform="translate(-358.79 -114.562)" fill="#fff"/>
                  <path id="Path_17794" data-name="Path 17794" d="M360.506,136.607a.858.858,0,1,0-.857.858A.858.858,0,0,0,360.506,136.607Z" transform="translate(-358.79 -116.072)" fill="#fff"/>
                  <path id="Path_17795" data-name="Path 17795" d="M360.506,147.957a.858.858,0,1,0-.857.857A.858.858,0,0,0,360.506,147.957Z" transform="translate(-358.79 -117.583)" fill="#fff"/>
                  <path id="Path_17796" data-name="Path 17796" d="M360.506,159.307a.858.858,0,1,0-.857.857A.858.858,0,0,0,360.506,159.307Z" transform="translate(-358.79 -119.094)" fill="#fff"/>
                </g>
              </g>
            </g>
          </g>
        </g>
      </g>
    </g>
    <g id="Group_7844" data-name="Group 7844" transform="translate(6 -3.182)">
      <g id="Group_7823" data-name="Group 7823" transform="translate(61 75.182)">
        <g id="Group_7793" data-name="Group 7793" transform="translate(30.798 2.297)">
          <path id="Path_17678" data-name="Path 17678" d="M308.306,207.813s.469,3.6.056,3.8-1.824.25-1.871.638,2.774-.008,2.774-.008v-3.812Z" transform="translate(-298.093 -175.174)" fill="#404b9a" fill-rule="evenodd"/>
          <path id="Path_17679" data-name="Path 17679" d="M342.306,207.813s-.49,3.6-.078,3.8,1.856.25,1.9.638-2.742-.008-2.742-.008v-3.812Z" transform="translate(-320.729 -175.174)" fill="#404b9a" fill-rule="evenodd"/>
          <path id="Path_17680" data-name="Path 17680" d="M315.883,131.91c-.169,4.764-1.026,9.281-4.4,12.853-4,4.241-9.045,5.029-14.435,3.477-5.624-1.62-8.537-5.91-9.256-11.377a33.894,33.894,0,0,1,.328-11.293c1.5-7.013,6.866-10.817,13.847-10.643,6.683.166,11.734,4.509,13.19,11.456C315.537,128.2,315.648,130.066,315.883,131.91Zm-18.117,5.8c1.076,2.726,6.31,3.17,7.825.4,1.243-2.271,1.03-5.957.532-9.466-.745-5.25-7.874-4.676-8.665.243C297.1,131.133,296.9,135.517,297.766,137.707Z" transform="translate(-285.758 -114.921)" fill="#4f5da7" fill-rule="evenodd"/>
          <path id="Path_17681" data-name="Path 17681" d="M334.628,132.952c-.095,2.283,3.938,1.606,3.82-.06S334.713,130.9,334.628,132.952Z" transform="translate(-316.342 -125.692)" fill="#6f74b5" fill-rule="evenodd" opacity="0.5" style="mix-blend-mode: multiply;isolation: isolate"/>
          <path id="Path_17682" data-name="Path 17682" d="M309.628,132.952c-.095,2.283,3.938,1.606,3.82-.06S309.713,130.9,309.628,132.952Z" transform="translate(-300.127 -125.692)" fill="#6f74b5" fill-rule="evenodd" opacity="0.5" style="mix-blend-mode: multiply;isolation: isolate"/>
          <path id="Path_17683" data-name="Path 17683" d="M297.185,159.277a1.049,1.049,0,0,1-.573-.17c-2.924-1.9-3.738-6.019-4.12-9.393a26.809,26.809,0,0,1,.986-11.131,1.054,1.054,0,0,1,2.007.646,24.693,24.693,0,0,0-.9,10.248c.33,2.915.989,6.443,3.174,7.863a1.054,1.054,0,0,1-.575,1.938Z" transform="translate(-288.891 -129.794)" fill="#6f74b5" opacity="0.6"/>
          <path id="Path_17684" data-name="Path 17684" d="M300.114,127.438a1.054,1.054,0,0,1-.864-1.656,8.03,8.03,0,0,1,3.35-2.973,1.054,1.054,0,0,1,.811,1.946,6.016,6.016,0,0,0-2.431,2.231A1.053,1.053,0,0,1,300.114,127.438Z" transform="translate(-293.273 -119.985)" fill="#6f74b5" opacity="0.6"/>
          <path id="Path_17686" data-name="Path 17686" d="M284.432,153.751a8.6,8.6,0,0,0,3.459,2.214,15.386,15.386,0,0,0,5.47.32c1.319-.13,1.654-1.427,2.08-1.255s-.089,1.216-.089,1.216,1.312-.426,1.632-.095c.241.251-1.461.818-1.461.818s1.58.83,1.34,1.16-1.667-.328-1.667-.328.138.919-.162,1.062-.683-1.189-1.7-1.349c-.467-.072-3.624.387-5.956-.337-2.754-.854-4.19-1.621-4.7-2.9-.264-.662,0-1.923,1.873-2.147Z" transform="translate(-282.59 -139.053)" fill="#404b9a" fill-rule="evenodd"/>
          <path id="Path_17687" data-name="Path 17687" d="M344.164,153.751a8.6,8.6,0,0,1-3.459,2.214,15.387,15.387,0,0,1-5.47.32c-1.319-.13-1.654-1.427-2.08-1.255s.089,1.216.089,1.216-1.312-.426-1.632-.095c-.241.251,1.461.818,1.461.818s-1.58.83-1.34,1.16,1.667-.328,1.667-.328-.138.919.162,1.062.683-1.189,1.7-1.349c.467-.072,3.624.387,5.956-.337,2.754-.854,4.19-1.621,4.7-2.9.264-.662,0-1.923-1.873-2.147Z" transform="translate(-314.372 -139.053)" fill="#404b9a" fill-rule="evenodd"/>
          <path id="Path_17688" data-name="Path 17688" d="M288.721,156.173a7.793,7.793,0,0,1-.83-.208,8.6,8.6,0,0,1-3.459-2.214l.117-1.625c-1.873.224-2.137,1.485-1.873,2.147.513,1.283,1.949,2.05,4.7,2.9a11.912,11.912,0,0,0,3.453.414A17.912,17.912,0,0,1,288.721,156.173Z" transform="translate(-282.59 -139.053)" fill="#404b9a" fill-rule="evenodd" opacity="0.17" style="mix-blend-mode: multiply;isolation: isolate"/>
          <path id="Path_17689" data-name="Path 17689" d="M360.19,152.126l.117,1.625a8.814,8.814,0,0,1-2.407,1.786q-.7.944-1.423,1.856a7.807,7.807,0,0,0,.883-.215c2.754-.854,4.19-1.621,4.7-2.9C362.327,153.611,362.063,152.35,360.19,152.126Z" transform="translate(-330.515 -139.053)" fill="#404b9a" fill-rule="evenodd" opacity="0.17" style="mix-blend-mode: multiply;isolation: isolate"/>
          <path id="Path_17690" data-name="Path 17690" d="M324.959,136.614a1.1,1.1,0,0,1-.943-.486.978.978,0,0,1-.886.486.849.849,0,0,1-.632-.251,1.358,1.358,0,0,1-.313-.884.176.176,0,0,1,.351.008,1.009,1.009,0,0,0,.213.632.5.5,0,0,0,.38.144.683.683,0,0,0,.693-.633.176.176,0,0,1,.168-.157.169.169,0,0,1,.179.143.8.8,0,0,0,.789.647.453.453,0,0,0,.367-.141.9.9,0,0,0,.123-.61.176.176,0,1,1,.347-.056,1.232,1.232,0,0,1-.2.894A.792.792,0,0,1,324.959,136.614Z" transform="translate(-308.273 -128.145)" fill="#131313"/>
          <path id="Path_17691" data-name="Path 17691" d="M333.41,130.679a.176.176,0,0,1-.176-.176.763.763,0,1,0-1.526,0,.176.176,0,1,1-.351,0,1.115,1.115,0,1,1,2.229,0A.176.176,0,0,1,333.41,130.679Z" transform="translate(-314.222 -124.305)" fill="#131313"/>
          <path id="Path_17692" data-name="Path 17692" d="M318.561,130.679a.176.176,0,0,1-.176-.176.763.763,0,1,0-1.526,0,.176.176,0,1,1-.351,0,1.115,1.115,0,1,1,2.229,0A.176.176,0,0,1,318.561,130.679Z" transform="translate(-304.59 -124.305)" fill="#131313"/>
        </g>
        <g id="Group_7795" data-name="Group 7795" transform="translate(0 0)">
          <path id="Path_17693" data-name="Path 17693" d="M232.765,210.34s.582,3.687.16,3.885-2.02.256-2.069.653,3.083-.008,3.083-.008v-3.9Z" transform="translate(-218.235 -174.516)" fill="#20b6dc" fill-rule="evenodd"/>
          <path id="Path_17694" data-name="Path 17694" d="M246.935,210.467s-.384,3.687.039,3.886,1.722.257,1.77.653-2.985-.008-2.985-.008v-3.9Z" transform="translate(-227.902 -174.598)" fill="#20b6dc" fill-rule="evenodd"/>
          <path id="Path_17695" data-name="Path 17695" d="M258.041,137.245a8.81,8.81,0,0,0,3.573-2.216,15.716,15.716,0,0,0,2.711-4.909c.463-1.275-.586-2.158-.239-2.475s1.084.619,1.084.619.186-1.4.633-1.548c.337-.112.11,1.71.11,1.71s1.465-1.091,1.663-.725-1.04,1.394-1.04,1.394.91.279.91.619-1.4.1-2,.974c-.273.4-1.244,3.516-2.943,5.35a12.578,12.578,0,0,1-4.759,3.059Z" transform="translate(-235.678 -120.272)" fill="#20b6dc" fill-rule="evenodd"/>
          <path id="Path_17696" data-name="Path 17696" d="M208.411,160.725a28.609,28.609,0,0,1-5.318.708,12.339,12.339,0,0,1-4.182-.708c-1.262-.5-1.231-1.868-1.7-1.816s-.253,1.222-.253,1.222-1.173-.786-1.58-.55c-.308.179,1.209,1.214,1.209,1.214s-1.787.376-1.643.767,1.734.143,1.734.143-.394.867-.139,1.091,1.006-.981,2.051-.853a19.506,19.506,0,0,0,4.461.574,49.38,49.38,0,0,0,6.941-.787Z" transform="translate(-194.938 -141.154)" fill="#20b6dc" fill-rule="evenodd"/>
          <path id="Path_17697" data-name="Path 17697" d="M261.677,149.684c-.021.024-.042.05-.064.073a8.81,8.81,0,0,1-3.573,2.216l-.294,1.852a12.578,12.578,0,0,0,4.759-3.059,9.085,9.085,0,0,0,1.009-1.348A14.223,14.223,0,0,1,261.677,149.684Z" transform="translate(-235.678 -134.999)" fill="#20b6dc" fill-rule="evenodd" opacity="0.3" style="mix-blend-mode: multiply;isolation: isolate"/>
          <path id="Path_17698" data-name="Path 17698" d="M215.962,165.874h.09a49.384,49.384,0,0,0,6.941-.787l-1.583-1a28.612,28.612,0,0,1-5.318.708,10.632,10.632,0,0,1-1.113-.043A11.816,11.816,0,0,1,215.962,165.874Z" transform="translate(-207.937 -144.511)" fill="#20b6dc" fill-rule="evenodd" opacity="0.3" style="mix-blend-mode: multiply;isolation: isolate"/>
          <path id="Path_17699" data-name="Path 17699" d="M214.51,121.438s-8.361,2.675-8.364,2.573c-.064-2.008-.021-8.975.067-9.023,1.365-.745,18.724-6.606,18.724-6.606l-.083,5.994-.481,30.6s-4.561.086-10-.34C214.388,141.845,214.51,121.438,214.51,121.438Z" transform="translate(-202.188 -108.383)" fill="#20b6dc" fill-rule="evenodd"/>
          <path id="Path_17700" data-name="Path 17700" d="M245.453,132.127c-.151,1.748,3.317,1.619,3.375.193S245.571,130.772,245.453,132.127Z" transform="translate(-227.701 -123.168)" fill="#53c5ec" fill-rule="evenodd" opacity="0.9"/>
          <path id="Path_17701" data-name="Path 17701" d="M222.867,132.127c-.151,1.748,3.317,1.619,3.375.193S222.984,130.772,222.867,132.127Z" transform="translate(-213.051 -123.168)" fill="#53c5ec" fill-rule="evenodd" opacity="0.9"/>
          <path id="Path_17702" data-name="Path 17702" d="M236.213,134.773a1.248,1.248,0,0,1-1.247-1.247.176.176,0,0,1,.351,0,.9.9,0,1,0,1.791,0,.176.176,0,0,1,.351,0A1.248,1.248,0,0,1,236.213,134.773Z" transform="translate(-220.902 -124.578)" fill="#131313"/>
          <path id="Path_17703" data-name="Path 17703" d="M250.29,200.889l-.074,0a1.054,1.054,0,0,1-.979-1.124c.04-.58.038-1.167.036-1.789,0-.2,0-.407,0-.609a1.054,1.054,0,0,1,1.054-1.05h0a1.054,1.054,0,0,1,1.05,1.058c0,.2,0,.4,0,.594,0,.632,0,1.285-.041,1.941A1.054,1.054,0,0,1,250.29,200.889Z" transform="translate(-230.157 -165.418)" fill="#53c5ec" opacity="0.9"/>
          <path id="Path_17704" data-name="Path 17704" d="M250.33,165.049A1.054,1.054,0,0,1,249.276,164q-.008-6.289-.041-12.577a1.054,1.054,0,0,1,1.049-1.059h0a1.054,1.054,0,0,1,1.054,1.049q.03,6.292.041,12.584a1.054,1.054,0,0,1-1.053,1.055Z" transform="translate(-230.157 -135.611)" fill="#53c5ec" opacity="0.9"/>
          <g id="Group_7794" data-name="Group 7794" transform="translate(11.304 4.943)">
            <path id="Path_17705" data-name="Path 17705" d="M245.2,123.623a1.172,1.172,0,1,1-1.171-1.172A1.171,1.171,0,0,1,245.2,123.623Z" transform="translate(-237.324 -122.451)" fill="#131313" fill-rule="evenodd"/>
            <path id="Path_17706" data-name="Path 17706" d="M247.927,124.93a.46.46,0,1,1-.46-.46A.46.46,0,0,1,247.927,124.93Z" transform="translate(-240.015 -123.761)" fill="#fff" fill-rule="evenodd"/>
            <path id="Path_17707" data-name="Path 17707" d="M245.544,126.34a.158.158,0,1,1-.159-.158A.158.158,0,0,1,245.544,126.34Z" transform="translate(-238.861 -124.871)" fill="#fff" fill-rule="evenodd"/>
            <path id="Path_17708" data-name="Path 17708" d="M229.453,123.623a1.172,1.172,0,1,1-1.172-1.172A1.172,1.172,0,0,1,229.453,123.623Z" transform="translate(-227.109 -122.451)" fill="#131313" fill-rule="evenodd"/>
            <path id="Path_17709" data-name="Path 17709" d="M231.032,124.93a.46.46,0,1,1-.46-.46A.46.46,0,0,1,231.032,124.93Z" transform="translate(-229.057 -123.761)" fill="#fff" fill-rule="evenodd"/>
            <path id="Path_17710" data-name="Path 17710" d="M228.65,126.34a.158.158,0,1,1-.158-.158A.158.158,0,0,1,228.65,126.34Z" transform="translate(-227.903 -124.871)" fill="#fff" fill-rule="evenodd"/>
          </g>
        </g>
      </g>
      <g id="Group_7824" data-name="Group 7824" transform="translate(146 75.182)">
        <g id="Group_7802" data-name="Group 7802" transform="translate(0 0)">
          <path id="Path_17711" data-name="Path 17711" d="M254.973,400.631s.44,3.487.04,3.675-1.745.243-1.791.618,2.707-.008,2.707-.008v-3.691Z" transform="translate(-232.231 -364.863)" fill="#0e9933" fill-rule="evenodd"/>
          <path id="Path_17712" data-name="Path 17712" d="M217.942,400.631s.464,3.487.065,3.675-1.781.243-1.826.618,2.671-.008,2.671-.008v-3.691Z" transform="translate(-207.792 -364.863)" fill="#0e9933" fill-rule="evenodd"/>
          <path id="Path_17713" data-name="Path 17713" d="M259.713,331.231a8.33,8.33,0,0,0,3.716-1.415,14.893,14.893,0,0,0,3.4-4.07c.659-1.1-.157-2.11.223-2.342s.895.77.895.77.425-1.266.866-1.324c.334-.044-.205,1.608-.205,1.608s1.556-.75,1.675-.374-1.216,1.107-1.216,1.107.795.423.733.738-1.319-.155-2.029.545c-.326.321-1.788,3.042-3.7,4.439a11.9,11.9,0,0,1-4.97,1.984Z" transform="translate(-236.114 -313.544)" fill="#13aa41" fill-rule="evenodd"/>
          <path id="Path_17714" data-name="Path 17714" d="M200.563,351.8a8.333,8.333,0,0,1-3.379-2.1,14.884,14.884,0,0,1-2.565-4.643c-.437-1.206.555-2.042.227-2.341s-1.025.586-1.025.586-.177-1.324-.6-1.464c-.32-.106-.1,1.617-.1,1.617s-1.386-1.032-1.573-.685.984,1.318.984,1.318-.861.264-.861.585,1.325.1,1.888.921c.259.377,1.177,3.326,2.784,5.061a11.9,11.9,0,0,0,4.5,2.893Z" transform="translate(-191.523 -326.068)" fill="#13aa41" fill-rule="evenodd"/>
          <path id="Path_17715" data-name="Path 17715" d="M266.281,333.93a12.975,12.975,0,0,1-2.852,3.2,8.329,8.329,0,0,1-3.716,1.415l-.606,1.667a11.9,11.9,0,0,0,4.97-1.984A17.162,17.162,0,0,0,267.606,334,12.875,12.875,0,0,1,266.281,333.93Z" transform="translate(-236.114 -320.854)" fill="#13aa41" fill-rule="evenodd" opacity="0.3" style="mix-blend-mode: multiply;isolation: isolate"/>
          <path id="Path_17716" data-name="Path 17716" d="M201.822,358.561a10.287,10.287,0,0,1-1.484-2.175,17.658,17.658,0,0,1-1.784-1.124,14.859,14.859,0,0,0,2.423,4.252,11.9,11.9,0,0,0,4.5,2.894l-.278-1.752A8.332,8.332,0,0,1,201.822,358.561Z" transform="translate(-196.162 -334.929)" fill="#13aa41" fill-rule="evenodd" opacity="0.3" style="mix-blend-mode: multiply;isolation: isolate"/>
          <path id="Path_17717" data-name="Path 17717" d="M209.8,323.871c3.65,0,11.4.085,11.4.085l1.737,8.9-25.32-.347s-1.071-4.922-1.419-6.949c.512-.9,6.528-6.6,9.472-10.359,2.8-3.581,5.622-6.867,3.249-7.821-2.118-.852-8.642,2.443-8.642,2.443s-2.188-6.252-3.008-8.783c16.026-11.224,23.878-3.261,25.443,4.945C224.352,314.627,212.76,321.431,209.8,323.871Z" transform="translate(-194.603 -295.496)" fill="#1fd255" fill-rule="evenodd"/>
          <path id="Path_17718" data-name="Path 17718" d="M247.328,314.766c0,2.024,4.323,1.63,4.32,0C251.643,312.888,247.328,312.146,247.328,314.766Z" transform="translate(-228.342 -307.09)" fill="#13aa41" fill-rule="evenodd" opacity="0.5"/>
          <path id="Path_17719" data-name="Path 17719" d="M224.033,314.7c-.016-1.511-4.342-2.4-4.385,0C219.611,316.793,224.051,316.409,224.033,314.7Z" transform="translate(-210.08 -307.186)" fill="#13aa41" fill-rule="evenodd" opacity="0.5"/>
          <path id="Path_17720" data-name="Path 17720" d="M246.185,312.122a1.217,1.217,0,1,1-1.217-1.217A1.217,1.217,0,0,1,246.185,312.122Z" transform="translate(-225.982 -305.663)" fill="#131313" fill-rule="evenodd"/>
          <path id="Path_17721" data-name="Path 17721" d="M237.739,320.387a1.184,1.184,0,0,1-1.183-1.183.17.17,0,1,1,.34,0,.843.843,0,1,0,1.686,0,.17.17,0,0,1,.34,0A1.185,1.185,0,0,1,237.739,320.387Z" transform="translate(-221.235 -311.026)" fill="#131313"/>
          <path id="Path_17722" data-name="Path 17722" d="M247.646,313.611a.445.445,0,1,1-.445-.445A.446.446,0,0,1,247.646,313.611Z" transform="translate(-227.964 -307.154)" fill="#fff" fill-rule="evenodd"/>
          <path id="Path_17723" data-name="Path 17723" d="M245.282,315.032a.153.153,0,1,1-.153-.153A.153.153,0,0,1,245.282,315.032Z" transform="translate(-226.79 -308.285)" fill="#fff" fill-rule="evenodd"/>
          <path id="Path_17724" data-name="Path 17724" d="M230.394,312.122a1.217,1.217,0,1,1-1.217-1.217A1.217,1.217,0,0,1,230.394,312.122Z" transform="translate(-215.564 -305.663)" fill="#131313" fill-rule="evenodd"/>
          <path id="Path_17725" data-name="Path 17725" d="M231.856,313.611a.445.445,0,1,1-.446-.445A.446.446,0,0,1,231.856,313.611Z" transform="translate(-217.546 -307.154)" fill="#fff" fill-rule="evenodd"/>
          <path id="Path_17726" data-name="Path 17726" d="M229.491,315.032a.153.153,0,1,1-.153-.153A.153.153,0,0,1,229.491,315.032Z" transform="translate(-216.371 -308.285)" fill="#fff" fill-rule="evenodd"/>
          <path id="Path_17727" data-name="Path 17727" d="M262.879,328.623a1.021,1.021,0,0,1-.979-1.309,9.015,9.015,0,0,0,.379-2.738,1.021,1.021,0,1,1,2.041-.044,11.054,11.054,0,0,1-.461,3.358A1.021,1.021,0,0,1,262.879,328.623Z" transform="translate(-237.929 -313.995)" fill="#13aa41"/>
          <path id="Path_17728" data-name="Path 17728" d="M232.2,351.7a1.021,1.021,0,0,1-.514-1.9,25.005,25.005,0,0,0,8.509-7.851,1.021,1.021,0,0,1,1.723,1.095,27.073,27.073,0,0,1-9.207,8.521A1.017,1.017,0,0,1,232.2,351.7Z" transform="translate(-217.688 -325.83)" fill="#13aa41"/>
        </g>
        <g id="Group_7803" data-name="Group 7803" transform="translate(34.153 2.579)">
          <path id="Path_17729" data-name="Path 17729" d="M317.569,395.97s.454,3.488.054,3.675-1.766.242-1.812.618,2.687-.008,2.687-.008v-3.691Z" transform="translate(-307.68 -364.367)" fill="#404b9a" fill-rule="evenodd"/>
          <path id="Path_17730" data-name="Path 17730" d="M351.6,395.97s-.474,3.488-.075,3.675,1.8.242,1.843.618-2.655-.008-2.655-.008v-3.691Z" transform="translate(-330.706 -364.367)" fill="#404b9a" fill-rule="evenodd"/>
          <path id="Path_17731" data-name="Path 17731" d="M324.3,319.527c-.163,4.613-.993,8.987-4.259,12.445-3.878,4.106-8.758,4.869-13.976,3.367-5.446-1.568-8.266-5.722-8.963-11.016a32.806,32.806,0,0,1,.318-10.934c1.45-6.791,6.648-10.473,13.407-10.305,6.471.16,11.361,4.366,12.771,11.092C323.967,315.931,324.074,317.742,324.3,319.527Zm-17.542,5.614c1.041,2.64,6.11,3.069,7.577.39,1.2-2.2,1-5.768.515-9.166-.721-5.084-7.624-4.528-8.39.235C306.112,318.775,305.923,323.02,306.76,325.141Z" transform="translate(-295.133 -303.078)" fill="#4f5da7" fill-rule="evenodd"/>
          <path id="Path_17732" data-name="Path 17732" d="M343.949,321.064c-.092,2.21,3.813,1.555,3.7-.059S344.031,319.079,343.949,321.064Z" transform="translate(-326.244 -314.034)" fill="#6f74b5" fill-rule="evenodd" opacity="0.5" style="mix-blend-mode: multiply;isolation: isolate"/>
          <path id="Path_17733" data-name="Path 17733" d="M318.949,321.064c-.092,2.21,3.813,1.555,3.7-.059S319.031,319.079,318.949,321.064Z" transform="translate(-309.749 -314.034)" fill="#6f74b5" fill-rule="evenodd" opacity="0.5" style="mix-blend-mode: multiply;isolation: isolate"/>
          <path id="Path_17734" data-name="Path 17734" d="M306.351,346.753a1.015,1.015,0,0,1-.555-.165c-2.832-1.841-3.619-5.827-3.989-9.1a25.952,25.952,0,0,1,.954-10.778,1.021,1.021,0,1,1,1.943.625,23.911,23.911,0,0,0-.869,9.923c.32,2.822.957,6.238,3.073,7.613a1.021,1.021,0,0,1-.557,1.876Z" transform="translate(-298.32 -318.206)" fill="#6f74b5" opacity="0.6"/>
          <path id="Path_17735" data-name="Path 17735" d="M309.4,315.446a1.021,1.021,0,0,1-.837-1.6,7.776,7.776,0,0,1,3.244-2.879,1.021,1.021,0,0,1,.786,1.884,5.825,5.825,0,0,0-2.354,2.16A1.02,1.02,0,0,1,309.4,315.446Z" transform="translate(-302.778 -308.229)" fill="#6f74b5" opacity="0.6"/>
          <path id="Path_17737" data-name="Path 17737" d="M293.695,341.856A8.329,8.329,0,0,0,297.044,344a14.9,14.9,0,0,0,5.3.31c1.277-.126,1.6-1.382,2.014-1.215s-.086,1.177-.086,1.177,1.27-.412,1.58-.092c.233.243-1.415.792-1.415.792s1.53.8,1.3,1.123-1.614-.318-1.614-.318.133.89-.157,1.028-.661-1.152-1.646-1.306c-.452-.07-3.509.374-5.767-.327-2.666-.827-4.057-1.57-4.554-2.812-.256-.641,0-1.862,1.813-2.079Z" transform="translate(-291.911 -327.625)" fill="#404b9a" fill-rule="evenodd"/>
          <path id="Path_17738" data-name="Path 17738" d="M353.086,341.856A8.329,8.329,0,0,1,349.737,344a14.9,14.9,0,0,1-5.3.31c-1.277-.126-1.6-1.382-2.014-1.215s.086,1.177.086,1.177-1.27-.412-1.58-.092c-.233.243,1.415.792,1.415.792s-1.53.8-1.3,1.123,1.614-.318,1.614-.318-.133.89.157,1.028.661-1.152,1.646-1.306c.452-.07,3.509.374,5.767-.327,2.666-.827,4.057-1.57,4.553-2.812.256-.641,0-1.862-1.813-2.079Z" transform="translate(-324.24 -327.625)" fill="#404b9a" fill-rule="evenodd"/>
          <path id="Path_17739" data-name="Path 17739" d="M297.847,344.2a7.549,7.549,0,0,1-.8-.2,8.329,8.329,0,0,1-3.349-2.144l.113-1.573c-1.813.217-2.069,1.438-1.813,2.079.5,1.242,1.888,1.985,4.554,2.812a11.53,11.53,0,0,0,3.344.4A17.337,17.337,0,0,1,297.847,344.2Z" transform="translate(-291.911 -327.625)" fill="#404b9a" fill-rule="evenodd" opacity="0.17" style="mix-blend-mode: multiply;isolation: isolate"/>
          <path id="Path_17740" data-name="Path 17740" d="M369.393,340.283l.113,1.573a8.528,8.528,0,0,1-2.33,1.729q-.676.914-1.378,1.8a7.62,7.62,0,0,0,.855-.208c2.666-.827,4.057-1.57,4.553-2.812C371.462,341.721,371.207,340.5,369.393,340.283Z" transform="translate(-340.661 -327.625)" fill="#404b9a" fill-rule="evenodd" opacity="0.17" style="mix-blend-mode: multiply;isolation: isolate"/>
          <path id="Path_17741" data-name="Path 17741" d="M334.192,324.73a1.061,1.061,0,0,1-.912-.471.948.948,0,0,1-.858.471.823.823,0,0,1-.612-.243,1.314,1.314,0,0,1-.3-.856.17.17,0,0,1,.34.007.977.977,0,0,0,.207.611.487.487,0,0,0,.368.139.662.662,0,0,0,.671-.613.169.169,0,0,1,.163-.152.164.164,0,0,1,.174.139.774.774,0,0,0,.763.626.437.437,0,0,0,.355-.137.866.866,0,0,0,.12-.591.17.17,0,0,1,.336-.054,1.2,1.2,0,0,1-.2.865A.767.767,0,0,1,334.192,324.73Z" transform="translate(-318.036 -316.529)" fill="#131313"/>
          <path id="Path_17742" data-name="Path 17742" d="M342.666,318.795a.17.17,0,0,1-.17-.17.739.739,0,1,0-1.478,0,.17.17,0,1,1-.34,0,1.079,1.079,0,1,1,2.158,0A.17.17,0,0,1,342.666,318.795Z" transform="translate(-324.087 -312.623)" fill="#131313"/>
          <path id="Path_17743" data-name="Path 17743" d="M327.817,318.795a.17.17,0,0,1-.17-.17.739.739,0,1,0-1.478,0,.17.17,0,1,1-.34,0,1.079,1.079,0,1,1,2.158,0A.17.17,0,0,1,327.817,318.795Z" transform="translate(-314.29 -312.623)" fill="#131313"/>
        </g>
      </g>
      <g id="Group_7825" data-name="Group 7825" transform="translate(234 75.182)">
        <g id="Group_7805" data-name="Group 7805" transform="translate(0 0)">
          <path id="Path_17744" data-name="Path 17744" d="M217.883,592.041s.422,3.833-.018,4.039-1.824.266-1.874.679,3.068-.009,3.068-.009v-4.056Z" transform="translate(-205.727 -556.753)" fill="#b23b9e" fill-rule="evenodd"/>
          <path id="Path_17745" data-name="Path 17745" d="M244.622,592.041s-.492,3.833-.054,4.039,1.93.266,1.981.679-2.961-.009-2.961-.009v-4.056Z" transform="translate(-223.474 -556.753)" fill="#b23b9e" fill-rule="evenodd"/>
          <path id="Path_17746" data-name="Path 17746" d="M262.037,562.113a9.157,9.157,0,0,0,3.852-2.064,16.373,16.373,0,0,0,3.136-4.915c.564-1.292-.467-2.278-.086-2.584s1.084.714,1.084.714.285-1.439.759-1.564c.358-.095,0,1.781,0,1.781s1.591-1.036,1.772-.642-1.17,1.378-1.17,1.378.926.349.9.7-1.46.016-2.135.879c-.309.4-1.522,3.566-3.4,5.357a13.08,13.08,0,0,1-5.139,2.861Z" transform="translate(-235.064 -530.808)" fill="#b23b9e" fill-rule="evenodd"/>
          <path id="Path_17747" data-name="Path 17747" d="M197.771,558.97a9.155,9.155,0,0,1-3.852-2.064,16.373,16.373,0,0,1-3.136-4.915c-.564-1.292.467-2.278.086-2.583s-1.083.714-1.083.714-.286-1.44-.759-1.565c-.358-.095,0,1.781,0,1.781s-1.591-1.036-1.773-.643,1.171,1.378,1.171,1.378-.926.349-.9.7,1.46.016,2.135.879c.309.4,1.521,3.566,3.4,5.357a13.073,13.073,0,0,0,5.139,2.861Z" transform="translate(-187.235 -528.787)" fill="#b23b9e" fill-rule="evenodd"/>
          <path id="Path_17748" data-name="Path 17748" d="M267.9,566.831a12.033,12.033,0,0,1-2.011,2.673,9.156,9.156,0,0,1-3.852,2.064l-.427,1.9a13.081,13.081,0,0,0,5.139-2.861,15.5,15.5,0,0,0,2.813-4.21A9.71,9.71,0,0,1,267.9,566.831Z" transform="translate(-235.064 -540.262)" fill="#4467ca" fill-rule="evenodd" opacity="0.2" style="mix-blend-mode: multiply;isolation: isolate"/>
          <path id="Path_17749" data-name="Path 17749" d="M205.42,567.8a9.155,9.155,0,0,1-3.852-2.064,13.458,13.458,0,0,1-2.439-3.45q.074,1.4.156,2.807a10.213,10.213,0,0,0,1.423,1.747,13.074,13.074,0,0,0,5.139,2.861Z" transform="translate(-194.884 -537.621)" fill="#f49f3d" fill-rule="evenodd" opacity="0.2" style="mix-blend-mode: multiply;isolation: isolate"/>
          <path id="Path_17750" data-name="Path 17750" d="M221.814,511.063c4.285,1.909,5.949,5.284,5.291,9.765-.684,4.662-3.885,7.633-8.115,8.782-8.149,1.784-18.628-2.477-18.628-2.477l2.807-7.307s12.427,6.121,13.438-.369c.609-4.106-8.9-3.876-8.9-3.876l-.549-7.517s8.958-.9,9.021-4.027c.12-6.019-10.73-1.44-10.73-1.44l-3.7-6.685s13.863-5.8,20.911-.528C227.19,498.767,228.848,506.8,221.814,511.063Z" transform="translate(-195.677 -493.173)" fill="#cb55b7" fill-rule="evenodd"/>
          <path id="Path_17751" data-name="Path 17751" d="M221.527,545.742c-.96,2.828,3.747,2.444,3.968,1.04C225.807,544.786,222.253,543.6,221.527,545.742Z" transform="translate(-209.204 -526.247)" fill="#b23b9e" fill-rule="evenodd" opacity="0.5"/>
          <path id="Path_17752" data-name="Path 17752" d="M246.9,542.679c0,2.195,4.373,1.945,4.381-.089C251.292,540.832,246.907,540.918,246.9,542.679Z" transform="translate(-225.607 -524.131)" fill="#b23b9e" fill-rule="evenodd" opacity="0.5"/>
          <path id="Path_17754" data-name="Path 17754" d="M239.073,547.076a1.293,1.293,0,0,1-1.292-1.292.178.178,0,0,1,.357,0,.935.935,0,0,0,1.87,0,.178.178,0,0,1,.357,0A1.293,1.293,0,0,1,239.073,547.076Z" transform="translate(-219.74 -526.891)" fill="#131313"/>
          <path id="Path_17755" data-name="Path 17755" d="M230.636,538.4a1.338,1.338,0,1,1-1.338-1.338A1.338,1.338,0,0,1,230.636,538.4Z" transform="translate(-213.424 -521.4)" fill="#131313" fill-rule="evenodd"/>
          <path id="Path_17756" data-name="Path 17756" d="M232.086,539.925a.49.49,0,1,1-.489-.49A.49.49,0,0,1,232.086,539.925Z" transform="translate(-215.448 -522.923)" fill="#fff" fill-rule="evenodd"/>
          <path id="Path_17757" data-name="Path 17757" d="M229.579,541.4a.168.168,0,1,1-.168-.168A.168.168,0,0,1,229.579,541.4Z" transform="translate(-214.249 -524.077)" fill="#fff" fill-rule="evenodd"/>
          <path id="Path_17758" data-name="Path 17758" d="M248.849,537.807h-2.83a.178.178,0,0,1-.13-.3l1.415-1.5a.178.178,0,1,1,.26.245l-1.131,1.2h2.416a.178.178,0,1,1,0,.357Z" transform="translate(-224.923 -520.682)" fill="#131313"/>
          <path id="Path_17759" data-name="Path 17759" d="M232.853,498.454a1.07,1.07,0,0,1-.334-.054,19.4,19.4,0,0,0-10.258-.05,1.071,1.071,0,1,1-.55-2.07,21.681,21.681,0,0,1,11.477.085,1.071,1.071,0,0,1-.334,2.088Z" transform="translate(-208.893 -494.703)" fill="#b23b9e" opacity="0.7"/>
        </g>
        <g id="Group_7806" data-name="Group 7806" transform="translate(36.997 0.78)">
          <path id="Path_17760" data-name="Path 17760" d="M316.634,588.252s.476,3.659.057,3.856-1.852.254-1.9.648,2.819-.008,2.819-.008v-3.873Z" transform="translate(-306.259 -555.096)" fill="#404b9a" fill-rule="evenodd"/>
          <path id="Path_17761" data-name="Path 17761" d="M350.62,588.252s-.5,3.659-.079,3.856,1.885.254,1.934.648-2.785-.008-2.785-.008v-3.873Z" transform="translate(-328.702 -555.096)" fill="#404b9a" fill-rule="evenodd"/>
          <path id="Path_17762" data-name="Path 17762" d="M324.631,512.617c-.171,4.839-1.042,9.428-4.468,13.056-4.068,4.308-9.188,5.109-14.663,3.532-5.713-1.645-8.671-6-9.4-11.557a34.42,34.42,0,0,1,.333-11.472c1.522-7.124,6.975-10.988,14.066-10.811,6.789.168,11.92,4.581,13.4,11.637C324.281,508.845,324.393,510.744,324.631,512.617Zm-18.4,5.89c1.093,2.769,6.41,3.22,7.949.409,1.262-2.307,1.047-6.051.541-9.616-.757-5.334-8-4.75-8.8.247C305.548,511.828,305.35,516.282,306.228,518.507Z" transform="translate(-294.03 -495.36)" fill="#4f5da7" fill-rule="evenodd"/>
          <path id="Path_17763" data-name="Path 17763" d="M342.928,513.413c-.1,2.319,4,1.632,3.88-.061S343.014,511.331,342.928,513.413Z" transform="translate(-324.353 -506.038)" fill="#6f74b5" fill-rule="evenodd" opacity="0.5" style="mix-blend-mode: multiply;isolation: isolate"/>
          <path id="Path_17764" data-name="Path 17764" d="M317.928,513.413c-.1,2.319,4,1.632,3.88-.061S318.014,511.331,317.928,513.413Z" transform="translate(-308.276 -506.038)" fill="#6f74b5" fill-rule="evenodd" opacity="0.5" style="mix-blend-mode: multiply;isolation: isolate"/>
          <path id="Path_17765" data-name="Path 17765" d="M305.562,540.055a1.066,1.066,0,0,1-.582-.173c-2.971-1.931-3.8-6.114-4.185-9.542a27.231,27.231,0,0,1,1-11.307,1.071,1.071,0,0,1,2.038.656,25.086,25.086,0,0,0-.911,10.41c.335,2.961,1,6.545,3.224,7.987a1.071,1.071,0,0,1-.585,1.969Z" transform="translate(-297.137 -510.105)" fill="#6f74b5" opacity="0.6"/>
          <path id="Path_17766" data-name="Path 17766" d="M308.43,507.952a1.071,1.071,0,0,1-.878-1.682,8.158,8.158,0,0,1,3.4-3.02,1.071,1.071,0,1,1,.824,1.977,6.111,6.111,0,0,0-2.469,2.266A1.069,1.069,0,0,1,308.43,507.952Z" transform="translate(-301.481 -500.38)" fill="#6f74b5" opacity="0.6"/>
          <path id="Path_17768" data-name="Path 17768" d="M292.761,534.215a8.732,8.732,0,0,0,3.514,2.249,15.627,15.627,0,0,0,5.556.326c1.34-.133,1.68-1.45,2.113-1.275s-.091,1.235-.091,1.235,1.332-.432,1.658-.1c.245.255-1.484.831-1.484.831s1.6.843,1.361,1.178-1.693-.333-1.693-.333.14.934-.164,1.079-.694-1.208-1.726-1.37c-.474-.073-3.681.393-6.05-.343-2.8-.868-4.257-1.647-4.777-2.95-.268-.672,0-1.953,1.9-2.181Z" transform="translate(-290.89 -519.285)" fill="#404b9a" fill-rule="evenodd"/>
          <path id="Path_17769" data-name="Path 17769" d="M352.663,534.215a8.732,8.732,0,0,1-3.514,2.249,15.627,15.627,0,0,1-5.556.326c-1.34-.133-1.68-1.45-2.113-1.275s.091,1.235.091,1.235-1.333-.432-1.658-.1c-.244.255,1.484.831,1.484.831s-1.6.843-1.361,1.178,1.693-.333,1.693-.333-.14.934.164,1.079.694-1.208,1.726-1.37c.474-.073,3.681.393,6.05-.343,2.8-.868,4.257-1.647,4.777-2.95.268-.672,0-1.953-1.9-2.181Z" transform="translate(-322.4 -519.285)" fill="#404b9a" fill-rule="evenodd"/>
          <path id="Path_17770" data-name="Path 17770" d="M297.118,536.676a7.871,7.871,0,0,1-.843-.211,8.732,8.732,0,0,1-3.514-2.249l.119-1.65c-1.9.228-2.171,1.509-1.9,2.181.521,1.3,1.98,2.083,4.777,2.95a12.1,12.1,0,0,0,3.508.42A18.154,18.154,0,0,1,297.118,536.676Z" transform="translate(-290.89 -519.285)" fill="#404b9a" fill-rule="evenodd" opacity="0.17" style="mix-blend-mode: multiply;isolation: isolate"/>
          <path id="Path_17771" data-name="Path 17771" d="M368.548,532.565l.119,1.65a8.951,8.951,0,0,1-2.445,1.814q-.709.958-1.446,1.885a7.881,7.881,0,0,0,.9-.218c2.8-.868,4.257-1.647,4.777-2.95C370.719,534.074,370.451,532.793,368.548,532.565Z" transform="translate(-338.404 -519.285)" fill="#404b9a" fill-rule="evenodd" opacity="0.17" style="mix-blend-mode: multiply;isolation: isolate"/>
          <path id="Path_17772" data-name="Path 17772" d="M333.3,517.074a1.114,1.114,0,0,1-.958-.494.993.993,0,0,1-.9.494.862.862,0,0,1-.642-.255,1.379,1.379,0,0,1-.318-.9.178.178,0,0,1,.357.008,1.027,1.027,0,0,0,.217.642.512.512,0,0,0,.386.146.694.694,0,0,0,.7-.643.178.178,0,0,1,.171-.159.173.173,0,0,1,.182.146.812.812,0,0,0,.8.657.46.46,0,0,0,.373-.143.909.909,0,0,0,.125-.62.179.179,0,0,1,.353-.056,1.254,1.254,0,0,1-.207.908A.805.805,0,0,1,333.3,517.074Z" transform="translate(-316.352 -508.47)" fill="#131313"/>
          <path id="Path_17773" data-name="Path 17773" d="M341.742,511.138a.179.179,0,0,1-.178-.178.775.775,0,1,0-1.55,0,.178.178,0,1,1-.357,0,1.132,1.132,0,1,1,2.264,0A.179.179,0,0,1,341.742,511.138Z" transform="translate(-322.25 -504.663)" fill="#131313"/>
          <path id="Path_17774" data-name="Path 17774" d="M326.894,511.138a.179.179,0,0,1-.178-.178.775.775,0,1,0-1.55,0,.178.178,0,1,1-.357,0,1.132,1.132,0,1,1,2.264,0A.178.178,0,0,1,326.894,511.138Z" transform="translate(-312.702 -504.663)" fill="#131313"/>
        </g>
      </g>
    </g>
  </g>
</svg>
