<svg xmlns="http://www.w3.org/2000/svg" xmlns:xlink="http://www.w3.org/1999/xlink" width="338" height="90" viewBox="0 0 338 90">
  <defs>
    <clipPath id="clip-path">
      <rect id="Mask" width="338" height="90" rx="14" transform="translate(19 1831)" fill="#7146a2"/>
    </clipPath>
    <clipPath id="clip-path-2">
      <rect id="Mask-2" data-name="Mask" width="338" height="90" rx="14" transform="translate(18 354)" fill="none"/>
    </clipPath>
    <linearGradient id="linear-gradient" y1="0.5" x2="1" y2="0.5" gradientUnits="objectBoundingBox">
      <stop offset="0" stop-color="#ffab14"/>
      <stop offset="1" stop-color="#f77c1b"/>
    </linearGradient>
    <linearGradient id="linear-gradient-3" x1="0.007" y1="0.501" x2="1.007" y2="0.501" xlink:href="#linear-gradient"/>
    <filter id="Rectangle_2733" x="178.55" y="40.748" width="124.945" height="55.804" filterUnits="userSpaceOnUse">
      <feOffset dx="7" dy="9" input="SourceAlpha"/>
      <feGaussianBlur stdDeviation="3.5" result="blur"/>
      <feFlood flood-color="#1a1818" flood-opacity="0.349"/>
      <feComposite operator="in" in2="blur"/>
      <feComposite in="SourceGraphic"/>
    </filter>
  </defs>
  <g id="AD_2_image" data-name="AD 2 image" transform="translate(-19 -1831)" clip-path="url(#clip-path)">
    <g id="Group_7891" data-name="Group 7891" transform="translate(1 1477)">
      <g id="Group_7886" data-name="Group 7886">
        <g id="Group_302" data-name="Group 302" transform="translate(2 -617)">
          <rect id="Mask-3" data-name="Mask" width="338" height="90" rx="14" transform="translate(16 971)" fill="#7146a2"/>
        </g>
        <g id="Mask_Group_6842" data-name="Mask Group 6842" clip-path="url(#clip-path-2)">
          <g id="Group_7858" data-name="Group 7858" transform="translate(108.17 340.486)">
            <g id="Group_7847" data-name="Group 7847" transform="translate(176.427 -6)">
              <g id="Group_7846" data-name="Group 7846">
                <path id="Path_17833" data-name="Path 17833" d="M443.614-85.033c-2.135,2.235-2.131,5.957-.557,8.617a13.055,13.055,0,0,0,7.336,5.339,66.74,66.74,0,0,0,9.077,1.85,62.953,62.953,0,0,1,46.85,39.3c1.385,3.742,2.412,7.631,4.179,11.209s4.41,6.912,8.067,8.508,8.429,1.03,10.955-2.059c2.146-2.624,2.273-6.3,2.3-9.694q.164-20.486.327-40.972.095-11.857.189-23.713c.015-1.911,0-3.931-.968-5.577-2.025-3.434-6.881-3.5-10.852-3.144-17.351,1.562-59.552,8.77-76.9,10.332" transform="translate(-441.937 95.508)" fill="url(#linear-gradient)"/>
              </g>
            </g>
          </g>
          <g id="Group_7857" data-name="Group 7857" transform="translate(-6.683 403.01)">
            <path id="Path_17832" data-name="Path 17832" d="M-130.062,546.136a30.039,30.039,0,0,1,31.006,3.908c8.47,6.94,12.547,18.127,20.921,25.181,8.317,7.007,19.683,8.985,30.509,10.016s22.042,1.46,31.846,6.168c2.956,1.419,6.069,3.777,6.076,7.056.009,3.853-4.185,6.238-7.906,7.237-7.961,2.138-16.347,1.823-24.583,1.492l-58.361-2.345c-5.737-.23-11.672-.51-16.809-3.073-6.784-3.385-11.2-10.376-13.23-17.681s.468-30.376.53-37.958" transform="translate(131.385 -543.498)" fill="url(#linear-gradient)"/>
          </g>
        </g>
      </g>
      <text id="Grocery_Digitization_Program_" data-name="Grocery
Digitization
Program!" transform="translate(129 388)" fill="#fff" font-size="15" font-family="Montserrat-SemiBold, Montserrat" font-weight="600"><tspan x="-30.262" y="0">Grocery</tspan><tspan x="-44.948" y="19">Digitization</tspan><tspan x="-36.075" y="38">Program!</tspan></text>
      <g id="Group_7867" data-name="Group 7867" transform="translate(-29.329 275.831)">
        <g id="Group_7863" data-name="Group 7863" transform="translate(260.448 98.698)">
          <path id="Path_17838" data-name="Path 17838" d="M73.263,483.276c2.46,0,2.46,2.939,4.92,2.939s2.459-2.939,4.919-2.939,2.46,2.939,4.92,2.939,2.461-2.939,4.922-2.939,2.46,2.939,4.92,2.939,2.462-2.939,4.924-2.939,2.462,2.939,4.924,2.939" transform="translate(-73.263 -483.276)" fill="none" stroke="#fff" stroke-miterlimit="10" stroke-width="1"/>
        </g>
        <g id="Group_7864" data-name="Group 7864" transform="translate(92.401 82.616)">
          <path id="Path_17839" data-name="Path 17839" d="M198.354,85.616c3.245,0,3.245,2.939,6.491,2.939s3.246-2.939,6.492-2.939,3.245,2.939,6.49,2.939,3.246-2.939,6.492-2.939,3.246,2.939,6.492,2.939,3.247-2.939,6.493-2.939,3.247,2.939,6.493,2.939" transform="translate(-198.354 -85.616)" fill="none" stroke="#fff" stroke-miterlimit="10" stroke-width="1"/>
        </g>
        <g id="Group_7865" data-name="Group 7865" transform="translate(350.092 137.475)">
          <path id="Path_17840" data-name="Path 17840" d="M670.728,505.079,662.5,493.557l17.676,8.264Z" transform="translate(-655.685 -493.557)" fill="none" stroke="#fff" stroke-miterlimit="10" stroke-width="1"/>
          <path id="Path_17841" data-name="Path 17841" d="M650.11,518.176l-5.125-8.324-1.035,8.319Z" transform="translate(-643.951 -503.866)" fill="none" stroke="#fff" stroke-miterlimit="10" stroke-width="1"/>
        </g>
        <g id="Group_7866" data-name="Group 7866" transform="translate(59.329 102.564)">
          <path id="Path_17842" data-name="Path 17842" d="M68.776,139.342l8.23,11.522L59.329,142.6Z" transform="translate(-59.329 -136.554)" fill="none" stroke="#fff" stroke-miterlimit="10" stroke-width="1"/>
          <path id="Path_17843" data-name="Path 17843" d="M109.227,131.753l5.125,8.324,1.035-8.319Z" transform="translate(-90.897 -131.753)" fill="none" stroke="#fff" stroke-miterlimit="10" stroke-width="1"/>
        </g>
        <circle id="Ellipse_668" data-name="Ellipse 668" cx="3.682" cy="3.682" r="3.682" transform="translate(309.771 92.309)" fill="none" stroke="#fff" stroke-miterlimit="10" stroke-width="1"/>
        <circle id="Ellipse_669" data-name="Ellipse 669" cx="3.682" cy="3.682" r="3.682" transform="translate(81.912 144.985)" fill="none" stroke="#fff" stroke-miterlimit="10" stroke-width="1"/>
      </g>
      <g id="Group_7887" data-name="Group 7887">
        <g id="Group_302-2" data-name="Group 302" transform="translate(2 -617)">
          <rect id="Mask-4" data-name="Mask" width="338" height="90" rx="14" transform="translate(16 971)" fill="none"/>
        </g>
        <path id="Path_17858" data-name="Path 17858" d="M226.975,153.984a1.518,1.518,0,0,1-.8.228,1.558,1.558,0,0,1-1.556-1.542,1.394,1.394,0,0,1,.043-.364,1.534,1.534,0,0,1,.7-.963,1.511,1.511,0,0,1,1.163-.178,1.545,1.545,0,0,1,1.149,1.857A1.558,1.558,0,0,1,226.975,153.984Zm-52.7-34.948h-.307a1.554,1.554,0,0,0-.195-1.587,1.552,1.552,0,0,0-2.175-.258l0,0a1.541,1.541,0,0,0-.247,2.172,1.54,1.54,0,0,0,1.216.587,1.56,1.56,0,0,0,.957-.327Zm38.294,55.352a1.55,1.55,0,0,0-1.689-2.6l0,0a1.552,1.552,0,0,0-.7,1.3,1.583,1.583,0,0,0,.248.845,1.559,1.559,0,0,0,2.145.453Zm2.808-55.113a1.552,1.552,0,0,0,.317-1.143,1.547,1.547,0,1,0-2.491,1.4,1.559,1.559,0,0,0,.956.327A1.542,1.542,0,0,0,215.376,119.275Zm2.9,49.861a1.515,1.515,0,0,0-.434-1.088,1.547,1.547,0,0,0-2.186-.052l-.005.006a1.569,1.569,0,0,0-.471,1.117,1.554,1.554,0,0,0,1.514,1.542h.036a1.545,1.545,0,0,0,1.546-1.525Zm-49.209-.993,0,0a1.551,1.551,0,0,0,1.13,2.611h.036a1.544,1.544,0,0,0,1.024-2.663A1.549,1.549,0,0,0,169.072,168.143Zm-9.286-20.12.075,0a1.566,1.566,0,0,0,1.47-1.627,1.543,1.543,0,0,0-1.619-1.466h0a1.549,1.549,0,0,0-1.474,1.547v.076A1.564,1.564,0,0,0,159.786,148.023ZM162.8,160.39a1.534,1.534,0,0,0,.635-.138,1.543,1.543,0,0,0-.107-2.855,1.524,1.524,0,0,0-1.181.048,1.553,1.553,0,0,0-.761,2.046A1.562,1.562,0,0,0,162.8,160.39Zm13.262,11.481a1.55,1.55,0,0,0-2.144.464h0a1.547,1.547,0,0,0,1.64,2.344,1.515,1.515,0,0,0,.96-.674,1.547,1.547,0,0,0,.212-1.175A1.515,1.515,0,0,0,176.063,171.871Zm-16.171-17.747a1.545,1.545,0,0,0,2.307-1.688,1.547,1.547,0,0,0-.71-.959,1.52,1.52,0,0,0-1.157-.175,1.549,1.549,0,0,0-1.185,1.5,1.507,1.507,0,0,0,.05.368A1.525,1.525,0,0,0,159.892,154.124Zm5.674-25.305A1.541,1.541,0,0,0,165,126.7a1.551,1.551,0,0,0-2.114.565l-.289.495h.108a1.468,1.468,0,0,0-.027.28,1.548,1.548,0,0,0,2.886.775Zm2.37-4.447a1.544,1.544,0,0,0,1.01-2.715,1.56,1.56,0,0,0-2.183.164l0,0a1.544,1.544,0,0,0,1.175,2.549Zm-8.077,17.241a1.545,1.545,0,0,0,1.754-1.309,1.53,1.53,0,0,0-.289-1.144,1.549,1.549,0,0,0-1.028-.609,1.54,1.54,0,0,0-1.745,1.318,1.474,1.474,0,0,0-.012.217A1.555,1.555,0,0,0,159.859,141.613Zm7.4,21.867a1.56,1.56,0,0,0-2.163-.361l0,0a1.549,1.549,0,0,0-.638,1.264,1.607,1.607,0,0,0,.283.9,1.551,1.551,0,0,0,2.522-1.807Zm-4.217-29.113a1.549,1.549,0,0,0-2.929-1.01,1.43,1.43,0,0,0-.084.51,1.534,1.534,0,0,0,1.038,1.454,1.5,1.5,0,0,0,.511.089A1.563,1.563,0,0,0,163.045,134.367Zm60.412,25.764a1.531,1.531,0,0,0,.632.137,1.548,1.548,0,1,0-1.4-2.188h0a1.535,1.535,0,0,0,.773,2.05Zm-1.655,2.874a1.542,1.542,0,0,0-2.154.369,1.5,1.5,0,0,0-.29.891,1.538,1.538,0,0,0,.657,1.265,1.521,1.521,0,0,0,.889.287,1.6,1.6,0,0,0,.26-.022,1.548,1.548,0,0,0,.638-2.79Zm5.177-15.13.076,0a1.52,1.52,0,0,0,1.027-.4,1.551,1.551,0,0,0,.1-2.194,1.56,1.56,0,0,0-2.186-.093,1.541,1.541,0,0,0-.5,1.073v.073A1.535,1.535,0,0,0,226.978,147.875ZM223.3,129.256a1.518,1.518,0,0,0,.719-.932,1.56,1.56,0,1,0-.719.932Zm-35.965,47.122a1.563,1.563,0,0,0-1.811,1.225,1.416,1.416,0,0,0-.023.3,1.549,1.549,0,0,0,1.248,1.516l.044.006a1.512,1.512,0,0,0,.249.021,1.548,1.548,0,0,0,.293-3.069Zm37.358-44.106a1.545,1.545,0,0,0,.512,3,1.543,1.543,0,0,0,1.457-2.054,1.541,1.541,0,0,0-1.97-.95Zm1.806,6.139a1.554,1.554,0,0,0-1.32,1.527,1.6,1.6,0,0,0,.012.226,1.554,1.554,0,0,0,1.528,1.326,1.516,1.516,0,0,0,.225-.017,1.547,1.547,0,0,0,.7-2.771,1.533,1.533,0,0,0-1.148-.291ZM193.552,176.95a.346.346,0,0,0-.081.008h-.056a1.547,1.547,0,0,0,0,3.094.5.5,0,0,0,.073-.006.269.269,0,0,1,.077.006,1.551,1.551,0,0,0,1.09-.461,1.52,1.52,0,0,0,.444-1.094A1.548,1.548,0,0,0,193.552,176.95Zm2.979-64.088a1.547,1.547,0,0,0,1.546-1.406,1.532,1.532,0,0,0-.351-1.136,1.543,1.543,0,0,0-2.721.836.814.814,0,0,0-.011.154,1.553,1.553,0,0,0,1.406,1.546C196.443,112.861,196.488,112.863,196.531,112.863Zm11.537,3.387a1.547,1.547,0,0,0,.692.163,1.544,1.544,0,0,0,.718-2.918,1.544,1.544,0,0,0-2.083.67v0a1.537,1.537,0,0,0,.675,2.082ZM190,109.791a1.553,1.553,0,0,0-1.4,1.537.857.857,0,0,0,.012.165,1.551,1.551,0,0,0,1.54,1.38,1.485,1.485,0,0,0,.149-.007,1.544,1.544,0,1,0-.3-3.074Zm-6.576,1.271a1.551,1.551,0,0,0-1.1,1.484,1.548,1.548,0,0,0,1.552,1.546,1.546,1.546,0,0,0,1.479-1.991A1.554,1.554,0,0,0,183.422,111.061Zm-1.942,63.606a1.548,1.548,0,0,0-2.011.856l0,.01a1.615,1.615,0,0,0-.109.568,1.55,1.55,0,0,0,2.988.577,1.544,1.544,0,0,0-.864-2.012Zm18.437,4.749a1.545,1.545,0,0,0,1.518-1.841,1.513,1.513,0,0,0-.642-.981,1.547,1.547,0,0,0-1.173-.24h0a1.55,1.55,0,0,0-1.249,1.517,1.479,1.479,0,0,0,.031.3A1.548,1.548,0,0,0,199.916,179.417Zm3.34-68.4a1.548,1.548,0,0,0-1.177.128,1.523,1.523,0,0,0-.74.925h0a1.575,1.575,0,0,0-.061.432,1.547,1.547,0,1,0,1.979-1.485Zm16.605,10.574h-.01a1.545,1.545,0,0,0-2.069-.041h0a1.544,1.544,0,0,0-.152,2.184,1.542,1.542,0,0,0,1.166.536,1.552,1.552,0,0,0,1.173-2.568Zm-13.224,55.891a1.566,1.566,0,0,0,.843-2.018,1.536,1.536,0,0,0-1.559-.96v-.082l-.455.187a1.554,1.554,0,0,0-.967,1.44,1.646,1.646,0,0,0,.113.578,1.551,1.551,0,0,0,1.44.968A1.572,1.572,0,0,0,206.638,177.485ZM179.3,114.222a1.548,1.548,0,0,0-2.084-.662l0,0a1.552,1.552,0,0,0-.832,1.371,1.59,1.59,0,0,0,.174.71,1.527,1.527,0,0,0,.9.763,1.557,1.557,0,0,0,.472.074,1.548,1.548,0,0,0,1.372-2.257ZM170.3,176.265a1.449,1.449,0,0,0-2.007.306,1.437,1.437,0,0,0,1.157,2.286,1.463,1.463,0,0,0,.218-.016,1.408,1.408,0,0,0,.931-.563A1.446,1.446,0,0,0,170.3,176.265Zm27.189,10.254c.045,0,.091,0,.137-.007a1.433,1.433,0,0,0,.76-2.539,1.414,1.414,0,0,0-1.048-.315,1.429,1.429,0,0,0-1.294,1.423.714.714,0,0,0,.009.145A1.436,1.436,0,0,0,197.485,186.519Zm-21.938-6.992a1.449,1.449,0,0,0-1.935.62l0,0a1.442,1.442,0,0,0-.157.651,1.435,1.435,0,0,0,2.708.663A1.445,1.445,0,0,0,175.547,179.527Zm17.867,4.324a1.433,1.433,0,1,0,1.433,1.433A1.435,1.435,0,0,0,193.414,183.852Zm-22.2-71.109a1.435,1.435,0,0,0,.6-.936,1.4,1.4,0,0,0-.233-1.057,1.437,1.437,0,0,0-.924-.6,1.421,1.421,0,0,0-1.076.231l0,0a1.448,1.448,0,0,0-.609,1.177,1.476,1.476,0,0,0,.254.823,1.444,1.444,0,0,0,1.181.613A1.4,1.4,0,0,0,171.217,112.743ZM163.6,172.207h0a1.434,1.434,0,1,0,2.024.009A1.436,1.436,0,0,0,163.6,172.207Zm23.66,11.161a1.439,1.439,0,0,0-1.644,1.19v.007a1.532,1.532,0,0,0-.019.216,1.436,1.436,0,1,0,1.665-1.413Zm-25.362-14.81a1.414,1.414,0,0,0-.251-1.067,1.446,1.446,0,0,0-2-.337l0,0a1.453,1.453,0,0,0-.6,1.167,1.361,1.361,0,0,0,.271.831,1.419,1.419,0,0,0,.933.585,1.455,1.455,0,0,0,.238.02,1.4,1.4,0,0,0,.824-.267A1.423,1.423,0,0,0,161.894,168.558ZM175.466,109.7a1.435,1.435,0,0,0,.477.082,1.445,1.445,0,0,0,1.35-.951,1.435,1.435,0,1,0-1.827.868Zm5.785,72.223a1.419,1.419,0,0,0-1.09.076,1.438,1.438,0,0,0-.723.839l0,.013a1.53,1.53,0,0,0-.07.432,1.443,1.443,0,0,0,.763,1.265v.03l.228.073a1.419,1.419,0,0,0,.438.069,1.456,1.456,0,0,0,1.374-.989A1.44,1.44,0,0,0,181.25,181.92ZM166.536,116.55v-.01a1.431,1.431,0,0,0-1.062-2.357,1.448,1.448,0,0,0-1.021.4,1.434,1.434,0,0,0,.959,2.471h.035a1.416,1.416,0,0,0,.989-.4ZM154.12,158.158a1.427,1.427,0,0,0,1.1.1,1.434,1.434,0,1,0-.854-2.739h0a1.424,1.424,0,0,0-1,1.37,1.45,1.45,0,0,0,.063.42A1.422,1.422,0,0,0,154.12,158.158ZM219.2,111.823a1.437,1.437,0,0,0-2.01.25,1.4,1.4,0,0,0-.307.887,1.435,1.435,0,1,0,2.317-1.136Zm3.889,4.037a1.424,1.424,0,0,0-1.027.382h0a1.436,1.436,0,0,0-.462,1.045,1.442,1.442,0,0,0,1.385,1.435h.053a1.432,1.432,0,0,0,.052-2.863Zm-11.369-7.137a1.412,1.412,0,0,0-.18.7,1.432,1.432,0,0,0,1.434,1.433,1.462,1.462,0,0,0,.4-.055,1.409,1.409,0,0,0,.859-.685,1.441,1.441,0,0,0,.123-1.09,1.406,1.406,0,0,0-.685-.859A1.435,1.435,0,0,0,211.719,108.723Zm16.491,12.79a1.44,1.44,0,0,0-2.633.8,1.382,1.382,0,0,0,.248.788,1.4,1.4,0,0,0,.913.614,1.439,1.439,0,0,0,.282.028,1.462,1.462,0,0,0,.8-.24A1.436,1.436,0,0,0,228.21,121.513Zm-25.156,63.672a1.425,1.425,0,0,0,.721.2,1.46,1.46,0,0,0,.37-.048,1.437,1.437,0,0,0,.35-2.631,1.419,1.419,0,0,0-.669-.19v-.073l-.417.117a1.454,1.454,0,0,0-1.069,1.389,1.483,1.483,0,0,0,.051.367A1.421,1.421,0,0,0,203.055,185.185Zm2.733-78.9a1.337,1.337,0,0,0-.086.489,1.434,1.434,0,0,0,.949,1.349,1.408,1.408,0,0,0,.478.083,1.432,1.432,0,0,0,.493-2.78,1.425,1.425,0,0,0-1.834.859Zm-12.638-1.923v.041a1.425,1.425,0,0,0,1.392,1.433h.039a1.434,1.434,0,1,0-1.431-1.475Zm40.285,34.408a1.435,1.435,0,0,0-1.272,1.422c0,.032,0,.063.008.122l0,.039a1.441,1.441,0,0,0,.533.961,1.413,1.413,0,0,0,.883.312,1.44,1.44,0,0,0,.171-.01,1.409,1.409,0,0,0,.963-.532,1.431,1.431,0,0,0-1.289-2.313Zm-5.526,24.857v-.564l-.618,1.134a1.471,1.471,0,0,0-.186.71,1.427,1.427,0,0,0,.146.628v.043l.012-.02a1.432,1.432,0,0,0,.565.591,1.407,1.407,0,0,0,.712.193,1.433,1.433,0,0,0,.713-2.68A1.434,1.434,0,0,0,227.908,163.626Zm-18.084,19.629a1.432,1.432,0,0,0,1.307-2.016,1.432,1.432,0,0,0-2.742.579,1.437,1.437,0,0,0,1.435,1.437Zm-10.278-78.441a1.226,1.226,0,0,0-.032.269,1.493,1.493,0,1,0,.032-.269Zm30.007,21.778a1.416,1.416,0,0,0-.834,1.3,1.363,1.363,0,0,0,.135.6,1.435,1.435,0,0,0,1.9.705,1.434,1.434,0,1,0-1.2-2.6ZM157.175,164.27a1.481,1.481,0,0,0,.648-.151,1.437,1.437,0,0,0-1.283-2.571l0,0a1.428,1.428,0,0,0-.791,1.285,1.412,1.412,0,0,0,.149.644A1.43,1.43,0,0,0,157.175,164.27Zm75.9-31.619a1.435,1.435,0,0,0-1.092-.133h0a1.44,1.44,0,0,0-1.043,1.38,1.233,1.233,0,0,0,.052.387,1.437,1.437,0,0,0,1.388,1.053,1.426,1.426,0,0,0,1.374-1.819A1.422,1.422,0,0,0,233.073,132.651Zm-76.557-.523a1.436,1.436,0,0,0-2.717-.929v0a1.423,1.423,0,0,0,1.344,1.9A1.46,1.46,0,0,0,156.516,132.128Zm.526-5.067a1.439,1.439,0,1,0-.592-1.952l0,.006a1.466,1.466,0,0,0-.166.672A1.449,1.449,0,0,0,157.043,127.062ZM154,143.26a1.428,1.428,0,0,0-1.018-.442h-.019a1.447,1.447,0,0,0-1.435,1.408v.026a1.439,1.439,0,0,0,1.413,1.433h.019a1.435,1.435,0,0,0,1.443-1.408v-.338h-.04A1.409,1.409,0,0,0,154,143.26Zm.976-5.143a1.438,1.438,0,0,0-2.833-.491l0,.017a1.954,1.954,0,0,0-.018.235,1.44,1.44,0,0,0,2.261,1.168A1.42,1.42,0,0,0,154.979,138.116Zm7.068-18.858a1.418,1.418,0,0,0-1.063-.282,1.437,1.437,0,0,0-.947.552,1.383,1.383,0,0,0-.3.868,1.458,1.458,0,0,0,.57,1.148,1.418,1.418,0,0,0,.856.284,1.454,1.454,0,0,0,1.155-.569A1.432,1.432,0,0,0,162.047,119.259Zm-8.465,32.8a1.43,1.43,0,0,0,.945-.567,1.44,1.44,0,0,0-.283-1.995,1.436,1.436,0,0,0-2.3,1.141,1.379,1.379,0,0,0,.012.211,1.437,1.437,0,0,0,1.413,1.226A1.408,1.408,0,0,0,153.581,152.061ZM226.041,171.1a1.432,1.432,0,1,0-2.55-.9,1.432,1.432,0,0,0,2.55.9Zm8.413-17.858a1.436,1.436,0,0,0-2.812-.58,1.326,1.326,0,0,0-.023.288,1.438,1.438,0,0,0,1.435,1.44,1.44,1.44,0,0,0,1.4-1.147ZM182.263,104.65a1.43,1.43,0,0,0-.754.013l-2.212.645h1.388a1.436,1.436,0,0,0-.2.735,1.419,1.419,0,0,0,.062.409,1.434,1.434,0,0,0,1.377,1.028,1.433,1.433,0,0,0,1.372-1.849,1.433,1.433,0,0,0-.448-.679l1-.3Zm32.889,75.517a1.44,1.44,0,0,0,.3.032,1.418,1.418,0,0,0,.777-.232,1.447,1.447,0,0,0,.421-1.99,1.412,1.412,0,0,0-.906-.618,1.435,1.435,0,0,0-.594,2.808Zm15.618-19.71a1.435,1.435,0,0,0,1.842-.839,1.431,1.431,0,1,0-2.678-1.013,1.433,1.433,0,0,0,.835,1.852Zm4.486-13.8a1.4,1.4,0,0,0-.374-1.033,1.449,1.449,0,0,0-1-.466,1.43,1.43,0,0,0-1.495,1.375v.058a1.432,1.432,0,0,0,1.38,1.433h.058a1.428,1.428,0,0,0,1.428-1.368ZM189.322,105.6a1.411,1.411,0,0,0,.285-1.059,1.443,1.443,0,0,0-1.6-1.241h0a1.44,1.44,0,0,0-1.253,1.422,1.111,1.111,0,0,0,.012.19,1.433,1.433,0,0,0,1.611,1.232h0A1.418,1.418,0,0,0,189.322,105.6Zm32.162,70.326a1.441,1.441,0,0,0,.474-.994,1.437,1.437,0,0,0-1.352-1.507,1.448,1.448,0,0,0-1.039.372,1.409,1.409,0,0,0-.476,1.066,1.427,1.427,0,0,0,1.441,1.429A1.412,1.412,0,0,0,221.484,175.923ZM198.921,99.248a1.32,1.32,0,0,0,1.47-1.157,1.323,1.323,0,0,0-2.627-.313l0,.068c0,.031-.006.062-.006.093A1.316,1.316,0,0,0,198.921,99.248ZM162.7,180.739l-.006.007a1.336,1.336,0,0,0-.288.827,1.325,1.325,0,0,0,1.321,1.326,1.352,1.352,0,0,0,.147-.008,1.292,1.292,0,0,0,.877-.482,1.322,1.322,0,0,0-2.05-1.669Zm70.758-10.8a1.324,1.324,0,0,0-1.837.356l-.348.514h.148a1.3,1.3,0,0,0-.019.223,1.322,1.322,0,0,0,2.422.733A1.32,1.32,0,0,0,233.455,169.943Zm2.7-47.339a1.323,1.323,0,1,0-2.59-.381,1.306,1.306,0,0,0,.163.632,1.342,1.342,0,0,0,1.169.685,1.316,1.316,0,0,0,1.257-.935Zm-5.775-5.01a1.3,1.3,0,0,0,.861.526,1.321,1.321,0,0,0,.2.015,1.3,1.3,0,0,0,.778-.258,1.325,1.325,0,0,0,.282-1.85,1.32,1.32,0,0,0-2.379.789A1.263,1.263,0,0,0,230.382,117.594Zm-71.322,58.3a1.3,1.3,0,0,0-.946.358l0,0a1.322,1.322,0,0,0-.409.961,1.337,1.337,0,0,0,.357.907,1.322,1.322,0,1,0,1-2.228Zm67.317-64.925,0,.005a1.332,1.332,0,0,0-.4.947,1.29,1.29,0,0,0,.368.918,1.312,1.312,0,0,0,.949.4,1.32,1.32,0,1,0-.915-2.273Zm-56.718,73.167a1.3,1.3,0,0,0-1-.152,1.322,1.322,0,0,0-.817.593l0,0a1.32,1.32,0,0,0-.185.689,1.334,1.334,0,0,0,.626,1.124l.088.05h.008a1.3,1.3,0,0,0,.6.145,1.327,1.327,0,0,0,.313-.038,1.305,1.305,0,0,0,.814-.6A1.324,1.324,0,0,0,169.659,184.135Zm9.729-83.446a1.3,1.3,0,0,0,1,.107,1.323,1.323,0,0,0-.745-2.54h0a1.32,1.32,0,0,0-.94,1.273,1.088,1.088,0,0,0,.054.368A1.313,1.313,0,0,0,179.388,100.689Zm-20.927,10.984a1.325,1.325,0,0,0-.916.431l-.507.552h.211a1.341,1.341,0,0,0-.042.337,1.327,1.327,0,0,0,.423.973,1.308,1.308,0,0,0,.891.348h.064a1.3,1.3,0,0,0,.912-.428,1.289,1.289,0,0,0,.349-.943,1.328,1.328,0,0,0-1.384-1.267Zm22.625,77.4a1.329,1.329,0,0,0-1.63.919v0a1.372,1.372,0,0,0-.051.353,1.346,1.346,0,0,0,.972,1.275,1.3,1.3,0,0,0,.348.048,1.345,1.345,0,0,0,1.283-.967A1.326,1.326,0,0,0,181.087,189.075Zm5.385-89.633a1.322,1.322,0,1,0-.39-2.616h0a1.325,1.325,0,0,0-1.12,1.307,1.275,1.275,0,0,0,.533,1.062,1.314,1.314,0,0,0,.783.26A1.341,1.341,0,0,0,186.472,99.442Zm-37.3,28.746A1.323,1.323,0,0,0,147.5,129a1.215,1.215,0,0,0-.076.438,1.322,1.322,0,1,0,1.751-1.253Zm7.076,44.291a1.309,1.309,0,0,0-.164-.891l-.065-.106a1.342,1.342,0,0,0-1.843-.3l0,0a1.338,1.338,0,0,0-.549,1.078,1.3,1.3,0,0,0,.249.769,1.323,1.323,0,0,0,2.375-.551Zm79.087-5.815a1.325,1.325,0,0,0,1.009.056,1.322,1.322,0,1,0-1.615-1.833,1.27,1.27,0,0,0-.141.587A1.337,1.337,0,0,0,235.337,166.664Zm-85.271-43.739,0,0a1.323,1.323,0,0,0,.582,1.771,1.307,1.307,0,0,0,.6.147,1.325,1.325,0,0,0,.41-.065,1.3,1.3,0,0,0,.763-.655,1.322,1.322,0,1,0-2.355-1.2Zm86.188,5.119a1.4,1.4,0,0,0,.087.466,1.324,1.324,0,1,0,.767-1.707h0A1.323,1.323,0,0,0,236.254,128.045ZM225.1,181.628a1.319,1.319,0,1,0-2.183-1,1.323,1.323,0,0,0,2.183,1Zm13.491-28.561v.01a1.6,1.6,0,0,0-.02.226,1.327,1.327,0,0,0,1.09,1.3,1.359,1.359,0,0,0,.236.021,1.32,1.32,0,1,0-.762-2.4A1.3,1.3,0,0,0,238.59,153.067Zm1.87-11.228c.04,0,.079,0,.119-.005a1.331,1.331,0,0,0,.891-.474,1.285,1.285,0,0,0,.3-.962,1.315,1.315,0,0,0-1.428-1.2h0a1.314,1.314,0,0,0-1.2,1.31v.127A1.326,1.326,0,0,0,240.46,141.839Zm-21.621,43.933a1.343,1.343,0,0,0,.272.028,1.3,1.3,0,0,0,.715-.215,1.321,1.321,0,1,0-2.042-1.1,1.332,1.332,0,0,0,1.056,1.291ZM238.917,160.7a1.32,1.32,0,1,0-1.008.076,1.329,1.329,0,0,0,.413.067A1.312,1.312,0,0,0,238.917,160.7Zm-.8-26.525a1.384,1.384,0,0,0,.032.3,1.324,1.324,0,0,0,1.284,1.029,1.292,1.292,0,0,0,.295-.034,1.309,1.309,0,0,0,.826-.588,1.324,1.324,0,0,0,.169-1,1.307,1.307,0,0,0-.592-.828,1.287,1.287,0,0,0-.991-.158A1.308,1.308,0,0,0,238.122,134.175Zm-8,41.868a1.3,1.3,0,0,0-.441-.911,1.334,1.334,0,0,0-1.867.109l-.008.01a1.36,1.36,0,0,0-.32.867,1.323,1.323,0,0,0,.441.991,1.292,1.292,0,0,0,.872.334l.085,0a1.33,1.33,0,0,0,1.237-1.4Zm-12.24-73.158a1.3,1.3,0,0,0-1-.136,1.316,1.316,0,0,0-.8.611h0a1.355,1.355,0,0,0-.183.668,1.329,1.329,0,0,0,1.324,1.318,1.339,1.339,0,0,0,.339-.044,1.3,1.3,0,0,0,.8-.613A1.321,1.321,0,0,0,217.881,102.885Zm-54.718,7a1.321,1.321,0,0,0,.117-2.636,1.3,1.3,0,0,0-.962.3,1.321,1.321,0,0,0,.719,2.33C163.079,109.878,163.122,109.88,163.163,109.88Zm60.171-3.284a1.3,1.3,0,0,0-.973-.273,1.325,1.325,0,0,0-.875.494,1.314,1.314,0,0,0,.222,1.853,1.3,1.3,0,0,0,.814.286,1.373,1.373,0,0,0,.167-.01,1.288,1.288,0,0,0,.869-.5,1.3,1.3,0,0,0,.275-.982A1.288,1.288,0,0,0,223.334,106.6Zm-11.363-6.638a1.318,1.318,0,0,0-1.73.713v0a1.35,1.35,0,0,0-.1.5,1.327,1.327,0,0,0,.819,1.221,1.3,1.3,0,0,0,.5.1,1.324,1.324,0,0,0,1.219-.813,1.315,1.315,0,0,0-.712-1.721ZM153.779,119.1a1.33,1.33,0,0,0,1.835-.336,1.321,1.321,0,1,0-2.172-1.505,1.284,1.284,0,0,0-.237.748A1.34,1.34,0,0,0,153.779,119.1Zm51.937-21.254a1.32,1.32,0,0,0-1.016.145,1.293,1.293,0,0,0-.594.8,1.184,1.184,0,0,0-.044.339,1.321,1.321,0,1,0,1.653-1.285Zm35.856,48.178a1.291,1.291,0,0,0-.913-.415,1.316,1.316,0,0,0-1.375,1.255v.064a1.32,1.32,0,0,0,1.264,1.319h.06a1.306,1.306,0,0,0,.886-.345,1.33,1.33,0,0,0,.078-1.88Zm-41.046,46.467a1.307,1.307,0,0,0,.763.246,1.338,1.338,0,0,0,.217-.018,1.32,1.32,0,0,0-.431-2.606h0a1.313,1.313,0,0,0-1.1,1.3.96.96,0,0,0,.023.241A1.308,1.308,0,0,0,200.525,192.493ZM175.2,187a1.307,1.307,0,0,0-1.007-.018,1.321,1.321,0,0,0-.732.708,1.289,1.289,0,0,0-.109.521,1.325,1.325,0,0,0,2.541.524A1.335,1.335,0,0,0,175.2,187Zm18.21,3.756a1.306,1.306,0,0,0-1.32,1.319,1.321,1.321,0,0,0,1.32,1.319,1.337,1.337,0,0,0,1.01-.47,1.409,1.409,0,0,0-.033-1.732A1.3,1.3,0,0,0,193.414,190.753Zm15.374-1.222a1.322,1.322,0,0,0-2.583.4,1.242,1.242,0,0,0,.063.389,1.306,1.306,0,0,0,1.655.867A1.325,1.325,0,0,0,208.789,189.53Zm-16.1-90.6a1.32,1.32,0,0,0-.015-2.639h-.02a1.333,1.333,0,0,0-1.306,1.341,1.323,1.323,0,0,0,1.32,1.3ZM146.21,147.1h0a1.314,1.314,0,0,0-1.221,1.319.586.586,0,0,0,.011.128,1.324,1.324,0,0,0,1.315,1.194c.032,0,.065,0,.1,0a1.308,1.308,0,0,0,.908-.463,1.29,1.29,0,0,0,.306-.953,1.315,1.315,0,0,0-1.416-1.221Zm4.979,20.963a1.3,1.3,0,0,0,1.009-.094,1.321,1.321,0,0,0-.207-2.426,1.33,1.33,0,0,0-1.021.088l0,0a1.325,1.325,0,0,0-.7,1.167,1.278,1.278,0,0,0,.15.614A1.3,1.3,0,0,0,151.189,168.06Zm63.558,19.991a1.309,1.309,0,0,0-.049-1.016,1.325,1.325,0,0,0-.744-.681,1.291,1.291,0,0,0-1.008.046,1.32,1.32,0,0,0,.115,2.44,1.326,1.326,0,0,0,.445.077,1.332,1.332,0,0,0,1.241-.866Zm-27.558,2.282a1.323,1.323,0,0,0-1.481,1.125,1.112,1.112,0,0,0-.02.183,1.322,1.322,0,0,0,1.146,1.309,1.341,1.341,0,0,0,.179.012,1.325,1.325,0,0,0,1.311-1.146,1.322,1.322,0,0,0-1.134-1.483Zm-42.251-48.408V142a1.325,1.325,0,0,0,1.244,1.319l.078,0a1.321,1.321,0,1,0-1.321-1.4Zm29.066-38.843a1.284,1.284,0,0,0,.538-.118,1.311,1.311,0,0,0,.7-.74,1.33,1.33,0,0,0-.759-1.693,1.313,1.313,0,0,0-1.017.022h0a1.315,1.315,0,0,0-.777,1.209,1.214,1.214,0,0,0,.12.543A1.329,1.329,0,0,0,174.005,103.082Zm-5.957,2.994a1.34,1.34,0,0,0,.3.035,1.322,1.322,0,0,0,1.122-2.023,1.327,1.327,0,0,0-1.826-.419,1.312,1.312,0,0,0-.617,1.123,1.326,1.326,0,0,0,1.018,1.284ZM147.813,161.6h.04a1.318,1.318,0,1,0,1.686-1.869,1.29,1.29,0,0,0-1-.034,1.319,1.319,0,0,0-.872,1.234,1.559,1.559,0,0,0,.07.432Zm-.317-5.544a1.318,1.318,0,0,0,.842-.583,1.289,1.289,0,0,0,.175-.985,1.324,1.324,0,0,0-1.567-1.017h0a1.322,1.322,0,0,0-1.035,1.3,1.294,1.294,0,0,0,.016.237l.007.044a1.323,1.323,0,0,0,1.568,1.007Zm-1.722-20.675-.006.042a1.767,1.767,0,0,0-.017.217,1.321,1.321,0,0,0,2.617.259,1.322,1.322,0,0,0-2.593-.518Zm4.625,40.1a1.213,1.213,0,0,0-1.693-.279h0a1.215,1.215,0,0,0-.5.981,1.235,1.235,0,0,0,.226.705,1.229,1.229,0,0,0,.988.5,1.175,1.175,0,0,0,.694-.226A1.213,1.213,0,0,0,150.4,175.48ZM211.588,197a1.206,1.206,0,1,0-1.607-1.138,1.263,1.263,0,0,0,.068.4,1.217,1.217,0,0,0,1.139.8A1.179,1.179,0,0,0,211.588,197Zm10.52-99.368a1.209,1.209,0,0,0-.914-.142,1.208,1.208,0,0,0,.281,2.383,1.242,1.242,0,0,0,.287-.034,1.2,1.2,0,0,0,.748-.545A1.211,1.211,0,0,0,222.107,97.634Zm22.377,29.522a1.207,1.207,0,0,0-.834,1.149,1.083,1.083,0,0,0,.056.367,1.192,1.192,0,0,0,.6.706,1.213,1.213,0,0,0,1.632-.525,1.18,1.18,0,0,0,.071-.915,1.2,1.2,0,0,0-1.521-.782ZM153.5,179.97a1.231,1.231,0,0,0-.87.313l-.006.006a1.236,1.236,0,0,0-.386.887,1.176,1.176,0,0,0,.313.813,1.208,1.208,0,0,0,.842.4h.06a1.192,1.192,0,0,0,.809-.314,1.209,1.209,0,0,0,.075-1.712A1.2,1.2,0,0,0,153.5,179.97Zm49.4-89.2a1.2,1.2,0,0,0-.512.78l0,.027a1.3,1.3,0,0,0-.018.2,1.192,1.192,0,0,0,.978,1.183,1.211,1.211,0,0,0,.241.024,1.207,1.207,0,1,0-.686-2.21Zm-9.484,106.879a1.21,1.21,0,1,0,1.205,1.214A1.216,1.216,0,0,0,193.414,197.645ZM157.128,184.87l-.01.012a1.254,1.254,0,0,0-.284.783,1.231,1.231,0,0,0,.414.915,1.21,1.21,0,0,0,1.584-1.829A1.221,1.221,0,0,0,157.128,184.87Zm74.437-77.077a1.208,1.208,0,0,0,1.209-1.214,1.18,1.18,0,0,0-.356-.841,1.224,1.224,0,0,0-1.71,0,1.2,1.2,0,0,0,.857,2.057Zm-4.063-6.408a1.182,1.182,0,0,0-.882-.258,1.207,1.207,0,0,0-.817.456l0,.006a1.233,1.233,0,0,0-.252.741,1.218,1.218,0,0,0,1.212,1.208,1.18,1.18,0,0,0,.144-.009,1.208,1.208,0,0,0,1.055-1.355A1.172,1.172,0,0,0,227.5,101.385Zm17.741,33.138a1.609,1.609,0,0,0,.021.231,1.21,1.21,0,0,0,1.192.982,1.247,1.247,0,0,0,.228-.021,1.221,1.221,0,0,0,.957-1.414,1.191,1.191,0,0,0-.5-.769,1.2,1.2,0,0,0-.912-.191h0A1.208,1.208,0,0,0,245.242,134.524Zm-39.977,64.267a1.208,1.208,0,0,0,.765-.534,1.188,1.188,0,0,0,.16-.905,1.209,1.209,0,0,0-.534-.765,1.207,1.207,0,0,0-1.853,1.022,1.662,1.662,0,0,0,.017.215l.007.043a1.208,1.208,0,0,0,.534.765,1.19,1.19,0,0,0,.9.16ZM185.588,91.37a1.2,1.2,0,0,0-1.387-1h0a1.21,1.21,0,0,0-1.012,1.194,1.236,1.236,0,0,0,.021.2,1.214,1.214,0,0,0,1.194,1.008,1.2,1.2,0,0,0,.2-.017h0A1.211,1.211,0,0,0,185.588,91.37ZM144.94,171.326a1.22,1.22,0,0,0,1.064.624,1.188,1.188,0,0,0,.574-.147,1.2,1.2,0,0,0,.584-.727,1.187,1.187,0,0,0-.1-.913,1.208,1.208,0,0,0-2.119,1.163Zm94.711,1.488a1.2,1.2,0,0,0,.6.161,1.209,1.209,0,0,0,1.048-.6,1.186,1.186,0,0,0,.123-.911,1.208,1.208,0,0,0-2.217-.3,1.189,1.189,0,0,0-.158.6A1.207,1.207,0,0,0,239.65,172.814ZM198.776,199.8a1.206,1.206,0,1,0-.23-2.4,1.2,1.2,0,0,0-1.093,1.2.667.667,0,0,0,.012.143,1.192,1.192,0,0,0,1.188,1.068A1.144,1.144,0,0,0,198.776,199.8Zm23.682-8.391a1.238,1.238,0,0,0,.255.026,1.181,1.181,0,0,0,.652-.195,1.205,1.205,0,0,0,.361-1.662,1.188,1.188,0,0,0-.753-.531,1.207,1.207,0,0,0-.92.16l0,0a1.211,1.211,0,0,0-.546,1.014,1.162,1.162,0,0,0,.19.656A1.2,1.2,0,0,0,222.458,191.413ZM236,178.1a1.2,1.2,0,0,0,.722.242,1.224,1.224,0,0,0,.177-.013,1.209,1.209,0,0,0,.8-.477,1.222,1.222,0,0,0-.247-1.691,1.211,1.211,0,0,0-1.694.245,1.18,1.18,0,0,0-.245.725A1.22,1.22,0,0,0,236,178.1ZM165.148,98.069a1.193,1.193,0,0,0,.165.6,1.222,1.222,0,0,0,1.647.448l.169-.1V99a1.2,1.2,0,0,0,.4-.628,1.175,1.175,0,0,0-.122-.9,1.216,1.216,0,0,0-1.659-.445h0A1.22,1.22,0,0,0,165.148,98.069Zm74.992,19.613a1.209,1.209,0,0,0-1.259-2.064h0a1.216,1.216,0,0,0-.4,1.669,1.182,1.182,0,0,0,.751.541,1.214,1.214,0,0,0,.911-.147Zm7.252,28.423a1.228,1.228,0,0,0-1.224,1.157v.057a1.214,1.214,0,0,0,1.162,1.206h.041a1.211,1.211,0,0,0,.062-2.42ZM216.3,94.556a1.21,1.21,0,0,0-1.607.6l0,.006a1.265,1.265,0,0,0-.1.5,1.2,1.2,0,0,0,1.2,1.2,1.207,1.207,0,0,0,.5-2.306Zm26.349,72.578a1.22,1.22,0,0,0,.471.095,1.209,1.209,0,0,0,1.124-1.658,1.214,1.214,0,0,0-.65-.666,1.211,1.211,0,0,0-1.581.641,1.141,1.141,0,0,0-.1.474A1.223,1.223,0,0,0,242.651,167.133Zm4.554-27.45H247.2a1.207,1.207,0,0,0-1.112,1.2v.087A1.214,1.214,0,0,0,247.3,142.1l.083,0a1.212,1.212,0,0,0-.179-2.418Zm-.759,20.623a1.186,1.186,0,0,0-.1-.912,1.207,1.207,0,0,0-.727-.585,1.183,1.183,0,0,0-.912.1,1.211,1.211,0,0,0-.585.725,1.151,1.151,0,0,0-.047.339,1.2,1.2,0,0,0,1.2,1.206A1.218,1.218,0,0,0,246.446,160.307Zm.272-5.4a1.186,1.186,0,0,0,.7-.226,1.211,1.211,0,0,0-.511-2.178,1.229,1.229,0,0,0-1.389,1v0a1.241,1.241,0,0,0-.012.19,1.221,1.221,0,0,0,1.217,1.21Zm-68.583-60.7a1.2,1.2,0,0,0,.344-.051,1.222,1.222,0,0,0,.823-1.5,1.207,1.207,0,0,0-.586-.726,1.193,1.193,0,0,0-.919-.1,1.194,1.194,0,0,0-.816,1.5,1.181,1.181,0,0,0,.573.719A1.2,1.2,0,0,0,178.136,94.213Zm32.029-2.019a1.208,1.208,0,0,0-1.517.783l0,.014a1.354,1.354,0,0,0-.052.353,1.217,1.217,0,0,0,.847,1.158,1.2,1.2,0,0,0,.362.056,1.21,1.21,0,0,0,.364-2.364Zm-70.739,40.933a1.09,1.09,0,0,0-.024.261,1.2,1.2,0,0,0,.953,1.183,1.26,1.26,0,0,0,.251.026,1.209,1.209,0,1,0-1.18-1.469Zm4.844-10.778a1.184,1.184,0,0,0,.523.122,1.209,1.209,0,1,0-1.086-1.741l0,.007a1.2,1.2,0,0,0,.567,1.612Zm6.534-12.654a1.2,1.2,0,0,0-.28.772,1.223,1.223,0,0,0,.437.935,1.2,1.2,0,0,0,.767.276,1.208,1.208,0,1,0-.923-1.983Zm30.164,86.484a1.2,1.2,0,0,0-1.466.883v0a1.247,1.247,0,0,0-.033.284,1.2,1.2,0,0,0,.926,1.172,1.233,1.233,0,0,0,.284.034,1.208,1.208,0,0,0,1.027-1.846A1.173,1.173,0,0,0,180.969,196.179Zm-11.757-4.393a1.216,1.216,0,0,0-1.625.526v0a1.229,1.229,0,0,0-.132.545,1.2,1.2,0,0,0,.652,1.082,1.211,1.211,0,0,0,1.106-2.155Zm-13.085-87.229a1.209,1.209,0,0,0-.041,2.418h.023a1.209,1.209,0,0,0,.018-2.418Zm79.851,5.628a1.206,1.206,0,0,0-.89.251l0,0a1.215,1.215,0,0,0-.454.945,1.185,1.185,0,0,0,.257.748,1.208,1.208,0,1,0,1.091-1.947Zm-93.2,55.865a1.207,1.207,0,0,0,.477.1,1.249,1.249,0,0,0,.456-.088,1.213,1.213,0,0,0-.905-2.25l0,0a1.209,1.209,0,0,0-.757,1.125,1.027,1.027,0,0,0,.088.444A1.2,1.2,0,0,0,142.781,166.05Zm47.994-73.967h.06a1.184,1.184,0,0,0,.836-.383,1.21,1.21,0,0,0-.945-2.028h0a1.209,1.209,0,0,0-1.149,1.205v.057A1.208,1.208,0,0,0,190.775,92.083Zm-51.028,46.449a1.2,1.2,0,0,0-1.316,1.066.632.632,0,0,0-.012.138,1.216,1.216,0,0,0,1.1,1.2q.053,0,.106,0a1.2,1.2,0,0,0,.78-.286,1.209,1.209,0,0,0-.663-2.127Zm47.4,58.75a1.212,1.212,0,0,0-1.337,1.043.78.78,0,0,0-.012.161,1.214,1.214,0,0,0,1.07,1.2,1.153,1.153,0,0,0,.142.009,1.21,1.21,0,0,0,1.2-1.068,1.2,1.2,0,0,0-.253-.889A1.208,1.208,0,0,0,187.144,197.282Zm-47.7-49.918a1.209,1.209,0,0,0,1.178-1.24,1.229,1.229,0,0,0-1.235-1.179h-.005a1.217,1.217,0,0,0-1.179,1.235,1.191,1.191,0,0,0,.373.849,1.218,1.218,0,0,0,.846.335Zm35.507,46.965a1.219,1.219,0,0,0-1.547.712,1.161,1.161,0,0,0-.078.425,1.208,1.208,0,1,0,1.625-1.137Zm-32.222-68.276a1.206,1.206,0,0,0-1.529.75h0a1.247,1.247,0,0,0-.065.4,1.2,1.2,0,0,0,1.74,1.078,1.186,1.186,0,0,0,.6-.684A1.212,1.212,0,0,0,142.727,126.053Zm54.4-33.9c.028,0,.055,0,.083,0a1.209,1.209,0,1,0-1.209-1.3v.087A1.212,1.212,0,0,0,197.126,92.154Zm-35.953,8.261a1.21,1.21,0,0,0-1.376,1.194,1.161,1.161,0,0,0,.244.726,1.2,1.2,0,0,0,.8.475,1.263,1.263,0,0,0,.166.011,1.171,1.171,0,0,0,.715-.242,1.21,1.21,0,0,0,.244-1.695A1.192,1.192,0,0,0,161.173,100.414Zm11.4-4.12a1.185,1.185,0,0,0,.647-.661,1.209,1.209,0,0,0-1.6-1.562l-.01,0a1.222,1.222,0,0,0-.722,1.112,1.146,1.146,0,0,0,.1.468,1.193,1.193,0,0,0,.661.651,1.205,1.205,0,0,0,.449.087A1.184,1.184,0,0,0,172.57,96.294Zm-33.83,56.433a1.224,1.224,0,0,0,1.207,1.034,1.2,1.2,0,0,0,.166-.011,1.21,1.21,0,0,0-.345-2.4h0a1.217,1.217,0,0,0-1.036,1.194c0,.03,0,.062.005.1Zm25.078,35.857a1.22,1.22,0,0,0-1.273-.057h-.016l.007.005a1.2,1.2,0,0,0-.4.363v0a1.209,1.209,0,1,0,2.185.448,1.218,1.218,0,0,0-.044-.161h.425Zm64.843-1.223a1.211,1.211,0,0,0-1.548-1.863l-.005,0a1.225,1.225,0,0,0-.433.926,1.179,1.179,0,0,0,.281.773,1.223,1.223,0,0,0,1.164.412v.207Zm3.04-6.153a1.2,1.2,0,0,0,.041,1.7,1.188,1.188,0,0,0,.837.341h.023a1.2,1.2,0,0,0,.853-.376,1.221,1.221,0,0,0,.331-.866,1.188,1.188,0,0,0-.377-.847A1.209,1.209,0,0,0,231.7,181.209ZM142.03,159.746l.376,1.447V159.1a1.223,1.223,0,0,0-.011-.572l-.647-2.49v1.713a1.19,1.19,0,0,0-.837-.075,1.207,1.207,0,0,0-.888,1.059h-.082l.114.416a1.219,1.219,0,0,0,.575.742,1.215,1.215,0,0,0,1.4-.15Zm76.229,34.047a1.209,1.209,0,0,0-.053-.931,1.192,1.192,0,0,0-.694-.615,1.211,1.211,0,0,0-.923.055l0,0a1.209,1.209,0,0,0-.677,1.082,1.281,1.281,0,0,0,.124.537,1.206,1.206,0,0,0,1.614.555A1.191,1.191,0,0,0,218.258,193.793Zm23.174-70.969a1.21,1.21,0,1,0,.593-1.607h0a1.216,1.216,0,0,0-.7,1.1A1.18,1.18,0,0,0,241.432,122.824Zm-94.509-7.819-.005.008a1.241,1.241,0,0,0-.186.642,1.205,1.205,0,0,0,.554,1.013,1.183,1.183,0,0,0,.653.2,1.227,1.227,0,0,0,1.024-.555,1.211,1.211,0,0,0-2.04-1.3Zm77.934-22.236-.01.016a1.148,1.148,0,0,0-.155.567,1.1,1.1,0,1,0,2.162-.245,1.072,1.072,0,0,0-.327-.56v-.031l-.16-.1A1.105,1.105,0,0,0,224.858,92.769Zm-88.4,76.139a1.125,1.125,0,0,0,.092.441,1.093,1.093,0,0,0,.6.583,1.08,1.08,0,0,0,.4.077,1.095,1.095,0,0,0,1.008-1.528,1.072,1.072,0,0,0-.6-.586,1.1,1.1,0,0,0-1.507,1.013Zm-3.513-17.534a1.1,1.1,0,0,0-.194-2.19h-.009a1.1,1.1,0,0,0-.993,1.09v.1a1.113,1.113,0,0,0,1.108,1C132.892,151.377,132.921,151.376,132.95,151.373ZM219.19,89.73h0a1.089,1.089,0,0,0-.116.488,1.1,1.1,0,0,0,1.45,1.04,1.085,1.085,0,0,0,.628-.555,1.1,1.1,0,1,0-1.962-.974Zm-78.768,86.037a1.073,1.073,0,0,0,.537-.144,1.106,1.106,0,0,0,.413-1.5,1.1,1.1,0,0,0-1.91,1.085A1.11,1.11,0,0,0,140.421,175.767Zm99.452,8.31a1.086,1.086,0,0,0,.694.249,1.092,1.092,0,0,0,.691-1.942,1.1,1.1,0,0,0-1.543.15l-.006.007a1.114,1.114,0,0,0-.24.689A1.083,1.083,0,0,0,239.873,184.077ZM133.919,136.761a1.081,1.081,0,0,0-.735-.412,1.093,1.093,0,0,0-1.215.937.757.757,0,0,0-.012.152,1.1,1.1,0,0,0,.964,1.09,1.086,1.086,0,0,0,.127.007,1.1,1.1,0,0,0,1.09-.964A1.077,1.077,0,0,0,133.919,136.761Zm109.843,42.2a1.11,1.11,0,0,0,.6.176,1.1,1.1,0,0,0,.918-.5,1.088,1.088,0,0,0-.312-1.511,1.094,1.094,0,0,0-.837-.158,1.071,1.071,0,0,0-.686.476v0a1.108,1.108,0,0,0,.321,1.516ZM145.7,107.111a1.1,1.1,0,0,0-1.529.206h0a1.078,1.078,0,0,0-.223.663,1.089,1.089,0,0,0,.427.868,1.092,1.092,0,0,0,1.536-.2A1.1,1.1,0,0,0,145.7,107.111Zm43.245-21.823c.028,0,.056,0,.084,0a1.112,1.112,0,0,0,1.017-1.173,1.1,1.1,0,0,0-2.191.082v.082A1.1,1.1,0,0,0,188.946,85.288Zm58.406,32.535a1.11,1.11,0,0,0,.506-.122,1.1,1.1,0,1,0-1.019-1.939h0a1.1,1.1,0,0,0-.589.964,1.145,1.145,0,0,0,.126.51A1.1,1.1,0,0,0,247.353,117.823Zm-7.015-12.877a1.1,1.1,0,0,0-1.2,1.1,1.1,1.1,0,0,0,1,1.089c.033,0,.066,0,.1,0a1.073,1.073,0,0,0,.7-.255,1.1,1.1,0,0,0-.6-1.935Zm4.648,5.649a1.1,1.1,0,0,0-1.519-.313h0a1.1,1.1,0,0,0-.487.915,1.063,1.063,0,0,0,.184.6,1.094,1.094,0,1,0,1.825-1.207ZM134.905,124.56l-.006.02a1.244,1.244,0,0,0-.052.339,1.112,1.112,0,0,0,.74,1.041,1.1,1.1,0,0,0,.717-2.076A1.1,1.1,0,0,0,134.905,124.56Zm5.934-10.331a1.081,1.081,0,0,0,.824.136,1.1,1.1,0,1,0-1.18-1.639,1.045,1.045,0,0,0-.164.574A1.077,1.077,0,0,0,140.84,114.229Zm-8.222,30.716a1.094,1.094,0,0,0,.78-1.86,1.068,1.068,0,0,0-.764-.324,1.055,1.055,0,0,0-.779.3,1.094,1.094,0,0,0-.336.773l.2,0-.2,0,.248,0-.248.006A1.094,1.094,0,0,0,132.617,144.945Zm6.221-26.974a1.1,1.1,0,0,0-.837-.039,1.08,1.08,0,0,0-.623.564h0a1.1,1.1,0,1,0,1.46-.524Zm91.342-21.586,0,.007a1.123,1.123,0,0,0-.23.679,1.105,1.105,0,0,0,.419.861,1.1,1.1,0,1,0-.184-1.546Zm4.911,4.155-.006.007a1.091,1.091,0,0,0-.309.762,1.107,1.107,0,0,0,.335.787,1.085,1.085,0,0,0,.764.311h.022a1.064,1.064,0,0,0,.756-.33,1.088,1.088,0,0,0-.011-1.548A1.1,1.1,0,0,0,235.092,100.54Zm11.994,72.908a1.1,1.1,0,1,0-.476-1.477l0,.006a1.116,1.116,0,0,0-.116.5A1.083,1.083,0,0,0,247.086,173.448ZM136.291,163.4a1.1,1.1,0,0,0-1.283-1.57h0a1.1,1.1,0,0,0-.774,1.045.993.993,0,0,0,.054.322,1.1,1.1,0,0,0,2.007.2Zm-1.063-32.048a1.092,1.092,0,0,0-.139-.839,1.06,1.06,0,0,0-.674-.474,1.1,1.1,0,0,0-1.321.812l-.011.069a1.493,1.493,0,0,0-.015.186,1.106,1.106,0,0,0,.852,1.069,1.12,1.12,0,0,0,.238.025A1.09,1.09,0,0,0,135.228,131.352ZM253.39,142.174a1.078,1.078,0,0,0,.726.28l.064,0a1.1,1.1,0,0,0-.119-2.191,1.1,1.1,0,0,0-1.032,1.1v.059A1.092,1.092,0,0,0,253.39,142.174Zm.71,6.709h.042a1.1,1.1,0,1,0-1.088-1.153v.051A1.093,1.093,0,0,0,254.1,148.882Zm-73.219,54.349a1.093,1.093,0,0,0-1.314.836l0,.026a1.3,1.3,0,0,0-.019.205,1.094,1.094,0,0,0,.868,1.068,1.113,1.113,0,0,0,.235.025,1.1,1.1,0,0,0,.91-1.7A1.057,1.057,0,0,0,180.881,203.232Zm72.545-67.169a1.151,1.151,0,0,0,.174-.014,1.106,1.106,0,0,0,.714-.443,1.078,1.078,0,0,0,.189-.817,1.094,1.094,0,0,0-1.253-.907h0a1.1,1.1,0,0,0-.923,1.079,1.138,1.138,0,0,0,.02.181A1.1,1.1,0,0,0,253.426,136.063Zm-31.8,62.668a1.1,1.1,0,0,0-2.078.485,1.12,1.12,0,0,0,.116.5,1.1,1.1,0,0,0,.983.6,1.115,1.115,0,0,0,.491-.114A1.094,1.094,0,0,0,221.623,198.731ZM253,129.23a1.1,1.1,0,1,0-2.049-.544,1.121,1.121,0,0,0,.035.251l.01.041a1.083,1.083,0,0,0,.518.657,1.093,1.093,0,0,0,.534.14,1.116,1.116,0,0,0,.952-.545ZM169.824,87.584a1.112,1.112,0,0,0-.674,1.019,1.069,1.069,0,0,0,.082.418,1.089,1.089,0,0,0,1.426.593,1.1,1.1,0,1,0-.832-2.03Zm-.942,111.706a1.108,1.108,0,0,0-1.446.542l-.01.022a1.218,1.218,0,0,0-.087.435,1.1,1.1,0,0,0,.644,1l.071.028h0a1.07,1.07,0,0,0,.758,0,1.1,1.1,0,0,0,.067-2.03Zm80.731-77.728a1.1,1.1,0,0,0-.693,1.019,1.022,1.022,0,0,0,.08.4,1.1,1.1,0,0,0,2.026.026,1.059,1.059,0,0,0,.007-.826,1.089,1.089,0,0,0-1.416-.626Zm-95.664-24a1.111,1.111,0,0,0-.8.26,1.068,1.068,0,0,0-.386.829,1.126,1.126,0,0,0,.268.719,1.1,1.1,0,0,0,.747.375c.029,0,.058,0,.087,0a1.068,1.068,0,0,0,.706-.262,1.105,1.105,0,0,0,.128-1.544A1.082,1.082,0,0,0,153.949,97.556Zm20.826,104.029a1.07,1.07,0,0,0-.836.055,1.082,1.082,0,0,0-.551.643v.005a1.131,1.131,0,0,0-.047.331,1.092,1.092,0,0,0,.754,1.043,1.068,1.068,0,0,0,.334.054,1.116,1.116,0,0,0,1.048-.753A1.1,1.1,0,0,0,174.775,201.585Zm40.363,1.234a1.1,1.1,0,0,0,.616-.584,1.1,1.1,0,0,0-.545-1.436,1.1,1.1,0,0,0-1.557.992,1.054,1.054,0,0,0,.071.386,1.114,1.114,0,0,0,1.037.711A1.084,1.084,0,0,0,215.137,202.819Zm12.163-6.551a1.1,1.1,0,0,0-.15-.824,1.073,1.073,0,0,0-.678-.476,1.1,1.1,0,0,0-.831.147h0a1.093,1.093,0,0,0,.353,1.99,1.124,1.124,0,0,0,.242.027,1.092,1.092,0,0,0,.588-.172A1.078,1.078,0,0,0,227.3,196.268Zm-33.886,8.278a1.1,1.1,0,1,0,1.092,1.092A1.1,1.1,0,0,0,193.414,204.547ZM149.178,101.989a1.094,1.094,0,0,0-.771.345h0a1.095,1.095,0,0,0,.8,1.844,1.107,1.107,0,0,0,.8-.337,1.085,1.085,0,0,0,.3-.787,1.1,1.1,0,0,0-.344-.766A1.072,1.072,0,0,0,149.178,101.989Zm59.713,102.8a1.091,1.091,0,0,0,.668-.5,1.094,1.094,0,0,0-1.214-1.618,1.093,1.093,0,0,0-.824,1.057,1.157,1.157,0,0,0,.035.278,1.1,1.1,0,0,0,1.335.787Zm-6.413,1.29a1.1,1.1,0,0,0-.322-2.169h-.006a1.1,1.1,0,0,0-.938,1.081.91.91,0,0,0,.008.113l0,.05a1.1,1.1,0,0,0,.433.721,1.083,1.083,0,0,0,.65.216A1.1,1.1,0,0,0,202.477,206.077Zm33.78-19.18h-.008a1.1,1.1,0,0,0-1.1,1.1,1.076,1.076,0,0,0,.316.768,1.107,1.107,0,0,0,.784.325,1.095,1.095,0,0,0,.772-1.867A1.067,1.067,0,0,0,236.257,186.9ZM187.1,204.215a1.1,1.1,0,0,0-1.2.972l0,.119a1.093,1.093,0,0,0,.98,1.091c.036,0,.072.005.107.005a1.1,1.1,0,0,0,1.1-.977,1.075,1.075,0,0,0-.235-.808A1.109,1.109,0,0,0,187.1,204.215ZM181.945,85.894a1.083,1.083,0,0,0,.625.2,1.131,1.131,0,0,0,.192-.017l.272-.056v-.036a1.078,1.078,0,0,0,.442-.372,1.062,1.062,0,0,0,.17-.81,1.1,1.1,0,0,0-.46-.713,1.065,1.065,0,0,0-.81-.17,1.092,1.092,0,0,0-.9,1.078,1.047,1.047,0,0,0,.021.186A1.089,1.089,0,0,0,181.945,85.894Zm50.592,106.5a1.094,1.094,0,0,0-.968-1.209,1.1,1.1,0,0,0-.81.236l0,0a1.109,1.109,0,0,0-.4.854,1.125,1.125,0,0,0,.246.688,1.107,1.107,0,0,0,.855.4,1.087,1.087,0,0,0,1.085-.974ZM176.311,87.564a1.16,1.16,0,0,0,.31-.043,1.1,1.1,0,0,0,.743-1.353,1.071,1.071,0,0,0-.517-.658,1.1,1.1,0,0,0-1.631.957,1,1,0,0,0,.046.314A1.091,1.091,0,0,0,176.311,87.564Zm19.075-2.408a1.1,1.1,0,0,0,1.094-1.062,1.116,1.116,0,0,0-1.07-1.131,1.1,1.1,0,0,0-1.123,1.07v.023a1.1,1.1,0,0,0,1.055,1.1Zm-32.041,6.207a1.03,1.03,0,0,0,.13.522,1.1,1.1,0,0,0,.968.575,1.061,1.061,0,0,0,.518-.134,1.1,1.1,0,0,0,.443-1.481,1.071,1.071,0,0,0-.643-.531,1.091,1.091,0,0,0-.846.086h0A1.112,1.112,0,0,0,163.344,91.363Zm-18.583,88.092a1.109,1.109,0,0,0-1.526-.253,1.094,1.094,0,0,0,.636,1.987,1.12,1.12,0,0,0,.642-.2A1.1,1.1,0,0,0,144.761,179.454ZM163.27,196.39a1.093,1.093,0,0,0-1.494.392,1.068,1.068,0,0,0-.152.559,1.108,1.108,0,0,0,.546.942,1.1,1.1,0,0,0,.829.111,1.081,1.081,0,0,0,.668-.507A1.1,1.1,0,0,0,163.27,196.39ZM208.364,84.75a1.114,1.114,0,0,0-1.328.8l-.011.066a1.585,1.585,0,0,0-.016.2,1.083,1.083,0,0,0,.576.965v.042l.254.06a1.1,1.1,0,0,0,.251.029,1.1,1.1,0,0,0,.273-2.163Zm42.229,82.873v1.015l.636-1.641a1.092,1.092,0,0,0,.022-.736V165.02l-.288.784a1.064,1.064,0,0,0-.36-.223,1.09,1.09,0,0,0-1.416.626l0,.005a1.091,1.091,0,0,0,1.408,1.411Zm4-13.265.059-.385h-.073a1.093,1.093,0,0,0-2.153.036.962.962,0,0,0-.013.179,1.095,1.095,0,0,0,1.094,1.093A1.112,1.112,0,0,0,254.591,154.358Zm-119.921,2.886a1.067,1.067,0,0,0,.155-.814,1.092,1.092,0,0,0-1.279-.861h0a1.091,1.091,0,0,0-.891,1.079,1.174,1.174,0,0,0,.023.209,1.08,1.08,0,0,0,.466.7,1.1,1.1,0,0,0,1.526-.31Zm23.389-61.9a1.089,1.089,0,0,0,1.525.281,1.094,1.094,0,0,0,.279-1.517,1.076,1.076,0,0,0-.7-.459,1.1,1.1,0,0,0-1.3,1.073A1.04,1.04,0,0,0,158.058,95.346Zm56.571-8.676a1.1,1.1,0,0,0-1.405.649v0a1.068,1.068,0,0,0-.068.371,1.1,1.1,0,0,0,1.57.993,1.1,1.1,0,0,0,.529-1.437A1.094,1.094,0,0,0,214.629,86.67Zm-12.994-.981a1.138,1.138,0,0,0,.148.01,1.1,1.1,0,0,0,1.091-.949,1.1,1.1,0,0,0-2.169-.309.814.814,0,0,0-.012.159A1.094,1.094,0,0,0,201.636,85.689ZM158,192.92a1.091,1.091,0,0,0-1.743.873,1.122,1.122,0,0,0,.446.893,1.109,1.109,0,0,0,1.528-.235A1.094,1.094,0,0,0,158,192.92Zm-5.659-4.3a1.08,1.08,0,0,0-.763.359,1.055,1.055,0,0,0-.29.734,1.1,1.1,0,0,0,1.1,1.1h.056a1.069,1.069,0,0,0,.75-.356,1.082,1.082,0,0,0,.288-.791,1.1,1.1,0,0,0-1.137-1.045Zm100.131-29.191a1.084,1.084,0,0,0-1.341.779h0a1.106,1.106,0,0,0-.043.276,1.091,1.091,0,0,0,.817,1.056,1.065,1.065,0,0,0,.289.04,1.076,1.076,0,0,0,.537-.145,1.1,1.1,0,0,0,.513-.667,1.084,1.084,0,0,0-.772-1.339ZM147.142,184.309h0a1.109,1.109,0,0,0-.368.821,1.085,1.085,0,0,0,.278.722,1.1,1.1,0,0,0,.762.368h.059a1.1,1.1,0,0,0,1.091-1.024,1.093,1.093,0,0,0-1.822-.889Zm88.581,13.253a.988.988,0,0,0-.661-.375.961.961,0,0,0-.722.206.982.982,0,0,0-.375.768,1.024,1.024,0,0,0,.21.612.983.983,0,0,0,1.548-1.211Zm4.123-4.578h-.016a.983.983,0,0,0-.977.98.993.993,0,0,0,.267.679.966.966,0,0,0,.708.3,1.021,1.021,0,0,0,.688-.268.984.984,0,0,0-.669-1.695ZM137.621,104.957h0a.981.981,0,0,0-.183.573.962.962,0,0,0,.412.795.974.974,0,0,0,.572.185.984.984,0,1,0-.8-1.553Zm113.344,73.426-.008.014a1.038,1.038,0,0,0-.129.489,1,1,0,0,0,.492.855.991.991,0,0,0,.488.128.987.987,0,0,0,.5-1.838A.994.994,0,0,0,250.965,178.383ZM151.741,92.6a1,1,0,0,0,.61-.209.985.985,0,0,0-1.22-1.548l0,0a.98.98,0,0,0-.367.769.956.956,0,0,0,.207.607A.974.974,0,0,0,151.741,92.6Zm-19.433,24.974a.982.982,0,0,0,.067-1.811.98.98,0,0,0-.76-.03.965.965,0,0,0-.547.509,1.008,1.008,0,0,0-.086.412,1,1,0,0,0,.564.891.979.979,0,0,0,.762.029ZM199.037,77.56a1,1,0,0,0,.882.985l0-.025v.026c.03,0,.059,0,.089,0a.985.985,0,1,0-.623-1.741.973.973,0,0,0-.348.666Zm-68.043,95.7a.96.96,0,0,0,.539.514.989.989,0,0,0,.354.066.983.983,0,1,0-.4-1.881l-.005,0a.985.985,0,0,0-.57.9A.953.953,0,0,0,130.994,173.263Zm3.355,4.468,0,0a.974.974,0,0,0-.488.853,1.013,1.013,0,0,0,.12.482l.1.173h.028a.96.96,0,0,0,.475.294.973.973,0,0,0,.751-.1.982.982,0,0,0-.985-1.7Zm33.168-95.358a.982.982,0,0,0,1.207.575l.072-.023a.985.985,0,1,0-.726-1.831l-.21.082v.039a.969.969,0,0,0-.343,1.158Zm77.526,107.6a.993.993,0,0,0,.238-.713.982.982,0,0,0-1.961.07.981.981,0,0,0,.981.98l.064,0A.978.978,0,0,0,245.042,189.972ZM173.572,80.2a1,1,0,0,0,.949.706.979.979,0,0,0,.941-1.257.988.988,0,0,0-1.217-.673l-.01,0a.992.992,0,0,0-.7.947A1.031,1.031,0,0,0,173.572,80.2Zm-27.3,14.823-.1.1a1,1,0,0,0-.3.712,1,1,0,0,0,.952.982h.033a1,1,0,0,0,.984-.953.984.984,0,0,0-1.545-.838Zm39.9-17.4a.987.987,0,0,0,.988.894c.03,0,.061,0,.092,0a.987.987,0,0,0,.528-1.736.968.968,0,0,0-.716-.226h0a.979.979,0,0,0-.891.977Zm62.7,105.861a.988.988,0,0,0-1.377.228v0a.994.994,0,0,0-.183.573.96.96,0,0,0,.413.794.973.973,0,0,0,.573.186.991.991,0,0,0,.159-.013.986.986,0,0,0,.416-1.77Zm-92.1-94.634a.993.993,0,0,0,.212.023.958.958,0,0,0,.524-.155.978.978,0,0,0,.436-.622.964.964,0,0,0-.131-.733.986.986,0,0,0-1.364-.3l-.007,0a.993.993,0,0,0-.447.825.985.985,0,0,0,.776.962ZM142.342,99.5a.966.966,0,0,0-.666.333.974.974,0,0,0,.094,1.384.974.974,0,0,0,.647.243l.067,0a.982.982,0,0,0-.141-1.958ZM193.585,78.23a.982.982,0,0,0,.008-1.965.972.972,0,0,0-.987.978A1,1,0,0,0,193.585,78.23Zm-31.891,6.9a.985.985,0,1,0,1.177-1.387.989.989,0,0,0-1.288.941A.954.954,0,0,0,161.694,85.127ZM179.816,78.6a.976.976,0,0,0,.955.8.96.96,0,0,0,.191-.019.982.982,0,1,0-1.167-.965A.963.963,0,0,0,179.816,78.6Zm19.766,134.534a.978.978,0,0,0,.892-1.056.955.955,0,0,0-.336-.668,1,1,0,0,0-.725-.231.967.967,0,0,0-.895.978v.087a.981.981,0,0,0,.348.665.969.969,0,0,0,.627.23C199.522,213.14,199.551,213.139,199.581,213.136Zm57.954-46.851a.979.979,0,0,0-1.249.6l0,.009a1.036,1.036,0,0,0-.056.322.992.992,0,0,0,.656.927.982.982,0,1,0,.652-1.853Zm3.721-11.42a.955.955,0,0,0-.172-.717.994.994,0,0,0-.66-.4.982.982,0,0,0-.735.191.962.962,0,0,0-.373.628.727.727,0,0,0-.013.156.972.972,0,0,0,.838.967,1.017,1.017,0,0,0,.155.012.97.97,0,0,0,.959-.838Zm-3.065-25.724a.682.682,0,0,0,.025.219.969.969,0,0,0,.432.609.983.983,0,0,0,.524.151,1,1,0,0,0,.227-.026.986.986,0,0,0,.731-1.19,1,1,0,0,0-1.181-.726h0A.987.987,0,0,0,258.192,129.141Zm-71.108,82.008a.975.975,0,0,0-1.078.883v.095a.977.977,0,0,0,.885.977c.032,0,.062,0,.093,0a.982.982,0,0,0,.1-1.959Zm-47.964-27.722a.994.994,0,0,0-1.373-.231l0,0a.992.992,0,0,0-.4.8.975.975,0,0,0,.972.983,1,1,0,0,0,.575-.185A.984.984,0,0,0,139.121,183.427Zm119.692-21.434a.965.965,0,0,0,.745-.111.983.983,0,0,0-1.01-1.687.982.982,0,0,0-.448.6.839.839,0,0,0-.038.247A.979.979,0,0,0,258.813,161.993Zm1.369-13.021a.973.973,0,0,0,.688.325h.045a.979.979,0,0,0,.98-.924.973.973,0,0,0-.93-1.041,1,1,0,0,0-1.033.933l-.015.35h.064A.963.963,0,0,0,260.182,148.972Zm.316-12.531a.963.963,0,0,0,.648-.383.987.987,0,0,0-.923-1.567h-.005a.98.98,0,0,0-.84.975.659.659,0,0,0,.014.15.983.983,0,0,0,1.106.825Zm-2.184-13.8a.984.984,0,0,0-1.916.315.917.917,0,0,0,.057.315.981.981,0,0,0,.927.669.948.948,0,0,0,.318-.055.972.972,0,0,0,.57-.5A.957.957,0,0,0,258.313,122.639Zm3.294,18.513a.974.974,0,0,0-.706-.259.988.988,0,0,0-.948.987l.008.163.014.014a.959.959,0,0,0,.293.54.982.982,0,0,0,.668.263h.044a.99.99,0,0,0,.947-1.026A.978.978,0,0,0,261.607,141.152Zm-6.817,33.01a.983.983,0,0,0,.418-1.874.975.975,0,0,0-1.306.477v0a.978.978,0,0,0-.094.412,1,1,0,0,0,.57.891A.965.965,0,0,0,254.791,174.162Zm-42.378,36.583a.988.988,0,0,0,.674-1.217.963.963,0,0,0-.471-.591.992.992,0,0,0-.746-.084h0a.985.985,0,0,0-.709.942,1.072,1.072,0,0,0,.037.277.986.986,0,0,0,.949.709A1,1,0,0,0,212.413,210.745ZM244,99.995,244,100a1.01,1.01,0,0,0-.337.741.988.988,0,0,0,.245.648.985.985,0,0,0,1.721-.58.956.956,0,0,0-.234-.7A.987.987,0,0,0,244,99.995ZM142.365,188.082a.981.981,0,0,0-1.048.978.978.978,0,0,0,.233.643.964.964,0,0,0,.663.339c.027,0,.054,0,.08,0a.991.991,0,0,0,.646-.24.984.984,0,0,0-.575-1.724Zm109.715-75.86a.955.955,0,0,0,.48-.129.97.97,0,0,0,.464-.6.985.985,0,0,0-1.436-1.114h0a1,1,0,0,0-.363,1.345A1,1,0,0,0,252.08,112.222ZM248.61,106.8a.98.98,0,0,0,.8-1.556.982.982,0,0,0-1.369-.229h0a1,1,0,0,0-.412.8,1.012,1.012,0,0,0,.176.575A.99.99,0,0,0,248.61,106.8Zm-73.984,101.96a.985.985,0,0,0-1.215.669h0a.991.991,0,0,0-.038.28,1,1,0,0,0,.71.942.965.965,0,0,0,.266.037.984.984,0,0,0,.278-1.929Zm50.413-3.38a.992.992,0,0,0-.635-1.236.987.987,0,0,0-.746.06.983.983,0,0,0,.444,1.86.933.933,0,0,0,.442-.111A.969.969,0,0,0,225.038,205.376Zm-44.24,4.877a1,1,0,0,0-1.174.963.98.98,0,0,0,.806.965,1.015,1.015,0,0,0,.179.016.979.979,0,0,0,.966-.794.972.972,0,0,0-.776-1.151Zm73.316-92.877a.989.989,0,0,0,.55.515.978.978,0,0,0,.344.063,1,1,0,0,0,.92-.629.977.977,0,0,0-.02-.755.977.977,0,0,0-1.306-.492.978.978,0,0,0-.574.892A.965.965,0,0,0,254.114,117.376ZM146.032,193.042a.953.953,0,0,0-.273.678.974.974,0,0,0,.979.983.982.982,0,1,0-.706-1.661Zm6.175,4.127a.985.985,0,0,0-1.374.168.94.94,0,0,0-.211.6.97.97,0,0,0,.976.987.971.971,0,0,0,.771-.375A.985.985,0,0,0,152.208,197.17Zm16.425,9.511a1,1,0,0,0-1.276.545l0,0a.981.981,0,0,0,.552,1.281.964.964,0,0,0,.353.067.983.983,0,0,0,.372-1.9Zm-11.258-5.816a.977.977,0,0,0-1.355.29.938.938,0,0,0-.16.53.985.985,0,0,0,.98.985.989.989,0,0,0,.83-.452A.971.971,0,0,0,157.374,200.865Zm5.489,3.172a.986.986,0,0,0-1.323.426l0,0a.976.976,0,0,0,.422,1.315.959.959,0,0,0,.455.115.985.985,0,0,0,.449-1.86ZM229.31,87.544a.938.938,0,0,0-.16.531.987.987,0,0,0,.983.987,1,1,0,0,0,.213-.023.962.962,0,0,0,.61-.427.975.975,0,0,0,.136-.744.963.963,0,0,0-.427-.613.977.977,0,0,0-1.355.29ZM124.917,141.483v.048a1,1,0,0,0,.94.986h.044a.987.987,0,0,0,.727-1.648.992.992,0,0,0-1.385-.071A.987.987,0,0,0,124.917,141.483Zm-.008,6.534a.981.981,0,0,0,.979.932h.046a.974.974,0,0,0,.939-1.027.991.991,0,0,0-1.021-.93.98.98,0,0,0-.944.979Zm2.835-18.234a.978.978,0,0,0,.948-.754.985.985,0,0,0-1.914-.464l-.006.029a1.384,1.384,0,0,0-.02.207,1,1,0,0,0,.992.982Zm-2.206,5.194,0,.149a.972.972,0,0,0,.837.966,1,1,0,0,0,.154.012.977.977,0,0,0,.962-.845.983.983,0,0,0-.192-.734.964.964,0,0,0-.641-.375A1,1,0,0,0,125.539,134.976Zm2.163,26.71a.965.965,0,0,0,.222-.026.98.98,0,0,0,.729-1.18.968.968,0,0,0-.434-.61.986.986,0,0,0-.749-.124h0a.981.981,0,0,0-.754.953,1.282,1.282,0,0,0,.026.236A1,1,0,0,0,127.7,161.686Zm-2.1-6.885a.983.983,0,0,0,.883.559.94.94,0,0,0,.135-.01.985.985,0,0,0-.268-1.951h0a.993.993,0,0,0-.841.974l.008.427Zm79.8-76.307a.992.992,0,0,0,.789.963l.049.007a.933.933,0,0,0,.143.011,1,1,0,0,0,.972-.8.983.983,0,0,0-1.525-.995.964.964,0,0,0-.405.625A.919.919,0,0,0,205.4,78.494ZM134.429,111.78a.959.959,0,0,0,.5.14.971.971,0,0,0,.238-.03.984.984,0,0,0,.71-1.209.974.974,0,0,0-.457-.6.992.992,0,0,0-1.344.352l-.008.014a1.015,1.015,0,0,0-.121.489A.966.966,0,0,0,134.429,111.78ZM129.5,167.866a1.014,1.014,0,0,0,.32-.052,1,1,0,0,0,.607-1.25.964.964,0,0,0-.488-.561.978.978,0,0,0-.756-.053l-.005,0a.99.99,0,0,0-.666.927,1.016,1.016,0,0,0,.057.323A.977.977,0,0,0,129.5,167.866Zm110.005-72.48a.975.975,0,0,0-.274.686.992.992,0,0,0,.3.707.966.966,0,0,0,.675.272.984.984,0,1,0-.7-1.665ZM129.125,121.741a.964.964,0,0,0-.5.565.972.972,0,0,0,.606,1.253.98.98,0,0,0,.31.05,1,1,0,0,0,.939-.658.965.965,0,0,0-.043-.756,1,1,0,0,0-.568-.5A.985.985,0,0,0,129.125,121.741Zm76.924,90.506a.986.986,0,0,0,.792-1.146.966.966,0,0,0-.411-.632.988.988,0,0,0-1.541.813.88.88,0,0,0,.022.181.983.983,0,0,0,.96.8A.944.944,0,0,0,206.05,212.247ZM211.7,79.755a1.068,1.068,0,0,0-.034.265.979.979,0,0,0,1.45.862.962.962,0,0,0,.469-.58.978.978,0,0,0-.078-.759.953.953,0,0,0-.578-.463.966.966,0,0,0-.743.071.98.98,0,0,0-.481.587Zm22.893,11.467-.009.012a1.015,1.015,0,0,0-.2.6.954.954,0,0,0,.018.183h-.382l.732.586a.975.975,0,0,0,.612.216.993.993,0,0,0,.115-.007.982.982,0,0,0,.4-.136h.022l-.01-.008a.985.985,0,1,0-1.3-1.445Zm-16.78-9.452v0a.973.973,0,0,0-.073.367.983.983,0,0,0,.617.913.964.964,0,0,0,.748,0,.986.986,0,0,0,.537-.548.985.985,0,0,0-1.828-.732Zm12.842,120.32a.979.979,0,0,0-.75-1.173.991.991,0,0,0-1.2.962,1,1,0,0,0,.156.525.978.978,0,0,0,.622.437.988.988,0,0,0,.211.023.957.957,0,0,0,.522-.155A.979.979,0,0,0,230.651,202.091ZM223.693,84.379l0,.009a.969.969,0,0,0-.1.448.993.993,0,0,0,.528.877.974.974,0,0,0,.446.108.989.989,0,0,0,.307-.049.982.982,0,0,0-.6-1.871A.994.994,0,0,0,223.693,84.379ZM193.414,211.448a.982.982,0,1,0,.978.978A.984.984,0,0,0,193.414,211.448Zm25.178-2.809a.983.983,0,1,0-.72-1.83h0a.985.985,0,0,0-.625.916.886.886,0,0,0,.07.352.981.981,0,0,0,.914.631A.993.993,0,0,0,218.593,208.639Zm49.134-67.04a.879.879,0,0,0-.847.873v.034a.872.872,0,0,0,.873.831h.024a.869.869,0,1,0-.05-1.738Zm-5.5-25.066-.011,0a.878.878,0,0,0-.542.806.725.725,0,0,0,.062.321.852.852,0,0,0,.462.481.854.854,0,0,0,.668.006.875.875,0,0,0,.473-.461.841.841,0,0,0,.011-.656.849.849,0,0,0-.449-.482A.881.881,0,0,0,262.228,116.533Zm5.4,33.25h.048a.879.879,0,0,0,.594-.231.842.842,0,0,0,.2-.281h.063l.017-.311a.874.874,0,0,0-1.745-.1v.051A.874.874,0,0,0,267.629,149.783ZM267.1,129.5a.874.874,0,0,0-1.026-.674h-.007a.866.866,0,0,0-.689.849.843.843,0,0,0,.014.177.87.87,0,0,0,.86.7.911.911,0,0,0,.175-.017A.876.876,0,0,0,267.1,129.5ZM204.558,72.171a.916.916,0,0,0,.12.008.871.871,0,1,0-.855-1.005l0,.135A.875.875,0,0,0,204.558,72.171Zm62.183,64.558a.854.854,0,0,0,.523.184.784.784,0,0,0,.109-.008.858.858,0,0,0,.763-.964.871.871,0,0,0-.328-.586.848.848,0,0,0-.642-.175.868.868,0,0,0-.758.862l0,.1A.871.871,0,0,0,266.741,136.729ZM264.253,124.2a.877.877,0,0,0,.416.105.917.917,0,0,0,.251-.036.871.871,0,0,0-.5-1.669l-.007,0a.873.873,0,0,0-.621.834.817.817,0,0,0,.037.245A.854.854,0,0,0,264.253,124.2Zm-4.622-11.9a.852.852,0,0,0,.664-.051.87.87,0,1,0-.789-1.551h0a.868.868,0,0,0-.469.771.8.8,0,0,0,.09.387A.859.859,0,0,0,259.631,112.3Zm-3.056-5.6a.889.889,0,0,0,.185.02.836.836,0,0,0,.455-.133.867.867,0,0,0,.29-1.188.856.856,0,0,0-.538-.4.87.87,0,0,0-1.072.851.944.944,0,0,0,.126.462A.877.877,0,0,0,256.576,106.7ZM233.8,82.36a.823.823,0,0,0-.146.486.866.866,0,0,0,.865.869.9.9,0,0,0,.171-.017A.869.869,0,0,0,235,82.117a.869.869,0,0,0-.656-.126A.856.856,0,0,0,233.8,82.36Zm19.216,19.011a.867.867,0,0,0,.127.009.843.843,0,0,0,.512-.171.864.864,0,0,0,.346-.575.851.851,0,0,0-.162-.641.869.869,0,1,0-.823,1.377ZM191.832,71.346h.023a.869.869,0,1,0-.042-1.738h0a.87.87,0,0,0-.58,1.5A.858.858,0,0,0,191.832,71.346Zm52.137,18.929a.841.841,0,0,0-.246.6.863.863,0,0,0,.276.631.88.88,0,0,0,.6.234.864.864,0,0,0,.625-.263.869.869,0,1,0-1.254-1.2ZM239.055,86.1a.849.849,0,0,0-.2.54.917.917,0,0,0,.334.693.884.884,0,0,0,.535.179.871.871,0,0,0,.685-.326.869.869,0,1,0-1.358-1.085ZM216.367,74.085a.955.955,0,0,0-.037.26.87.87,0,0,0,.868.87.877.877,0,0,0,.828-.593.857.857,0,0,0-.046-.671.846.846,0,0,0-.5-.429.874.874,0,0,0-1.108.546Zm36.264,115.76a.884.884,0,0,0-1.22.155l0,.006a.9.9,0,0,0-.18.53.871.871,0,0,0,.98.864.848.848,0,0,0,.573-.326.871.871,0,0,0-.148-1.229ZM210.8,73.4a.863.863,0,0,0,.661-.1.869.869,0,0,0,.292-1.2.834.834,0,0,0-.534-.389.873.873,0,0,0-1.057.637l0,.017a.955.955,0,0,0-.022.185A.874.874,0,0,0,210.8,73.4Zm-12.58-1.916a.665.665,0,0,0,.068,0,.87.87,0,1,0-.869-.977.409.409,0,0,0-.013.11A.867.867,0,0,0,198.219,71.482Zm24.189,4.859a.946.946,0,0,0-.061.326.871.871,0,0,0,1.19.81.838.838,0,0,0,.471-.458.869.869,0,1,0-1.592-.7Zm5.832,2.753a.84.84,0,0,0-.1.415.867.867,0,0,0,.867.876.859.859,0,0,0,.244-.035.88.88,0,0,0,.593-1.088.842.842,0,0,0-.418-.511.863.863,0,0,0-1.182.343Zm19.646,115.482a.857.857,0,0,0-.607.277.877.877,0,0,0-.234.6.875.875,0,0,0,.871.868h.026a.88.88,0,0,0,.615-.279.858.858,0,0,0,.229-.626.868.868,0,0,0-.28-.6A.9.9,0,0,0,247.885,194.576Zm17.99-32.04a.87.87,0,1,0-.845-1.072l0,.014a.949.949,0,0,0-.023.188.869.869,0,0,0,.872.87Zm1.3-8.072a.869.869,0,0,0-.98.744l0,.026a.56.56,0,0,0-.009.092.891.891,0,0,0,.886.872.842.842,0,0,0,.5-.167.872.872,0,0,0-.4-1.567ZM248.5,94.852l-.005,0a.882.882,0,0,0-.292.647.9.9,0,0,0,.221.584.874.874,0,0,0,.608.289h.044a.839.839,0,0,0,.571-.218.87.87,0,1,0-1.147-1.307Zm15.913,72.191a.873.873,0,0,0-1.091.558l-.005.016a.956.956,0,0,0-.037.26.865.865,0,0,0,.6.826.889.889,0,0,0,.263.04.871.871,0,0,0,.266-1.7Zm-8.1,17.519a.873.873,0,0,0-1.206.247l0,.007a.867.867,0,0,0-.133.469.858.858,0,0,0,.395.732.877.877,0,0,0,.476.14.854.854,0,0,0,.721-.387.866.866,0,0,0,.13-.667A.847.847,0,0,0,256.312,184.562Zm2.8-3.96a.888.888,0,0,0,.775-.46.872.872,0,1,0-1.542-.812v0a.9.9,0,0,0-.1.4.877.877,0,0,0,.463.772A.888.888,0,0,0,259.11,180.6Zm3.577-6.34a.868.868,0,0,0-.46-1.151.874.874,0,0,0-1.133.458.858.858,0,0,0-.076.342.884.884,0,0,0,.537.808.874.874,0,0,0,1.133-.456Zm-77.829-102.7a.859.859,0,0,0,.539.191.869.869,0,1,0-.085-1.732.857.857,0,0,0-.775.863l0,.093A.866.866,0,0,0,184.858,71.564Zm-59.647,43.548a.878.878,0,0,0,.355.075.864.864,0,0,0,.312-.058.87.87,0,0,0,.046-1.61.876.876,0,0,0-1.147.433v0a.873.873,0,0,0-.077.361A.889.889,0,0,0,125.211,115.112Zm49.3,100.781a.859.859,0,0,0-1.063.606.718.718,0,0,0-.03.231.874.874,0,0,0,.647.847.878.878,0,0,0,1.064-.627.877.877,0,0,0-.1-.662A.852.852,0,0,0,174.514,215.893Zm-55.47-69.4a.86.86,0,0,0,.622-.262.843.843,0,0,0,.243-.611.861.861,0,0,0-.262-.623.852.852,0,0,0-.616-.242.869.869,0,0,0,.013,1.738Zm.27-8.175a.855.855,0,0,0-.931.8v.067a.87.87,0,0,0,.807.872h.05a.871.871,0,0,0,.658-1.454A.844.844,0,0,0,119.313,138.32Zm1.793-11a.906.906,0,0,0,.217.027.871.871,0,0,0,.746-1.314.857.857,0,0,0-.535-.4.865.865,0,0,0-1.057.629l-.009.047a.98.98,0,0,0-.018.171A.855.855,0,0,0,121.106,127.317ZM180.73,217.25a.871.871,0,0,0-1,.7.645.645,0,0,0-.015.16.877.877,0,0,0,.722.861.9.9,0,0,0,.143.012.868.868,0,0,0,.859-.713A.877.877,0,0,0,180.73,217.25ZM122.8,119.515a.872.872,0,0,0-.451.5l-.009.031a1.054,1.054,0,0,0-.034.257.868.868,0,0,0,1.238.792.868.868,0,0,0,.409-1.169.88.88,0,0,0-1.153-.407Zm93.028,97.171a.869.869,0,1,0-1.135-.825.841.841,0,0,0,.039.254.879.879,0,0,0,1.1.571Zm-28.773,1.389a.843.843,0,0,0-.636.191.871.871,0,0,0-.308.553.446.446,0,0,0-.014.119.886.886,0,0,0,.8.872l.072,0a.871.871,0,0,0,.088-1.738ZM144.676,89.517a.873.873,0,0,0,.57-.21.87.87,0,0,0-.506-1.523.872.872,0,0,0-.522.133L144.1,88a.869.869,0,0,0-.3.654.881.881,0,0,0,.221.576A.871.871,0,0,0,144.676,89.517Zm48.739,130.57.329-.008v-.063a.854.854,0,0,0,.536-.8.869.869,0,1,0-.864.873ZM140,93.953a.832.832,0,0,0,.614-.263.871.871,0,0,0-.009-1.229.849.849,0,0,0-.6-.249l-.062,0v-.307l-.562.563a.862.862,0,0,0-.251.614.863.863,0,0,0,.874.869ZM203.1,219.467a.87.87,0,0,0,.745-.971.85.85,0,0,0-.328-.581.87.87,0,0,0-.636-.181h-.012a.888.888,0,0,0-.76.869l.011.109a.876.876,0,0,0,.864.76A.8.8,0,0,0,203.1,219.467ZM135.714,98.77a.866.866,0,0,0,.553-1.536.838.838,0,0,0-.627-.2.871.871,0,0,0-.475.194h-.037l-.1.128a.872.872,0,0,0,.685,1.413Zm-4.485,3.671-.1.152a.9.9,0,0,0-.141.478.869.869,0,1,0,.706-.855.851.851,0,0,0-.433.225Zm-3.185,6.878a.88.88,0,0,0,.424.109.873.873,0,1,0-.753-1.3.826.826,0,0,0-.118.425A.9.9,0,0,0,128.044,109.319Zm81.487,109.038a.872.872,0,0,0,.655-1.032.845.845,0,0,0-.371-.551.873.873,0,0,0-.665-.121h0a.876.876,0,0,0-.678.848.963.963,0,0,0,.016.2.888.888,0,0,0,.868.678A.905.905,0,0,0,209.531,218.357Zm-90.379-85.725a.662.662,0,0,0-.015.155.878.878,0,0,0,.731.861.9.9,0,0,0,.14.011.877.877,0,0,0,.863-.728l0-.043a.871.871,0,0,0-1.723-.256Zm26.642,68.535a.867.867,0,0,0-.591.309.856.856,0,0,0-.206.559.874.874,0,0,0,.875.871c.029,0,.057,0,.086,0a.851.851,0,0,0,.576-.3.872.872,0,0,0-.1-1.227A.863.863,0,0,0,145.793,201.166Zm-4.7-4.336a.857.857,0,0,0-.608.26.838.838,0,0,0-.253.608.886.886,0,0,0,.255.627.871.871,0,0,0,1.231-.012.849.849,0,0,0,.251-.606.875.875,0,0,0-.877-.877Zm-4.943-4.522h0a.874.874,0,0,0-.3.663.839.839,0,0,0,.209.564.879.879,0,0,0,.667.306.858.858,0,0,0,.56-.206.873.873,0,0,0-1.134-1.328ZM132.9,187.03a.866.866,0,0,0-.649.145l0,0a.882.882,0,0,0-.364.713.825.825,0,0,0,.166.5.856.856,0,0,0,.565.357.889.889,0,0,0,.148.012.836.836,0,0,0,.493-.158.876.876,0,0,0,.36-.573.843.843,0,0,0-.15-.639A.86.86,0,0,0,132.9,187.03Zm110.479,12.075a.874.874,0,0,0-.921.867.906.906,0,0,0,.225.589.87.87,0,0,0,1.516-.543.883.883,0,0,0-.82-.912Zm-15.07,12.132a.872.872,0,0,0-1.228-1.044h0a.875.875,0,0,0-.469.779.871.871,0,0,0,1.7.264Zm-71.431-2.6a.871.871,0,0,0-1.185.324.857.857,0,0,0-.117.433.873.873,0,0,0,1.631.429A.872.872,0,0,0,156.877,208.633Zm-5.38-3.408a.857.857,0,0,0-.646-.143.87.87,0,0,0-.568.361l0,0a.88.88,0,0,0-.154.492.867.867,0,0,0,.375.716.854.854,0,0,0,.49.154.873.873,0,0,0,.5-1.585Zm70.466,9.252a.869.869,0,0,0-.661-1.608.868.868,0,0,0-.539.8.8.8,0,0,0,.065.336.87.87,0,0,0,1.135.472ZM120.056,152.613a.841.841,0,0,0,.191-.627.865.865,0,0,0-.953-.788.872.872,0,0,0-.784.864.5.5,0,0,0,.014.125.857.857,0,0,0,.089.281l.562,1.736v-1.3a.841.841,0,0,0,.283.018A.858.858,0,0,0,120.056,152.613Zm48.379,61.382a.868.868,0,0,0-1.115.506l0,0a.87.87,0,0,0-.053.3.864.864,0,0,0,.866.871.872.872,0,0,0,.791-1.24A.846.846,0,0,0,168.436,213.995Zm-48-54.693a.869.869,0,0,0,.331-1.577.875.875,0,0,0-1.362.718.582.582,0,0,0,.021.151.851.851,0,0,0,.358.563.873.873,0,0,0,.5.158A.9.9,0,0,0,120.435,159.3Zm1.715,4.658a.85.85,0,0,0-.653-.078.873.873,0,0,0-.64.845,1.239,1.239,0,0,0,.029.226.872.872,0,0,0,.416.532.852.852,0,0,0,.656.079.875.875,0,0,0,.531-.417.854.854,0,0,0,.079-.653A.874.874,0,0,0,122.15,163.96Zm2.38,6.584a.87.87,0,0,0-1.684.312.847.847,0,0,0,.054.3.873.873,0,0,0,.812.563.84.84,0,0,0,.3-.055.877.877,0,0,0,.5-.462.846.846,0,0,0,.042-.59Zm5.163,12.684a.875.875,0,0,0,.406-.545.844.844,0,0,0-.1-.646.877.877,0,0,0-1.2-.31.85.85,0,0,0-.422.747.908.908,0,0,0,.119.444.875.875,0,0,0,.538.406.858.858,0,0,0,.652-.1Zm-2.646-6.144a.881.881,0,0,0-.53-1.121.847.847,0,0,0-.658.037l0,0a.872.872,0,0,0-.49.782.925.925,0,0,0,.081.379.866.866,0,0,0,.5.442.88.88,0,0,0,.288.049.877.877,0,0,0,.815-.57Zm35.5,34.486a.863.863,0,0,0-.673-.034.844.844,0,0,0-.479.443.77.77,0,0,0-.091.374.868.868,0,0,0,.5.784.848.848,0,0,0,.371.086.869.869,0,0,0,.3-.053.886.886,0,0,0,.5-.453A.868.868,0,0,0,162.543,211.57ZM149.583,85.5a.886.886,0,0,0,.142.012.865.865,0,0,0,.515-.171.878.878,0,0,0,.339-.568.839.839,0,0,0-.154-.638.866.866,0,0,0-1.573.505.833.833,0,0,0,.165.506A.856.856,0,0,0,149.583,85.5Zm28.958-12.93a.861.861,0,0,0,.485.15.905.905,0,0,0,.169-.016.87.87,0,0,0,.558-.37.862.862,0,0,0,.133-.65.878.878,0,0,0-1.026-.69h0a.871.871,0,0,0-.7.857.617.617,0,0,0,.014.158A.863.863,0,0,0,178.541,72.57Zm60.695,131.624a.844.844,0,0,0-.174-.63.871.871,0,0,0-1.216-.169l0,0a.871.871,0,1,0,1.393.8ZM160.658,78.862v.155l.476-.238a.871.871,0,0,0,.4-1.168.858.858,0,0,0-.5-.444.849.849,0,0,0-.658.048.864.864,0,0,0-.493.783,1,1,0,0,0,.094.386A.873.873,0,0,0,160.658,78.862Zm-5.564,3.082a.885.885,0,0,0,.454-.125.873.873,0,0,0-.248-1.588.852.852,0,0,0-.655.1h0a.885.885,0,0,0-.424.743.941.941,0,0,0,.129.456A.871.871,0,0,0,155.094,81.944Zm11.218-5.727a.866.866,0,0,0,.344.072.808.808,0,0,0,.307-.06.869.869,0,0,0,.507-1.133.882.882,0,0,0-1.125-.491h0a.859.859,0,0,0-.552.81.854.854,0,0,0,.523.8Zm67.5,131.084a.85.85,0,0,0-.54-.384.878.878,0,0,0-.662.114.863.863,0,0,0-.407.735.977.977,0,0,0,.133.47.882.882,0,0,0,1.2.271A.866.866,0,0,0,233.811,207.3ZM172.347,74.125A.861.861,0,0,0,173,74.2a.87.87,0,1,0-1.108-.836.884.884,0,0,0,.453.762ZM114.914,162.3a.767.767,0,0,0-.35-.481.732.732,0,0,0-.554-.087.753.753,0,0,0-.6.735.661.661,0,0,0,.024.166.757.757,0,1,0,1.478-.333Zm59.5,60.676-.409-.1V223a.773.773,0,0,0-.162.072.747.747,0,0,0-.348.464h0a.759.759,0,1,0,.919-.556Zm-56.737-48.888h0a.763.763,0,0,0-.473.7.712.712,0,0,0,.053.278.75.75,0,0,0,.708.483.8.8,0,0,0,.278-.05.761.761,0,0,0-.565-1.414Zm-2.078-6.108-.01,0a.77.77,0,0,0-.529.727.916.916,0,0,0,.032.222.76.76,0,0,0,.732.529.849.849,0,0,0,.229-.032.759.759,0,0,0-.454-1.449ZM164.611,69.5a.766.766,0,0,0,.321.071.733.733,0,0,0,.257-.046.741.741,0,0,0,.426-.388.767.767,0,0,0,.023-.587.762.762,0,0,0-.975-.446h0a.756.756,0,0,0-.488.713.788.788,0,0,0,.045.26A.749.749,0,0,0,164.611,69.5Zm-47.085,48.7a.751.751,0,0,0-.031-.586.735.735,0,0,0-.428-.379.752.752,0,0,0-.972.458l0,.009a.8.8,0,0,0-.041.24.755.755,0,0,0,.507.715.741.741,0,0,0,.576-.024A.755.755,0,0,0,117.526,118.2Zm-3.794,38.19h.1l-.051-.374a.759.759,0,0,0-.858-.646h-.005a.754.754,0,0,0-.644.747l0,.1a.759.759,0,0,0,.752.654.812.812,0,0,0,.107-.007A.752.752,0,0,0,113.732,156.392Zm155.449,17.59a.773.773,0,0,0-.978.428l-.008.022a.827.827,0,0,0-.049.257.765.765,0,0,0,1.07.694.725.725,0,0,0,.392-.408A.763.763,0,0,0,269.181,173.982Zm-88.5,50.258a.749.749,0,0,0-.864.6.509.509,0,0,0-.017.144.763.763,0,0,0,.641.748.788.788,0,0,0,.109.008.763.763,0,0,0,.756-.635.749.749,0,0,0-.625-.867Zm92.454-94.683a.766.766,0,0,0-.569.489h-.119l.081.4a.767.767,0,0,0,.75.618.8.8,0,0,0,.132-.011.751.751,0,0,0,.609-.885.757.757,0,0,0-.875-.608Zm-26.89,75.886-.023.021a.789.789,0,0,0-.243.557.82.82,0,0,0,.2.511.781.781,0,0,0,.566.245.758.758,0,1,0-.5-1.334Zm-27.569,15.748a.758.758,0,0,0-.521.719.735.735,0,0,0,.042.242.754.754,0,0,0,.714.515.736.736,0,0,0,.234-.038.751.751,0,0,0,.444-.378.74.74,0,0,0,.045-.572A.762.762,0,0,0,218.678,221.191ZM253.513,91.082h.029a.727.727,0,0,0,.5-.193.754.754,0,0,0,.257-.529.735.735,0,0,0-.192-.536.759.759,0,0,0-1.325.5.792.792,0,0,0,.2.513A.757.757,0,0,0,253.513,91.082Zm19.9,45.61,0,.074a.758.758,0,0,0,.746.68c.025,0,.05,0,.075,0a.733.733,0,0,0,.514-.261.763.763,0,0,0-.659-1.247h0A.76.76,0,0,0,273.415,136.692ZM150.923,213.106a.77.77,0,0,0-1.041.234l-.014.023a.8.8,0,0,0-.106.387.757.757,0,0,0,.362.647.781.781,0,0,0,.4.111.766.766,0,0,0,.185-.023.739.739,0,0,0,.458-.338A.762.762,0,0,0,150.923,213.106Zm-38.668-69.095a.758.758,0,0,0,.767-.739.744.744,0,0,0-.2-.537.766.766,0,0,0-.539-.243.72.72,0,0,0-.54.208.759.759,0,0,0-.231.543A.773.773,0,0,0,112.255,144.011ZM121.3,180.94a.762.762,0,1,0-.724.507.779.779,0,0,0,.337-.078A.735.735,0,0,0,121.3,180.94Zm61.918-116.1a.757.757,0,0,0,.481.171.74.74,0,0,0,.081,0,.748.748,0,0,0,.507-.275.781.781,0,0,0,.167-.576.764.764,0,0,0-.839-.656h0a.75.75,0,0,0-.666.749v.09A.739.739,0,0,0,183.216,64.836ZM156.473,216.273a.758.758,0,0,0-1.014.326.735.735,0,0,0-.087.35.774.774,0,0,0,.416.675.757.757,0,0,0,.584.043.744.744,0,0,0,.435-.376.76.76,0,0,0,.044-.576A.745.745,0,0,0,156.473,216.273Zm-10.832-6.752a.733.733,0,0,0-.554-.151.761.761,0,0,0-.51.3.729.729,0,0,0-.15.452.772.772,0,0,0,.3.608l.533.413v-.266l.047-.006a.735.735,0,0,0,.49-.3A.752.752,0,0,0,145.641,209.521Zm117.577-22.49a.765.765,0,0,0,.194-.025.725.725,0,0,0,.45-.342.755.755,0,1,0-1.293-.779.751.751,0,0,0-.114.391.771.771,0,0,0,.371.647A.759.759,0,0,0,263.217,187.03Zm11.33-44.66h-.011a.759.759,0,1,0,.039,1.518h0a.759.759,0,0,0-.028-1.518ZM131.19,196.117a.744.744,0,0,0-.554.177.761.761,0,0,0-.268.523h-.3l.471.544a.761.761,0,0,0,.578.265.8.8,0,0,0,.493-.174.761.761,0,0,0,.089-1.067A.749.749,0,0,0,131.19,196.117Zm37.074,25.114a.762.762,0,0,0-.957.478h0a.722.722,0,0,0-.032.241.754.754,0,0,0,.752.757.757.757,0,0,0,.713-.513.727.727,0,0,0-.029-.57A.763.763,0,0,0,168.264,221.231ZM257.68,96.03a.793.793,0,0,0,.476-.162.758.758,0,0,0,.129-1.063.769.769,0,0,0-1.056-.143l-.018.014a.763.763,0,0,0-.127,1.062A.751.751,0,0,0,257.68,96.03ZM140.11,205.323a.768.768,0,0,0-.528.261.737.737,0,0,0-.188.493.759.759,0,0,0,.76.76.756.756,0,0,0,.5-1.329A.716.716,0,0,0,140.11,205.323Zm84.548,13.62h0a.754.754,0,0,0-.468.7.867.867,0,0,0,.061.3.77.77,0,0,0,.416.4.756.756,0,0,0,.284.056.723.723,0,0,0,.3-.063.756.756,0,1,0-.588-1.394Zm-89.734-17.837-.017.017a.778.778,0,0,0-.207.529.756.756,0,0,0,.212.527.742.742,0,0,0,.533.231h.009a.75.75,0,0,0,.529-.217.76.76,0,0,0-1.061-1.087Zm125.213-10.038a.733.733,0,0,0-.556-.133.768.768,0,0,0-.5.308.729.729,0,0,0-.146.439.762.762,0,0,0,.317.618.752.752,0,0,0,.436.139.775.775,0,0,0,.623-.314.76.76,0,0,0-.178-1.056ZM248.475,85.2a.741.741,0,0,0,.027,1.066.76.76,0,0,0,.522.208h.028a.73.73,0,0,0,.516-.235.761.761,0,0,0-.028-1.074.728.728,0,0,0-.541-.206A.746.746,0,0,0,248.475,85.2ZM124.939,101.245a.76.76,0,0,0,.826-1.277.766.766,0,0,0-1.173.642A.743.743,0,0,0,124.939,101.245Zm46.13-33.7a.851.851,0,0,0,.207-.026.765.765,0,0,0,.508-.94.754.754,0,0,0-.935-.518h-.005a.758.758,0,0,0-.542.729.617.617,0,0,0,.034.219A.755.755,0,0,0,171.069,67.548Zm35.755,156.8a.738.738,0,0,0-.172-.09v-.116l-.391.075a.773.773,0,0,0-.632.753.542.542,0,0,0,.015.134.736.736,0,0,0,.286.467.771.771,0,0,0,.466.155.81.81,0,0,0,.114-.008.762.762,0,0,0,.626-.876A.752.752,0,0,0,206.824,224.349Zm-82.978-38.727a.75.75,0,0,0-.564.082.736.736,0,0,0-.378.652.729.729,0,0,0,.1.387.758.758,0,0,0,1.3-.776A.749.749,0,0,0,123.846,185.622Zm2.9,5.521a.736.736,0,0,0-.32.62.778.778,0,0,0,.128.425l.106.147h.034a.752.752,0,0,0,1.234-.451c0-.015,0-.029.006-.044h.237l-.367-.519A.76.76,0,0,0,126.748,191.143ZM176.916,65.906a.739.739,0,0,0,.408.122.76.76,0,0,0,.157-.017.768.768,0,0,0,.481-.334.73.73,0,0,0,.107-.547.761.761,0,0,0-.883-.609h-.009a.759.759,0,0,0-.606.745.566.566,0,0,0,.02.166A.764.764,0,0,0,176.916,65.906ZM162.271,218.982a.76.76,0,0,0-.983.405.684.684,0,0,0-.062.3.75.75,0,0,0,.754.76.753.753,0,0,0,.7-.464A.767.767,0,0,0,162.271,218.982Zm93.409-22.935a.733.733,0,0,0-.491.265.7.7,0,0,0-.188.485.784.784,0,0,0,.273.586.758.758,0,1,0,.972-1.163A.755.755,0,0,0,255.68,196.046Zm-19.116,16.918a.758.758,0,0,0-.576.092h0a.756.756,0,0,0-.357.644.793.793,0,0,0,.112.4.74.74,0,0,0,.459.339.77.77,0,0,0,.183.022.8.8,0,0,0,.416-.119.756.756,0,0,0,.229-1.036A.739.739,0,0,0,236.564,212.964Zm-123.993-75.4a.789.789,0,0,0,.079,0,.742.742,0,0,0,.47-.167.759.759,0,1,0-1.233-.669l0,.075A.763.763,0,0,0,112.571,137.563ZM215.459,67.5a.786.786,0,0,0,.189.023.777.777,0,0,0,.379-.1.724.724,0,0,0,.356-.454.756.756,0,0,0-1.452-.417l-.006.025a.9.9,0,0,0-.023.188A.764.764,0,0,0,215.459,67.5Zm58.46,87.755a.759.759,0,0,0-.858.647l0,.11a.755.755,0,0,0,.65.748.734.734,0,0,0,.1.007.759.759,0,0,0,.107-1.512Zm-9.4-48.458a.755.755,0,0,0,.21.03.731.731,0,0,0,.358-.093.754.754,0,1,0-.713-1.328.74.74,0,0,0-.405.666.677.677,0,0,0,.1.359A.749.749,0,0,0,264.522,106.793ZM128.616,95.941a.756.756,0,0,0,1.063-.138.76.76,0,0,0-.137-1.068.769.769,0,0,0-1.053.141.735.735,0,0,0-.161.465A.76.76,0,0,0,128.616,95.941Zm4.606-4.794a.787.787,0,0,0,.571-.251.771.771,0,0,0-.06-1.067.753.753,0,0,0-1.073.055h0a.74.74,0,0,0-.19.5.719.719,0,0,0,.246.56A.753.753,0,0,0,133.222,91.147ZM190.135,64.5h.029a.764.764,0,0,0,.721-.785.749.749,0,0,0-.245-.534.757.757,0,0,0-.541-.2h0a.766.766,0,0,0-.731.76v.038A.765.765,0,0,0,190.135,64.5ZM230.44,216.222l-.025.013a.781.781,0,0,0-.389.666.759.759,0,0,0,.76.755.782.782,0,0,0,.35-.084.762.762,0,0,0,.32-1.022A.772.772,0,0,0,230.44,216.222ZM153.265,75.041a.8.8,0,0,0,.381-.1.755.755,0,0,0,.275-1.023.748.748,0,0,0-1.039-.291h0a.756.756,0,0,0-.373.657.7.7,0,0,0,.1.372A.751.751,0,0,0,153.265,75.041ZM269.72,117.123l-.007,0a.77.77,0,0,0-.5.713.686.686,0,0,0,.043.249.757.757,0,0,0,.716.508.783.783,0,0,0,.249-.041.759.759,0,1,0-.506-1.431Zm-48.195-47.64a.786.786,0,0,0,.265.046.744.744,0,0,0,.7-.484.736.736,0,0,0-.01-.584.761.761,0,0,0-1.4.035l-.007.019a.8.8,0,0,0-.042.259A.762.762,0,0,0,221.525,69.483Zm52.963,79.343a.757.757,0,0,0-.559.194.741.741,0,0,0-.246.529v.036a.744.744,0,0,0,.712.75l.054,0a.734.734,0,0,0,.485-.181.759.759,0,0,0-.445-1.33Zm-32.666,60.488a.729.729,0,0,0-.557.146.75.75,0,0,0-.311.6.789.789,0,0,0,.154.455.751.751,0,0,0,.607.3.8.8,0,0,0,.462-.149.766.766,0,0,0-.354-1.358Zm-41.9,15.67a.758.758,0,0,0-.7.75v.065a.765.765,0,0,0,.768.7l.056,0a.768.768,0,0,0,.691-.825A.758.758,0,0,0,199.921,224.984Zm9.314-159a.747.747,0,0,0,.155.016.76.76,0,1,0-.749-.908l-.007.148A.759.759,0,0,0,209.234,65.988Zm-12.682-1.5h.026a.76.76,0,0,0,.029-1.519.771.771,0,0,0-.786.72v.039A.766.766,0,0,0,196.553,64.493ZM250.9,201.049l-.017.017a.779.779,0,0,0-.207.522.8.8,0,0,0,.232.546.757.757,0,0,0,.525.212.773.773,0,0,0,.549-.231.759.759,0,0,0-1.082-1.066ZM202.917,64.985a.763.763,0,0,0,.1.007.739.739,0,0,0,.461-.161.772.772,0,0,0,.287-.512.76.76,0,0,0-.38-.737v-.071l-.294-.032a.759.759,0,0,0-.556.166.751.751,0,0,0-.277.5l-.01.088A.752.752,0,0,0,202.917,64.985ZM147.648,78.444a.782.782,0,0,0,.144.013.74.74,0,0,0,.42-.128.759.759,0,0,0,.323-.491.733.733,0,0,0-.119-.558.758.758,0,0,0-.49-.323.759.759,0,0,0-.892.741.756.756,0,0,0,.128.426A.745.745,0,0,0,147.648,78.444Zm45.888,146.8h-.121a.755.755,0,1,0,0,1.51h.121a.755.755,0,1,0,0-1.51ZM266.9,112.151a.757.757,0,0,0,.692.453.769.769,0,0,0,.315-.068.758.758,0,0,0-.629-1.379l-.007,0a.766.766,0,0,0-.44.687A.714.714,0,0,0,266.9,112.151ZM137.715,86.538h.027a.745.745,0,0,0,.517-.206.76.76,0,0,0-1.04-1.108l-.012.011a.761.761,0,0,0-.026,1.055A.753.753,0,0,0,137.715,86.538ZM266.98,180.924a.767.767,0,0,0-.355-1.008.746.746,0,0,0-.57-.041.757.757,0,0,0-.1,1.4.745.745,0,0,0,.334.079A.771.771,0,0,0,266.98,180.924ZM114.723,124.846a.747.747,0,0,0,.928-.537.757.757,0,1,0-1.466-.38v0a.782.782,0,0,0-.026.183A.753.753,0,0,0,114.723,124.846Zm-1.935,5.419a.562.562,0,0,0-.017.151.746.746,0,0,0,.622.746.773.773,0,0,0,.133.012.757.757,0,0,0,.133-1.5.754.754,0,0,0-.871.6Zm74.235,94.727a.76.76,0,0,0-.814.683l0,.075a.759.759,0,0,0,.705.751l.052,0a.753.753,0,0,0,.578-1.248A.746.746,0,0,0,187.023,224.992ZM238.331,77.223a.767.767,0,0,0,.2,1.058.759.759,0,0,0,.421.128.769.769,0,0,0,.152-.015.741.741,0,0,0,.475-.315.758.758,0,0,0-.775-1.173A.743.743,0,0,0,238.331,77.223ZM213.106,223.041a.757.757,0,0,0-.576-.087h0a.757.757,0,0,0,.179,1.49.719.719,0,0,0,.172-.021.735.735,0,0,0,.477-.331.765.765,0,0,0-.249-1.051ZM158.72,72.026a.762.762,0,0,0,.267.048A.771.771,0,0,0,159.31,72a.759.759,0,0,0-.642-1.376l-.007,0a.762.762,0,0,0-.432.687.788.788,0,0,0,.069.312A.746.746,0,0,0,158.72,72.026Zm-46.372,76.922h0a.766.766,0,0,0-.711.758v.046a.755.755,0,0,0,.753.706l.053,0a.768.768,0,0,0,.518-.253.738.738,0,0,0,.192-.551.755.755,0,0,0-.8-.7Zm30.175-66.654a.773.773,0,0,0,.083,0,.764.764,0,0,0,.752-.679.757.757,0,0,0-1.223-.673l-.01.008a.77.77,0,0,0-.279.584.716.716,0,0,0,.167.471A.745.745,0,0,0,142.522,82.294Zm129.191,85.958a.754.754,0,0,0-1.038-.319.738.738,0,0,0-.353.432.7.7,0,0,0-.041.235.762.762,0,0,0,.537.719.737.737,0,0,0,.226.035.766.766,0,0,0,.724-.531l.131-.43h-.131A.793.793,0,0,0,271.714,168.252ZM243.56,81.009a.762.762,0,0,0-.169.473.773.773,0,0,0,.289.6.754.754,0,0,0,.467.161.746.746,0,0,0,.59-.284.756.756,0,1,0-1.174-.952Zm29.854,81.516a.737.737,0,0,0-.086-.561.759.759,0,0,0-1.389.216l-.01.088v-.006a.736.736,0,0,0-.007.095.751.751,0,0,0,.591.734.743.743,0,0,0,.9-.565ZM232.824,73.863a.725.725,0,0,0-.1.376.755.755,0,0,0,.388.661.733.733,0,0,0,.361.094.789.789,0,0,0,.674-.387.765.765,0,0,0-.288-1.026.749.749,0,0,0-.586-.075A.741.741,0,0,0,232.824,73.863Zm38.32,50.332a.752.752,0,0,0,.725.566.69.69,0,0,0,.191-.026.743.743,0,0,0,.464-.339.759.759,0,0,0-.839-1.128h-.006a.766.766,0,0,0-.563.732.753.753,0,0,0,.018.157ZM121.68,106.818a.751.751,0,0,0,.358.091.758.758,0,0,0,.735-.97.753.753,0,0,0-.375-.459.768.768,0,0,0-1.019.3l-.007.014a.8.8,0,0,0-.084.358A.773.773,0,0,0,121.68,106.818Zm139.576-5.552a.769.769,0,0,0,.59-.107.756.756,0,0,0-.267-1.371.754.754,0,0,0-.788,1.15A.735.735,0,0,0,261.256,101.267ZM118.5,111.64v0a.76.76,0,0,0,.7,1.058.756.756,0,0,0,.308-1.448A.762.762,0,0,0,118.5,111.64ZM226.982,71.268a.768.768,0,0,0,.443.688.756.756,0,0,0,.317.07.773.773,0,0,0,.257-.044.743.743,0,0,0,.433-.394.759.759,0,0,0-1.374-.647l-.008.018A.794.794,0,0,0,226.982,71.268Zm-64.923,155.07a.648.648,0,0,0-.842.361l-.019.068a.9.9,0,0,0-.021.168.642.642,0,0,0,.423.611.648.648,0,0,0,.821-.375.632.632,0,0,0-.009-.495A.646.646,0,0,0,162.059,226.338Zm118.59-70.228a.643.643,0,0,0-.724.543l-.014.1a.642.642,0,0,0,.56.634.614.614,0,0,0,.093.007.639.639,0,0,0,.636-.554A.647.647,0,0,0,280.648,156.111Zm.058-12.226a.657.657,0,0,0,.653.63.646.646,0,0,0-.008-1.291A.657.657,0,0,0,280.707,143.885Zm-1.52-18.588a.646.646,0,1,0-.795-.629.484.484,0,0,0,.018.152.653.653,0,0,0,.63.493A.638.638,0,0,0,279.187,125.3Zm.414,37.195a.639.639,0,0,0-.766.471.5.5,0,0,0-.021.158.642.642,0,0,0,.519.632.665.665,0,0,0,.122.012.643.643,0,0,0,.544-.994A.619.619,0,0,0,279.6,162.491ZM258.036,85.827a.668.668,0,0,0,.442-.168.636.636,0,0,0,.04-.9.628.628,0,0,0-.444-.215.643.643,0,0,0-.677.642.663.663,0,0,0,.177.451A.651.651,0,0,0,258.036,85.827ZM209.581,230.646a.643.643,0,0,0-.534.633.468.468,0,0,0,.021.148.645.645,0,0,0,.26.381.632.632,0,0,0,.483.1.643.643,0,0,0,.411-.267.634.634,0,0,0,.1-.483A.644.644,0,0,0,209.581,230.646ZM262.247,90.735a.62.62,0,0,0,.4-.142.632.632,0,0,0,.11-.9.639.639,0,0,0-.443-.247.653.653,0,0,0-.707.641.673.673,0,0,0,.14.4A.653.653,0,0,0,262.247,90.735ZM194.06,232.781a.655.655,0,0,1-.645.646.639.639,0,0,1-.646-.646.647.647,0,0,1,.646-.645A.654.654,0,0,1,194.06,232.781Zm-.645-.316Zm78.569-125.725a.651.651,0,0,0,.86.287.645.645,0,1,0-.565-1.16.635.635,0,0,0-.366.581.757.757,0,0,0,.049.241Zm-84.971,125.17a.641.641,0,0,0-.7.591v.053a.635.635,0,0,0,.592.637.58.58,0,0,0,.06,0,.643.643,0,0,0,.047-1.284Zm16.676-.194a.623.623,0,0,0-.458-.122.647.647,0,0,0-.573.635l0,.086a.649.649,0,0,0,.641.561.571.571,0,0,0,.063,0,.633.633,0,0,0,.434-.228.64.64,0,0,0-.111-.93ZM269.36,101.369a.642.642,0,0,0,.165.022.66.66,0,0,0,.621-.463.652.652,0,0,0-.061-.5.643.643,0,0,0-.883-.239h0a.651.651,0,0,0-.316.56.578.578,0,0,0,.085.319A.639.639,0,0,0,269.36,101.369ZM197.51,232.692a.648.648,0,0,1-.622.669h-.031a.627.627,0,0,1-.435-.176.657.657,0,0,1-.2-.448.649.649,0,0,1,.614-.668h0A.655.655,0,0,1,197.51,232.692Zm-.662-.293ZM265.96,95.918a.662.662,0,0,0,.12.011.643.643,0,0,0,.626-.494h.284l-.375-.521a.654.654,0,0,0-.894-.164.641.641,0,0,0-.287.535.7.7,0,0,0,.112.361A.633.633,0,0,0,265.96,95.918ZM174.329,230.05a.633.633,0,0,0-.767.47.533.533,0,0,0-.019.151.661.661,0,0,0,.485.633l.417.108v-.15a.66.66,0,0,0,.376-.457.653.653,0,0,0-.092-.478A.615.615,0,0,0,174.329,230.05ZM274.921,112.945a.641.641,0,0,0,.247.05.6.6,0,0,0,.233-.047.649.649,0,0,0,.362-.842.63.63,0,0,0-.345-.352.643.643,0,0,0-.485,0,.637.637,0,0,0-.413.6.611.611,0,0,0,.048.235A.655.655,0,0,0,274.921,112.945Zm4.72,18.173a.652.652,0,0,0,.649.529.692.692,0,0,0,.1-.007.648.648,0,0,0,.524-.735.627.627,0,0,0-.258-.424.648.648,0,0,0-.472-.115h0a.648.648,0,0,0-.546.633ZM215.835,229.23l-.011,0a.651.651,0,0,0-.477.626.542.542,0,0,0,.021.172.652.652,0,0,0,.633.472.717.717,0,0,0,.164-.019.648.648,0,0,0-.331-1.253Zm65.394-79.552a.661.661,0,0,0-.683.6v.047a.644.644,0,0,0,.614.645h.029a.656.656,0,0,0,.439-.17.636.636,0,0,0,.208-.438h0A.659.659,0,0,0,281.229,149.678ZM222.783,227.76a.654.654,0,0,1-.383.82.694.694,0,0,1-.223.037.647.647,0,0,1-.616-.428l-.013-.048a.841.841,0,0,1-.022-.167.656.656,0,0,1,.424-.608l.009,0A.65.65,0,0,1,222.783,227.76Zm-.717-.086ZM180.632,231.2a.648.648,0,0,0-.723.512.446.446,0,0,0-.017.131.665.665,0,0,0,.661.643.617.617,0,0,0,.371-.125.671.671,0,0,0,.256-.425A.661.661,0,0,0,180.632,231.2ZM253.486,81.248h.031a.613.613,0,0,0,.43-.2.625.625,0,0,0,.183-.455.656.656,0,0,0-.207-.465.641.641,0,0,0-.471-.171.62.62,0,0,0-.439.211h0a.661.661,0,0,0-.169.435.631.631,0,0,0,.2.467A.652.652,0,0,0,253.486,81.248Zm-5.273-4.376a.652.652,0,0,0,.4.135.66.66,0,0,0,.511-.246.646.646,0,0,0-1.008-.809.639.639,0,0,0,.1.92Zm32.193,60.542v.054a.652.652,0,0,0,.234.445.634.634,0,0,0,.4.147.592.592,0,0,0,.06,0,.652.652,0,0,0,.445-.234.631.631,0,0,0,.144-.466.659.659,0,0,0-.684-.59H281A.647.647,0,0,0,280.406,137.414ZM168.135,228.428a.623.623,0,0,0-.493.036.645.645,0,0,0-.319.386.609.609,0,0,0-.032.19.647.647,0,0,0,.465.615.664.664,0,0,0,.186.026.64.64,0,0,0,.309-.08.654.654,0,0,0,.261-.857A.633.633,0,0,0,168.135,228.428Zm52-166.725a.647.647,0,1,0-.119-1.188.634.634,0,0,0-.3.359.538.538,0,0,0-.036.213A.657.657,0,0,0,220.137,61.7Zm-18.83-3.82.061,0a.643.643,0,0,0,.058-1.283.645.645,0,0,0-.7.58l0,.064A.629.629,0,0,0,201.307,57.882Zm24.859,6a.637.637,0,0,0,.237.046.663.663,0,0,0,.6-.381l.013-.032a.653.653,0,0,0-.367-.828.634.634,0,0,0-.834.353h0a.656.656,0,0,0-.048.243A.647.647,0,0,0,226.166,63.884ZM130.9,83.624h.012a.617.617,0,0,0,.436-.187.645.645,0,0,0,.194-.469.619.619,0,0,0-.194-.443.648.648,0,0,0-.9-.007l-.023.024a.659.659,0,0,0-.171.436.652.652,0,0,0,.65.648Zm4.705-4.425a.671.671,0,0,0,.428-.156.649.649,0,0,0-.847-.982l-.026.024a.684.684,0,0,0-.2.475.6.6,0,0,0,.163.419A.638.638,0,0,0,135.606,79.2Zm72.076-20.506a.654.654,0,0,0,.092.007.635.635,0,0,0,.634-.53.646.646,0,1,0-1.272-.229l-.006.119A.649.649,0,0,0,207.682,58.693Zm6.274,1.268a.625.625,0,0,0,.154.019.642.642,0,0,0,.332-.092.632.632,0,0,0,.288-.4.648.648,0,0,0-.077-.493.63.63,0,0,0-.394-.285.647.647,0,0,0-.774.457.577.577,0,0,0-.021.172A.639.639,0,0,0,213.956,59.96ZM126.518,88.381l.055,0a.654.654,0,0,0,.595-.691.662.662,0,0,0-.236-.459.651.651,0,0,0-.891.081.616.616,0,0,0-.166.424.66.66,0,0,0,.226.492A.63.63,0,0,0,126.518,88.381ZM121.864,92.8a.672.672,0,0,1,.117-.385l.007-.01a.648.648,0,0,1,1.04.774.661.661,0,0,1-.524.263.625.625,0,0,1-.381-.129A.638.638,0,0,1,121.864,92.8Zm.386-.195Zm-15.3,36.064a.653.653,0,0,0,.488-.1.638.638,0,0,0,.27-.412l.064-.389h-.115a.65.65,0,0,0-.94-.268.626.626,0,0,0-.281.413h0v.031a.48.48,0,0,0-.01.1A.654.654,0,0,0,106.949,128.669ZM243.075,73.028a.648.648,0,0,0,.361.11.644.644,0,1,0-.525-1.018.6.6,0,0,0-.121.374A.66.66,0,0,0,243.075,73.028ZM112.567,110.15a.642.642,0,0,0,.264.058.627.627,0,0,0,.224-.041.654.654,0,0,0,.372-.849.618.618,0,0,0-.338-.343.643.643,0,0,0-.5-.011.627.627,0,0,0-.35.35.64.64,0,0,0-.056.245A.653.653,0,0,0,112.567,110.15ZM232.026,66.515a.66.66,0,0,0,.507.023.611.611,0,0,0,.348-.313.627.627,0,0,0,.042-.487.648.648,0,0,0-1.193-.1l-.014.031a.7.7,0,0,0-.056.26A.655.655,0,0,0,232.026,66.515ZM118.537,98.695a.673.673,0,0,0,.338.092.646.646,0,1,0-.544-1l-.012.019a.671.671,0,0,0-.092.334A.678.678,0,0,0,118.537,98.695ZM237.662,69.56a.628.628,0,0,0,.328.093.645.645,0,0,0,.554-.316.63.63,0,0,0,.073-.488.644.644,0,0,0-1.177-.175.6.6,0,0,0-.09.336A.637.637,0,0,0,237.662,69.56ZM115,103.736a.644.644,0,0,1,.068-.295l.009-.016a.651.651,0,0,1,.869-.256.643.643,0,0,1,.268.866.651.651,0,0,1-.575.348.625.625,0,0,1-.292-.072A.639.639,0,0,1,115,103.736Zm.361-.146ZM169.38,60.86a.67.67,0,0,0,.185-.026.662.662,0,0,0,.441-.795.641.641,0,0,0-.307-.389.654.654,0,0,0-.5-.057h0a.639.639,0,0,0-.462.616.5.5,0,0,0,.036.2A.638.638,0,0,0,169.38,60.86Zm5.91-1.647a.665.665,0,0,0,.494.1.646.646,0,0,0,.223-1.175.636.636,0,0,0-.489-.086.652.652,0,0,0-.507.629.523.523,0,0,0,.019.147A.625.625,0,0,0,175.291,59.213Zm-12.054,3.634a.7.7,0,0,0,.221-.036.629.629,0,0,0,.36-.324.669.669,0,0,0,.023-.516.647.647,0,0,0-.831-.371.655.655,0,0,0-.42.607.555.555,0,0,0,.043.213A.632.632,0,0,0,163.237,62.846Zm81.9,152.608v-.282l-.523.382a.658.658,0,0,0-.147.9l.012.018v.005l0,0a.639.639,0,0,0,.407.238.655.655,0,0,0,.1.007.613.613,0,0,0,.369-.118.62.62,0,0,0,.267-.406.663.663,0,0,0-.115-.506A.65.65,0,0,0,245.137,215.454ZM140.35,75.072a.647.647,0,0,0,.278.062.654.654,0,0,0,.383-.124l.822-.6h-.568a.641.641,0,0,0-1.017-.444.622.622,0,0,0-.27.521.644.644,0,0,0,.118.366l-.294.215Zm99.827,144.264a.651.651,0,0,1-.221.894.645.645,0,0,1-.489.071.63.63,0,0,1-.391-.3.6.6,0,0,1-.093-.328.653.653,0,0,1,.3-.545l.013-.008A.646.646,0,0,1,240.177,219.336Zm-.72.073Zm-5.737,2.89a.625.625,0,0,0-.349.568.638.638,0,0,0,.447.617.652.652,0,0,0,.2.032.636.636,0,0,0,.3-.073.645.645,0,0,0-.6-1.144ZM182.04,58.267l.061,0,.3-.036v-.084a.628.628,0,0,0,.134-.127.643.643,0,0,0,.131-.486.658.658,0,0,0-.712-.557l-.022,0a.654.654,0,0,0-.545.642l0,.086A.654.654,0,0,0,182.04,58.267Zm6.435-.595h.034a.662.662,0,0,0,.6-.69.654.654,0,0,0-.675-.6h0a.653.653,0,0,0-.614.677A.641.641,0,0,0,188.475,57.672ZM145.929,71.444a.63.63,0,0,0,.35-.1.655.655,0,0,0,.188-.894.644.644,0,0,0-.886-.186.63.63,0,0,0-.3.539.624.624,0,0,0,.1.353A.656.656,0,0,0,145.929,71.444Zm48.658-13.99v.1h.329a.643.643,0,0,0,.645-.63.64.64,0,0,0-.62-.661h0a.641.641,0,0,0-.455.165.654.654,0,0,0-.214.457v.024A.636.636,0,0,0,194.587,57.454ZM151.3,68.131a.646.646,0,0,0,.179.025.615.615,0,0,0,.308-.08.638.638,0,0,0,.318-.4.608.608,0,0,0-.058-.471.637.637,0,0,0-.377-.314.649.649,0,0,0-.5.045l-.013.007a.653.653,0,0,0-.325.56.668.668,0,0,0,.078.308A.637.637,0,0,0,151.3,68.131Zm98.83,143.325a.628.628,0,0,0-.471.155l0,0a.658.658,0,0,0-.224.489.672.672,0,0,0,.154.419.652.652,0,0,0,.492.223.622.622,0,0,0,.411-.152.642.642,0,0,0,.232-.443.617.617,0,0,0-.145-.46A.642.642,0,0,0,250.128,211.456ZM157.263,65.285a.611.611,0,0,0,.262-.059.645.645,0,0,0-.037-1.192.642.642,0,0,0-.494.016l-.012.005a.658.658,0,0,0-.369.578.618.618,0,0,0,.065.28A.651.651,0,0,0,157.263,65.285Zm-1.1,158.533a.647.647,0,0,0-.867.283l-.016.035a.719.719,0,0,0-.046.257.656.656,0,0,0,.366.582.642.642,0,0,0,.275.062.655.655,0,0,0,.225-.04.646.646,0,0,0,.384-.824A.621.621,0,0,0,156.163,223.819Zm72.253,1.217a.647.647,0,0,0-.873.608.667.667,0,0,0,.054.257.656.656,0,0,0,.369.346.647.647,0,0,0,.224.04.569.569,0,0,0,.243-.053.642.642,0,0,0-.016-1.2Zm39.069-32.783a.653.653,0,0,0-.883.2h0a.652.652,0,0,0-.1.351.629.629,0,0,0,.284.534.646.646,0,0,0,.991-.663A.651.651,0,0,0,267.484,192.253Zm-8.222,10.179a.624.624,0,0,0-.425.217.612.612,0,0,0-.166.424.647.647,0,0,0,.218.49.633.633,0,0,0,.421.158h.043a.647.647,0,0,0,.6-.7.623.623,0,0,0-.222-.432A.647.647,0,0,0,259.262,202.432ZM139.791,213.738a.641.641,0,0,0-.9.106.615.615,0,0,0-.138.4.624.624,0,0,0,.25.5.652.652,0,0,0,.4.138.633.633,0,0,0,.5-.247.663.663,0,0,0,.128-.5A.612.612,0,0,0,139.791,213.738Zm-10.414-8.628a.643.643,0,0,0,.437,1.114.663.663,0,0,0,.455-.183.646.646,0,0,0,.016-.9A.639.639,0,0,0,129.377,205.11ZM263.8,197.567a.635.635,0,0,0-.9.124.608.608,0,0,0-.135.389.628.628,0,0,0,.251.513.643.643,0,0,0,.393.133.69.69,0,0,0,.089-.006.637.637,0,0,0,.425-.245.647.647,0,0,0,.127-.486A.633.633,0,0,0,263.8,197.567ZM133.97,209.652l-.011.012a.644.644,0,0,0,.058.906.647.647,0,0,0,.43.162h.034a.633.633,0,0,0,.447-.215.645.645,0,0,0-.958-.865Zm11.2,8.73a.649.649,0,0,1-.54.288.639.639,0,0,1-.639-.641.625.625,0,0,1,.115-.366.644.644,0,0,1,.892-.176A.655.655,0,0,1,145.168,218.382Zm-.793-.532Zm133.693-49.087a.637.637,0,0,0-.487.053.646.646,0,0,0-.311.386.6.6,0,0,0-.022.184.637.637,0,0,0,.461.615.618.618,0,0,0,.182.027.636.636,0,0,0,.306-.079.644.644,0,0,0,.312-.388.633.633,0,0,0-.053-.487A.645.645,0,0,0,278.068,168.763Zm-1.99,6.144a.649.649,0,0,0-.821.375.594.594,0,0,0-.039.235.617.617,0,0,0,.409.6.623.623,0,0,0,.233.045.647.647,0,0,0,.264-.057.636.636,0,0,0,.337-.358.623.623,0,0,0-.007-.482A.672.672,0,0,0,276.078,174.907Zm1.438-55.859a.644.644,0,1,0-.829-.616.724.724,0,0,0,.025.2.648.648,0,0,0,.613.447A.583.583,0,0,0,277.517,119.048Zm-6.746,67.642a.652.652,0,0,0-.868.256l-.009.017a.638.638,0,0,0-.068.294.666.666,0,0,0,.332.573.619.619,0,0,0,.3.077.673.673,0,0,0,.58-.342A.656.656,0,0,0,270.771,186.69ZM150.446,220.847a.652.652,0,0,0-.863.24.6.6,0,0,0-.089.327.633.633,0,0,0,.32.557.617.617,0,0,0,.323.091.647.647,0,0,0,.31-1.215ZM273.65,180.9a.63.63,0,0,0-.495-.018.647.647,0,0,0-.357.33l-.019.051a.629.629,0,0,0,.334.811.639.639,0,0,0,.265.057.659.659,0,0,0,.594-.376A.65.65,0,0,0,273.65,180.9Zm-161.184-2.79a.625.625,0,0,0-.486.008.65.65,0,0,0-.394.6.672.672,0,0,0,.048.245.636.636,0,0,0,.6.4.706.706,0,0,0,.264-.052.653.653,0,0,0-.029-1.193Zm-5.034-18.075a.644.644,0,0,0-.266-.411.632.632,0,0,0-.478-.1.645.645,0,0,0-.533.633l.006.119a.653.653,0,0,0,.65.529.721.721,0,0,0,.1-.007.656.656,0,0,0,.411-.262.628.628,0,0,0,.115-.452Zm1.045,5.882a.648.648,0,0,0-.974.553.43.43,0,0,0,.008.081l.014.094a.659.659,0,0,0,.63.472.641.641,0,0,0,.151-.018.631.631,0,0,0,.394-.288.65.65,0,0,0,.077-.489A.643.643,0,0,0,108.476,165.92Zm.229-44.8a.631.631,0,0,0-.49.058.639.639,0,0,0-.3.4l.319.081-.323-.063a.551.551,0,0,0-.022.144.644.644,0,0,0,.474.625.653.653,0,0,0,.18.025.636.636,0,0,0,.309-.08.645.645,0,0,0-.141-1.185Zm-2.287,33.038a.641.641,0,0,0,.067-.105h.124l-.053-.375a.664.664,0,0,0-.707-.566h0a.643.643,0,0,0-.581.644v.063a.649.649,0,0,0,.649.584l.06,0A.642.642,0,0,0,106.418,154.159Zm-.877-12.657a.632.632,0,0,0,.653-.608.612.612,0,0,0-.15-.462.656.656,0,0,0-.463-.222.623.623,0,0,0-.461.166.64.64,0,0,0-.208.448v.023A.652.652,0,0,0,105.541,141.5Zm19.57,58.757,0,0a.646.646,0,0,0-.077.9.636.636,0,0,0,.436.23.589.589,0,0,0,.061,0,.642.642,0,0,0,.408-.145.656.656,0,0,0,.086-.917A.648.648,0,0,0,125.111,200.26Zm-19.142-52.5a.635.635,0,0,0,.176-.473.66.66,0,0,0-.653-.622h-.015a.645.645,0,0,0-.419,1.116.622.622,0,0,0,.422.175A.666.666,0,0,0,105.969,147.761Zm3.792,24.3a.636.636,0,0,0-.441.613.526.526,0,0,0,.042.225.65.65,0,0,0,.612.414.7.7,0,0,0,.2-.028.665.665,0,0,0,.405-.826A.652.652,0,0,0,109.761,172.062Zm.906-57.1a.657.657,0,0,0-.82.381.564.564,0,0,0-.04.229.657.657,0,0,0,.431.611.636.636,0,0,0,.209.036.667.667,0,0,0,.616-.432.652.652,0,0,0-.4-.825Zm7.563,74.63a.649.649,0,0,0-.5.067l-.018.011a.658.658,0,0,0-.293.55.6.6,0,0,0,.089.335.647.647,0,0,0,.554.3.665.665,0,0,0,.337-.092.648.648,0,0,0-.173-1.176Zm136.64,17.518a.672.672,0,0,0-.461.186.642.642,0,0,0-.01.911.661.661,0,0,0,.464.193h0a.623.623,0,0,0,.441-.177.647.647,0,0,0-.434-1.114ZM121.721,194.987a.65.65,0,0,0-.489.1l-.005,0a.657.657,0,0,0-.273.526.643.643,0,0,0,.125.376.632.632,0,0,0,.52.264.7.7,0,0,0,.387-.119.67.67,0,0,0,.256-.441.6.6,0,0,0-.109-.441A.63.63,0,0,0,121.721,194.987ZM114.641,184l-.009.005a.645.645,0,0,0-.343.565.767.767,0,0,0,.049.248l.022.051a.648.648,0,0,0,.574.349.609.609,0,0,0,.286-.07.643.643,0,1,0-.578-1.148Zm-8.649-48.947a.675.675,0,0,0,.091.006.633.633,0,0,0,.392-.134.647.647,0,1,0-1.04-.594l0,.087A.643.643,0,0,0,105.992,135.053Z" transform="translate(-12.84 256.822)" fill="#5c5858" opacity="0.38" style="mix-blend-mode: overlay;isolation: isolate"/>
      </g>
      <g id="Group_7888" data-name="Group 7888" transform="translate(74.133 235.582)">
        <g id="Group_7868" data-name="Group 7868" transform="translate(125.917 160.665)">
          <g transform="matrix(1, 0, 0, 1, -182.05, -42.25)" filter="url(#Rectangle_2733)">
            <rect id="Rectangle_2733-2" data-name="Rectangle 2733" width="102.389" height="28.6" transform="matrix(1, -0.06, 0.06, 1, 182.05, 48.51)" fill="url(#linear-gradient-3)"/>
          </g>
        </g>
        <g id="Group_7869" data-name="Group 7869" transform="translate(122.977 157.726)">
          <path id="Path_17844" data-name="Path 17844" d="M141.833,197.382l-16.769,1.027-2.087-34.086,107.737-6.6,2.087,34.086" transform="translate(-122.977 -157.726)" fill="none" stroke="#fff" stroke-miterlimit="10" stroke-width="1"/>
        </g>
      </g>
      <g id="Group_7889" data-name="Group 7889" transform="matrix(0.998, -0.07, 0.07, 0.998, -26.873, 13.073)">
        <text id="Register_Now" data-name="Register Now" transform="translate(250.366 424.409)" fill="#262626" font-size="14" font-family="Oswald-Bold, Oswald" font-weight="700"><tspan x="-42.252" y="0">REGISTER NOW</tspan></text>
      </g>
      <g id="cursor_1_" data-name="cursor (1)" transform="translate(189.461 392.461)">
        <path id="Path_17852" data-name="Path 17852" d="M314.835,4.024a.676.676,0,0,1-.676-.676V.676a.676.676,0,1,1,1.352,0V3.348A.676.676,0,0,1,314.835,4.024Z" transform="translate(-306.595 0)" fill="#fff"/>
        <path id="Path_17853" data-name="Path 17853" d="M426.74,168.533a.676.676,0,0,1-.676.676h-2.672a.676.676,0,0,1,0-1.352h2.672A.676.676,0,0,1,426.74,168.533Z" transform="translate(-422.716 -160.292)" fill="#fff"/>
        <path id="Path_17855" data-name="Path 17855" d="M391.064,51.512l-1.892-1.887a.676.676,0,0,1,.955-.957l1.892,1.887a.676.676,0,0,1-.955.957Z" transform="translate(-386.673 -46.286)" fill="#fff"/>
      </g>
      <path id="Path_17859" data-name="Path 17859" d="M.039,180.377,4.29,192.526a.677.677,0,0,0,1.22.121l1.314-2.221,3.838,3.839a.676.676,0,0,0,.956,0l3.168-3.168a.676.676,0,0,0,0-.956l-3.839-3.84,2.221-1.314a.677.677,0,0,0-.121-1.22L.9,179.515A.677.677,0,0,0,.039,180.377Z" transform="translate(283.552 239.074)" fill="#fff"/>
    </g>
  </g>
</svg>
