<svg xmlns="http://www.w3.org/2000/svg" width="39" height="39" viewBox="0 0 39 39">
  <g id="App_icon" data-name="App icon" transform="translate(-24 -53)">
    <g id="Ellipse_4" data-name="Ellipse 4" transform="translate(24 53)" fill="#784da8" stroke="#784da8" stroke-width="1">
      <circle cx="19.5" cy="19.5" r="19.5" stroke="none"/>
      <circle cx="19.5" cy="19.5" r="19" fill="none"/>
    </g>
    <g id="Group_6861" data-name="Group 6861" transform="translate(13 114.236)">
      <path id="Path_241" data-name="Path 241" d="M208,335.794a6.194,6.194,0,0,0-2.791-5.241,5.366,5.366,0,0,0-5.24.136,13.835,13.835,0,0,0-4.138,3.936c-1.289,1.612-2.621,3.279-4.444,4.037a2.132,2.132,0,0,1-2.66-.956,3.165,3.165,0,0,1-.046-3.834,2.916,2.916,0,0,1,3.245-.712v-2.974a5.569,5.569,0,0,0-5.352,1.709c-2.034,2.168-1.652,5.392-.223,7.456a4.983,4.983,0,0,0,6.145,1.98c2.508-1.042,4.146-3.092,5.592-4.9a11.7,11.7,0,0,1,3.2-3.172,2.646,2.646,0,0,1,2.483-.2,3.434,3.434,0,0,1,1.339,2.9,2.653,2.653,0,0,1-.923,2.449,2.837,2.837,0,0,1-2.684.173,10.235,10.235,0,0,1-2.668-2.024l-2.084,2a12.974,12.974,0,0,0,3.67,2.7,6.265,6.265,0,0,0,2.343.466,5.3,5.3,0,0,0,3.106-.97A5.456,5.456,0,0,0,208,335.794Z" transform="translate(-166.163 -377.17)" fill="#fff"/>
    </g>
  </g>
</svg>
