<svg xmlns="http://www.w3.org/2000/svg" width="20.172" height="20.171" viewBox="0 0 20.172 20.171">
  <g id="solid_1" data-name="solid 1" transform="translate(0)">
    <path id="Path_487" data-name="Path 487" d="M31.292,27.45l.681.408a1.716,1.716,0,0,0,2.175-.342L36.088,25.3a.336.336,0,0,0,.066-.328l-.336-1.009a.336.336,0,0,0-.319-.23H34.491a.336.336,0,0,0-.336.336v.511L32.8,25.666l-.466-.326-.266-.186a8.179,8.179,0,0,0,.073-1.085,8.092,8.092,0,0,0-.255-2.017h.591a.336.336,0,1,0,0-.672h-.346A1.516,1.516,0,0,0,31.1,20.112a8.069,8.069,0,1,0-8.919,11.8l-.442,1.106a.336.336,0,0,0,.187.437l.019.007,1.009.336a.336.336,0,0,0,.344-.081l.563-.563,3.609.278q.08.006.159.006a2.113,2.113,0,0,0,1.167-.353l.02-.013a2.088,2.088,0,0,0,.809-1.03l.288-.791,1.938,1.108.622,2.176v1.3a.336.336,0,0,0,.336.336h2.353a.336.336,0,0,0,.336-.336s0-.007,0-.011l-.032-1.009a.336.336,0,0,0-.227-.307l-.771-.265L34.211,31.4a1.6,1.6,0,0,0-.769-1.225L30.825,28.6l.217-1.3Zm1.728-1.1L34.7,25a.336.336,0,0,0,.126-.263V24.4h.43l.2.6-1.814,2.073a1.044,1.044,0,0,1-1.323.208l-.428-.257.391-.9.335.235A.336.336,0,0,0,33.02,26.348ZM31.129,24.5v-.809a.956.956,0,0,0,.316-.169c.013.182.021.365.021.549,0,.215-.01.431-.028.646Zm-5.715,3.268h.3l.336.672h-.633Zm.541-2.082.1-.1.73.974.321,1.606a.337.337,0,0,0,.092.172l.435.435-.263.263-.355-.178L25.823,26.49a.7.7,0,0,1-.074-.312A.693.693,0,0,1,25.954,25.684Zm-.2,5.444V29.111h.633l.075.15a.336.336,0,0,0,.15.15l.672.336a.336.336,0,0,0,.388-.063l.574-.574h.533v2.017Zm3.362-2.69h-.869l-.5-.5-.034-.17h1.405Zm-1.517-1.463-.028.1-.1-.5.249-.166A4.471,4.471,0,0,1,27.595,26.976Zm-2.116-1.767a1.361,1.361,0,0,0-.4.969,1.377,1.377,0,0,0,.145.613l.152.3h-.044a.589.589,0,0,0-.588.588v1.093a.336.336,0,0,0,.336.336v.925a6.1,6.1,0,0,1-.672.075v-.327a.336.336,0,0,0-.672,0v.327a6.027,6.027,0,0,1-3.7-1.534l.229-.229a.336.336,0,0,0-.475-.475l-.229.229a6.027,6.027,0,0,1-1.534-3.7h.327a.336.336,0,0,0,0-.672h-.327a6.027,6.027,0,0,1,1.534-3.7l.229.229a.336.336,0,0,0,.475-.475l-.229-.229a6.027,6.027,0,0,1,3.7-1.534v.327a.336.336,0,0,0,.672,0v-.326a6.067,6.067,0,0,1,3.7,1.532l-.23.23a.336.336,0,0,0,.47.481l.005-.005.23-.23a6.039,6.039,0,0,1,.666.9,1.5,1.5,0,0,0-.132.617V23.4H27.848a1.336,1.336,0,0,0-.951.394Zm4.305-3.158h1.345v.725a.284.284,0,0,1-.284.284h-.052a.336.336,0,0,0-.336.336v.632l-.672-.471ZM18.369,28.783a7.4,7.4,0,1,1,11.923-8.712,1.507,1.507,0,0,0-.611.294,6.722,6.722,0,1,0-4.6,10.351v.412h-.965l-1.175-.309a.336.336,0,0,0-.4.2l-.105.263A7.419,7.419,0,0,1,18.369,28.783Zm4.6,4.314L22.5,32.94l.558-1.394.608.16-.233.932Zm11.847,2.4h-1.67v-.672H34.1l.7.242Zm-4.165-9.046a.336.336,0,0,0-.191.25l-.289,1.736h-.388v-.756a.589.589,0,0,0-.588-.588h-.936a5.134,5.134,0,0,0,.18-1.345.336.336,0,0,0-.523-.28l-.744.5-.643-.857.843-.843a.668.668,0,0,1,.475-.2h1.493l2.378,1.664-.41.943-.344-.206a.336.336,0,0,0-.314-.017Z" transform="translate(-16 -16)" fill="#262626"/>
    <path id="Path_488" data-name="Path 488" d="M154.691,99.756v-3.42a.336.336,0,0,0-.672,0v3.42a1.008,1.008,0,0,0-.615,1.286,1,1,0,0,0,.041.1l-1.345,1.345a.336.336,0,0,0,.475.475l1.345-1.345a1.009,1.009,0,1,0,.771-1.861Zm-.336,1.287a.336.336,0,1,1,.336-.336A.336.336,0,0,1,154.355,101.043Z" transform="translate(-146.287 -92.638)" fill="#262626"/>
  </g>
</svg>
