<svg id="Component_56_1" data-name="Component 56 – 1" xmlns="http://www.w3.org/2000/svg" width="24" height="24" viewBox="0 0 24 24">
  <rect id="Rectangle_2674" data-name="Rectangle 2674" width="24" height="24" rx="6" fill="#7146a2"/>
  <path id="Icon_ionic-ios-checkmark" data-name="Icon ionic-ios-checkmark" d="M21.586,13.211l-.916-.942a.2.2,0,0,0-.146-.062h0a.189.189,0,0,0-.146.062l-6.352,6.4-2.312-2.312a.2.2,0,0,0-.292,0l-.927.927a.207.207,0,0,0,0,.3l2.916,2.916a.922.922,0,0,0,.609.3.966.966,0,0,0,.6-.286h.005l6.961-7A.223.223,0,0,0,21.586,13.211Z" transform="translate(-3.434 -4.206)" fill="#fff"/>
</svg>
