<svg xmlns="http://www.w3.org/2000/svg" width="42" height="42" viewBox="0 0 42 42">
  <g id="Group_7996" data-name="Group 7996" transform="translate(-0.5)">
    <rect id="Rectangle_Copy_7" data-name="Rectangle Copy 7" width="42" height="42" rx="21" transform="translate(0.5)" fill="#e5e5e5"/>
    <g id="delivery-guy" transform="translate(11.247 8.877)" opacity="0.5">
      <g id="Group_6999" data-name="Group 6999">
        <path id="Path_499" data-name="Path 499" d="M197.047,176.808a1.256,1.256,0,0,0,.894-.37.469.469,0,0,0-.663-.663.326.326,0,0,1-.461,0,.469.469,0,0,0-.663.663A1.256,1.256,0,0,0,197.047,176.808Zm0,0" transform="translate(-186.822 -167.399)"/>
        <g id="Group_6998" data-name="Group 6998">
          <path id="Path_500" data-name="Path 500" d="M96.335,443.918H92.5a.5.5,0,0,0,0,1.007h3.831a.5.5,0,1,0,0-1.007Zm0,0" transform="translate(-88.117 -422.453)"/>
          <path id="Path_501" data-name="Path 501" d="M20.534,20.846V16.066a.509.509,0,0,0-.006-.074,3.557,3.557,0,0,0-2.79-3.282L13.57,11.8v-.448a4.487,4.487,0,0,0,1.891-3.659v-3.2a4.489,4.489,0,0,0-8.979,0v3.2a4.487,4.487,0,0,0,1.891,3.659V11.8l-4.168.914a3.557,3.557,0,0,0-2.79,3.282.509.509,0,0,0-.006.074v4.78A2.079,2.079,0,0,0,0,22.811v.881a2.079,2.079,0,0,0,1.758,2.052.5.5,0,0,0,.154.024H20.031a.5.5,0,0,0,.154-.024,2.079,2.079,0,0,0,1.758-2.052v-.881a2.08,2.08,0,0,0-1.409-1.966Zm-2.362,3.916H3.771a1.389,1.389,0,0,0,.054-.382V22.123a1.39,1.39,0,0,0-1.388-1.388H2.416V16.57H8.053v3.567a.5.5,0,0,0,.859.356l.852-.852.852.852a.5.5,0,0,0,.712,0l.852-.852.852.852a.5.5,0,0,0,.859-.356V16.57h5.637v4.166h-.021a1.39,1.39,0,0,0-1.388,1.388V24.38a1.389,1.389,0,0,0,.054.382ZM9.4,11.94a.5.5,0,0,0-.016-.048v-.006a4.489,4.489,0,0,0,3.184,0v.241l-.97,3.435H10.408Zm7.366,1.587v2.036H12.639l.782-2.769ZM12.884,16.57v2.352l-.349-.349a.5.5,0,0,0-.712,0l-.852.852-.852-.852a.5.5,0,0,0-.712,0l-.349.349V16.57Zm6.564-1.007h-1.68v-1.8A2.576,2.576,0,0,1,19.449,15.563ZM10.972,1.006a3.487,3.487,0,0,1,3.469,3.176H7.5a3.487,3.487,0,0,1,3.469-3.176Zm3.374,4.182a1.219,1.219,0,0,1-1.108.714H8.706A1.219,1.219,0,0,1,7.6,5.189Zm-6.856,2.5V6.545a2.21,2.21,0,0,0,1.217.364h4.531a2.21,2.21,0,0,0,1.217-.364V7.689a3.483,3.483,0,0,1-6.965,0Zm1.1,5.091.777,2.783H5.182V13.527Zm-4.41.981v1.8H2.495A2.576,2.576,0,0,1,4.175,13.761Zm-2.1,11a1.071,1.071,0,0,1-1.069-1.069v-.881a1.071,1.071,0,0,1,1.069-1.069h.361a.382.382,0,0,1,.382.382V24.38a.382.382,0,0,1-.382.382Zm18.861-1.069a1.071,1.071,0,0,1-1.069,1.069h-.361a.382.382,0,0,1-.382-.382V22.123a.382.382,0,0,1,.382-.382h.361a1.071,1.071,0,0,1,1.069,1.069Zm0,0" transform="translate(-0.747 -0.877)"/>
          <path id="Path_502" data-name="Path 502" d="M208.5,443.922a.5.5,0,1,0,.356.147A.5.5,0,0,0,208.5,443.922Zm0,0" transform="translate(-198.278 -422.457)"/>
        </g>
      </g>
    </g>
  </g>
</svg>
