<svg xmlns="http://www.w3.org/2000/svg" width="158.152" height="158.152" viewBox="0 0 158.152 158.152">
  <g id="empty_shopping_cart" data-name="empty shopping cart" transform="translate(-79.578 -38.695)">
    <circle id="Ellipse_247" data-name="Ellipse 247" cx="79.076" cy="79.076" r="79.076" transform="translate(79.578 38.695)" fill="#784da8" opacity="0.07"/>
    <g id="box" transform="translate(108.577 70.696)">
      <path id="Path_494" data-name="Path 494" d="M88.218,33.461,98.685,22.994a1.939,1.939,0,0,0-.438-3.07l-12.584-6.91a1.938,1.938,0,0,0-1.866,3.4l10.32,5.666-8.983,8.982L52.825,13.32l8.982-8.982,9.08,4.986a1.938,1.938,0,1,0,1.866-3.4L62.4.239a1.938,1.938,0,0,0-2.3.329L49.627,11.036,39.159.568a1.939,1.939,0,0,0-2.3-.329L1.006,19.924a1.939,1.939,0,0,0-.438,3.07L11.035,33.461.568,43.928A1.939,1.939,0,0,0,1.006,47l10.833,5.949V72.83a1.939,1.939,0,0,0,1.006,1.7L48.694,94.215a1.938,1.938,0,0,0,1.866,0L86.409,74.53a1.939,1.939,0,0,0,1.006-1.7V52.947L98.248,47a1.939,1.939,0,0,0,.438-3.07ZM49.627,50.934,17.805,33.46,49.627,15.986,81.448,33.46Zm-12.18-46.6,8.982,8.982L14.119,31.062,5.137,22.079ZM14.12,35.86,46.43,53.6l-8.983,8.983L5.137,44.843ZM83.538,71.684,51.565,89.24V69.423a1.939,1.939,0,1,0-3.877,0V89.24L15.716,71.684V55.076L36.855,66.684a1.938,1.938,0,0,0,2.3-.329L49.627,55.887,60.095,66.355a1.938,1.938,0,0,0,2.3.329L83.537,55.076Zm-21.73-9.1L52.825,53.6,85.134,35.86l8.984,8.982Zm0,0" transform="translate(0 0)" fill="#8b8b8b"/>
      <path id="Path_495" data-name="Path 495" d="M396.74,52.053a1.94,1.94,0,1,0-1.371-.569A1.956,1.956,0,0,0,396.74,52.053Zm0,0" transform="translate(-318.267 -38.837)" fill="#8b8b8b"/>
      <path id="Path_496" data-name="Path 496" d="M247.939,314.926a1.939,1.939,0,1,0,1.371.568A1.951,1.951,0,0,0,247.939,314.926Zm0,0" transform="translate(-198.312 -253.877)" fill="#8b8b8b"/>
    </g>
  </g>
</svg>
