<svg xmlns="http://www.w3.org/2000/svg" width="14.564" height="18.164" viewBox="0 0 14.564 18.164">
  <path id="ic-account" d="M357.49,48.5a1.179,1.179,0,0,1,.809,0,1.058,1.058,0,0,1,.341.2.9.9,0,0,1,.225.3.805.805,0,0,1-.02.707.925.925,0,0,1-.241.293,1.086,1.086,0,0,1-.353.188,3.681,3.681,0,0,0-1.713,1.2,2.97,2.97,0,0,0-.646,1.829v1.58a.854.854,0,0,0,.305.642,1.122,1.122,0,0,0,.736.266h8.322a1.12,1.12,0,0,0,.736-.266.854.854,0,0,0,.305-.642V53.3a3.038,3.038,0,0,0-.672-1.886,3.771,3.771,0,0,0-1.779-1.22,1.082,1.082,0,0,1-.356-.184.915.915,0,0,1-.245-.29.8.8,0,0,1-.03-.707.909.909,0,0,1,.222-.305,1.053,1.053,0,0,1,.34-.206,1.182,1.182,0,0,1,.811,0,5.833,5.833,0,0,1,2.751,1.886,4.694,4.694,0,0,1,1.04,2.916v1.5a2.561,2.561,0,0,1-.915,1.927,3.364,3.364,0,0,1-2.207.8h-8.322a3.367,3.367,0,0,1-2.207-.8,2.563,2.563,0,0,1-.914-1.927v-1.58a4.628,4.628,0,0,1,1.006-2.851A5.733,5.733,0,0,1,357.49,48.5Zm3.606-9.146a4.489,4.489,0,0,1,2.943,1.064,3.416,3.416,0,0,1,1.218,2.569V44.8a3.416,3.416,0,0,1-1.218,2.569,4.6,4.6,0,0,1-5.885,0,3.417,3.417,0,0,1-1.219-2.569V42.985a3.417,3.417,0,0,1,1.219-2.569A4.487,4.487,0,0,1,361.1,39.352Zm0,1.816a2.242,2.242,0,0,0-1.471.532,1.707,1.707,0,0,0-.609,1.284V44.8a1.707,1.707,0,0,0,.609,1.284,2.3,2.3,0,0,0,2.943,0,1.71,1.71,0,0,0,.609-1.284V42.985a1.71,1.71,0,0,0-.609-1.284A2.245,2.245,0,0,0,361.1,41.168Z" transform="translate(-353.814 -39.352)" fill="#fff"/>
</svg>
