<svg xmlns="http://www.w3.org/2000/svg" width="23" height="23" viewBox="0 0 23 23">
  <g id="ic-credit-card-payment" transform="translate(0 0)">
    <path id="Path_476" data-name="Path 476" d="M22.409,7.472,15.528.591a2.024,2.024,0,0,0-2.859,0L4.034,9.226H2.022A2.024,2.024,0,0,0,0,11.247v9.731A2.024,2.024,0,0,0,2.022,23H17.5a2.024,2.024,0,0,0,2.022-2.022V13.215l2.884-2.884a2.024,2.024,0,0,0,0-2.859ZM13.622,1.544a.675.675,0,0,1,.953,0L18.12,5.09,13.985,9.226H5.94Zm4.555,19.434a.675.675,0,0,1-.674.674H2.022a.675.675,0,0,1-.674-.674V11.247a.675.675,0,0,1,.674-.674H17.5a.675.675,0,0,1,.674.674Zm-.4-11.734a2.03,2.03,0,0,0-.274-.019H15.891l3.183-3.183L20.026,7Zm3.678.133-1.931,1.931v-.062a2.013,2.013,0,0,0-.507-1.337l1.962-1.962.476.476a.675.675,0,0,1,0,.953Z" fill="#7146a2"/>
    <path id="Path_477" data-name="Path 477" d="M60,406.574h2.614v1.4H60Z" transform="translate(-57.19 -388.51)" fill="#7146a2"/>
    <path id="Path_478" data-name="Path 478" d="M146.267,406.574h2.614v1.4h-2.614Z" transform="translate(-139.73 -388.51)" fill="#7146a2"/>
    <path id="Path_479" data-name="Path 479" d="M232.534,406.574h2.614v1.4h-2.614Z" transform="translate(-222.142 -388.51)" fill="#7146a2"/>
    <path id="Path_480" data-name="Path 480" d="M318.8,406.574h2.614v1.4H318.8Z" transform="translate(-304.554 -388.51)" fill="#7146a2"/>
    <path id="Path_481" data-name="Path 481" d="M64.743,280.766H60v4.215h4.743Zm-1.405,2.81H61.405v-1.405h1.933Z" transform="translate(-57.19 -268.267)" fill="#7146a2"/>
  </g>
</svg>
