<svg xmlns="http://www.w3.org/2000/svg" width="19.953" height="17.767" viewBox="0 0 19.953 17.767">
  <path id="ic-cart" d="M190.4,57.556a2.221,2.221,0,1,1,1.57-.65A2.219,2.219,0,0,1,190.4,57.556Zm7.772,0a2.221,2.221,0,1,1,1.571-.65A2.222,2.222,0,0,1,198.168,57.556ZM183.691,41.924a1.068,1.068,0,0,1,0-2.135h1.278a2.137,2.137,0,0,1,2.086,1.672l1.391,6.265a2.135,2.135,0,0,0,2.085,1.672h8.342l1.6-6.407H190.1a1.068,1.068,0,0,1,0-2.134h10.377a2.134,2.134,0,0,1,2.072,2.654l-1.6,6.405a2.135,2.135,0,0,1-2.072,1.618h-8.342a4.271,4.271,0,0,1-4.17-3.345l-1.393-6.265Z" transform="translate(-182.657 -39.789)" fill="#fff"/>
</svg>
