<svg xmlns="http://www.w3.org/2000/svg" width="20.686" height="20.691" viewBox="0 0 20.686 20.691">
  <g id="ic-COD" transform="translate(0.247 0.661)">
    <g id="Group_6946" data-name="Group 6946" transform="translate(0.003 -0.407)">
      <g id="Group_6945" data-name="Group 6945">
        <path id="Path_482" data-name="Path 482" d="M19.271,10.178V7.341a1.831,1.831,0,0,0-1.689-1.82L14.948.918A1.816,1.816,0,0,0,12.457.247L3.424,5.506H1.838A1.837,1.837,0,0,0,0,7.341v11.01a1.837,1.837,0,0,0,1.835,1.835h15.6a1.837,1.837,0,0,0,1.835-1.835V15.514a1.374,1.374,0,0,0,.918-1.292V11.47A1.374,1.374,0,0,0,19.271,10.178ZM16.516,5.506h-4l3-1.746ZM15.061,2.963,10.694,5.506H8.883l5.725-3.333ZM12.918,1.04A.887.887,0,0,1,13.6.948a.9.9,0,0,1,.551.426v0L7.059,5.506H5.248Zm5.435,17.311a.919.919,0,0,1-.918.918H1.838a.919.919,0,0,1-.918-.918V7.341a.919.919,0,0,1,.918-.918h15.6a.919.919,0,0,1,.918.918v2.753H15.6a2.753,2.753,0,1,0,0,5.505h2.753v2.753Zm.918-4.129a.459.459,0,0,1-.459.459H15.6a1.835,1.835,0,0,1,0-3.67h3.211a.459.459,0,0,1,.459.459Z" transform="translate(-0.003 0)" fill="#7146a2" stroke="#7146a2" stroke-width="0.5"/>
        <path id="Path_483" data-name="Path 483" d="M341.755,277.341a.418.418,0,1,0,.418.418A.419.419,0,0,0,341.755,277.341Z" transform="translate(-325.857 -264.763)" fill="#7146a2" stroke="#7146a2" stroke-width="0.5"/>
      </g>
    </g>
  </g>
</svg>
