<svg xmlns="http://www.w3.org/2000/svg" width="13.197" height="12.182" viewBox="0 0 13.197 12.182">
  <path id="ic-hightlight" d="M12.943,4.5A3.9,3.9,0,0,0,9.973,5.893,3.9,3.9,0,0,0,7,4.5,3.588,3.588,0,0,0,3.375,8.151c0,2.522,2.243,4.546,5.64,7.667l.958.863.958-.863c3.4-3.122,5.64-5.145,5.64-7.667A3.588,3.588,0,0,0,12.943,4.5ZM10.379,14.946l-.133.124-.273.247L9.7,15.07l-.133-.124a40.321,40.321,0,0,1-3.892-3.87A4.654,4.654,0,0,1,4.393,8.151,2.639,2.639,0,0,1,5.145,6.27,2.582,2.582,0,0,1,7,5.515,2.909,2.909,0,0,1,9.2,6.546l.777.923.777-.923a2.9,2.9,0,0,1,2.192-1.031A2.594,2.594,0,0,1,14.8,6.27a2.644,2.644,0,0,1,.752,1.881,4.679,4.679,0,0,1-1.282,2.925A40.4,40.4,0,0,1,10.379,14.946Z" transform="translate(-3.375 -4.5)" fill="#7146a2"/>
</svg>
