<svg id="ic-home" xmlns="http://www.w3.org/2000/svg" width="17.768" height="17.768" viewBox="0 0 17.768 17.768">
  <path id="Path_340" data-name="Path 340" d="M16.525,6.6,8.459-.728,8.382-.8a.74.74,0,0,0-.173-.117l-.008,0a.741.741,0,0,0-.634,0l-.008,0A.74.74,0,0,0,7.386-.8L7.31-.729-.758,6.6a.74.74,0,0,0-.05,1.046A.74.74,0,0,0,.238,7.7L.48,7.48v8.556a.74.74,0,0,0,.74.74H14.547a.74.74,0,0,0,.74-.74V7.48l.242.22a.74.74,0,1,0,1-1.1ZM6.4,15.3V10.854a1.481,1.481,0,0,1,2.961,0V15.3Zm7.4,0H10.845V10.854a2.961,2.961,0,1,0-5.923,0V15.3H1.961V6.134L7.884.75l5.923,5.384Z" transform="translate(1 0.99)" fill="#fff"/>
</svg>
