<svg xmlns="http://www.w3.org/2000/svg" width="17.255" height="21.328" viewBox="0 0 17.255 21.328">
  <g id="ic-location" transform="translate(-48.886)">
    <g id="Group_6835" data-name="Group 6835" transform="translate(48.886)">
      <g id="Group_6834" data-name="Group 6834">
        <path id="Path_343" data-name="Path 343" d="M64.593,3.708a8.611,8.611,0,0,0-14.158,0,8.613,8.613,0,0,0-1,7.935,6.783,6.783,0,0,0,1.25,2.064l6.264,7.358a.745.745,0,0,0,1.135,0l6.262-7.356a6.789,6.789,0,0,0,1.25-2.061A8.614,8.614,0,0,0,64.593,3.708Zm-.4,7.418a5.32,5.32,0,0,1-.984,1.611l0,0-5.7,6.691-5.7-6.695a5.323,5.323,0,0,1-.985-1.616,7.124,7.124,0,0,1,.833-6.565,7.12,7.12,0,0,1,11.7,0A7.125,7.125,0,0,1,64.2,11.126Z" transform="translate(-48.886)" fill="#7146a2"/>
      </g>
    </g>
    <g id="Group_6837" data-name="Group 6837" transform="translate(53.337 4.425)">
      <g id="Group_6836" data-name="Group 6836">
        <path id="Path_344" data-name="Path 344" d="M159.93,106.219a4.176,4.176,0,1,0,4.176,4.176A4.181,4.181,0,0,0,159.93,106.219Zm0,6.861a2.685,2.685,0,1,1,2.685-2.685A2.688,2.688,0,0,1,159.93,113.08Z" transform="translate(-155.754 -106.219)" fill="#7146a2"/>
      </g>
    </g>
  </g>
</svg>
