<svg xmlns="http://www.w3.org/2000/svg" width="11.326" height="14" viewBox="0 0 11.326 14">
  <g id="ic-manage_add." data-name="ic-manage add." transform="translate(-48.886)">
    <g id="Group_6835" data-name="Group 6835" transform="translate(48.886)">
      <g id="Group_6834" data-name="Group 6834">
        <path id="Path_343" data-name="Path 343" d="M59.2,2.434a5.653,5.653,0,0,0-9.294,0,5.654,5.654,0,0,0-.658,5.209A4.452,4.452,0,0,0,50.065,9l4.112,4.83a.489.489,0,0,0,.745,0L59.033,9a4.457,4.457,0,0,0,.82-1.353A5.655,5.655,0,0,0,59.2,2.434ZM58.936,7.3a3.492,3.492,0,0,1-.646,1.058l0,0-3.739,4.392L50.808,8.361A3.494,3.494,0,0,1,50.161,7.3a4.676,4.676,0,0,1,.547-4.309,4.674,4.674,0,0,1,7.683,0A4.677,4.677,0,0,1,58.936,7.3Z" transform="translate(-48.886)" fill="#784da8"/>
      </g>
    </g>
    <g id="Group_6837" data-name="Group 6837" transform="translate(51.808 2.904)">
      <g id="Group_6836" data-name="Group 6836">
        <path id="Path_344" data-name="Path 344" d="M158.5,106.219a2.741,2.741,0,1,0,2.741,2.741A2.744,2.744,0,0,0,158.5,106.219Zm0,4.5a1.762,1.762,0,1,1,1.762-1.762A1.764,1.764,0,0,1,158.5,110.722Z" transform="translate(-155.754 -106.219)" fill="#784da8"/>
      </g>
    </g>
  </g>
</svg>
