<svg xmlns="http://www.w3.org/2000/svg" width="11.64" height="11.33" viewBox="0 0 11.64 11.33">
  <path id="ic-my_favorites" data-name="ic-my favorites" d="M11.669,4.5A3.321,3.321,0,0,0,9.095,5.768,3.321,3.321,0,0,0,6.521,4.5,3.192,3.192,0,0,0,3.375,7.825c0,2.3,1.944,4.139,4.889,6.982l.83.786.83-.786c2.945-2.842,4.889-4.685,4.889-6.982A3.192,3.192,0,0,0,11.669,4.5ZM9.447,14.012l-.115.113-.236.225-.236-.225-.115-.113a35.886,35.886,0,0,1-3.374-3.524A4.349,4.349,0,0,1,4.258,7.825a2.468,2.468,0,0,1,.652-1.713,2.184,2.184,0,0,1,1.611-.688,2.476,2.476,0,0,1,1.9.939l.674.841.674-.841a2.466,2.466,0,0,1,1.9-.939,2.194,2.194,0,0,1,1.614.688,2.473,2.473,0,0,1,.652,1.713,4.372,4.372,0,0,1-1.111,2.663A35.956,35.956,0,0,1,9.447,14.012Z" transform="translate(-3.275 -4.4)" fill="#784da8" stroke="#784da8" stroke-width="0.2"/>
</svg>
