<svg xmlns="http://www.w3.org/2000/svg" width="13.189" height="16.634" viewBox="0 0 13.189 16.634">
  <g id="ic-my_orders" data-name="ic-my orders" transform="translate(-53.02)">
    <g id="Group_7022" data-name="Group 7022" transform="translate(53.02)">
      <g id="Group_7021" data-name="Group 7021" transform="translate(0)">
        <path id="Path_520" data-name="Path 520" d="M66.2,13.717l-.743-9.36A1.17,1.17,0,0,0,64.3,3.281H62.83V3.215a3.215,3.215,0,1,0-6.431,0v.066H54.932a1.17,1.17,0,0,0-1.161,1.074l-.743,9.363a2.708,2.708,0,0,0,2.7,2.916H63.5a2.708,2.708,0,0,0,2.7-2.917Zm-8.827-10.5a2.241,2.241,0,0,1,4.482,0v.066H57.374Zm7.4,11.888a1.716,1.716,0,0,1-1.272.556H55.728A1.734,1.734,0,0,1,54,13.794l.743-9.363a.191.191,0,0,1,.19-.176H56.4v1.2a.487.487,0,0,0,.974,0v-1.2h4.482v1.2a.487.487,0,1,0,.974,0v-1.2H64.3a.191.191,0,0,1,.19.177l.743,9.36A1.716,1.716,0,0,1,64.773,15.1Z" transform="translate(-53.02)" fill="#784da8"/>
      </g>
    </g>
    <g id="Group_7024" data-name="Group 7024" transform="translate(57.277 8.118)">
      <g id="Group_7023" data-name="Group 7023" transform="translate(0)">
        <path id="Path_521" data-name="Path 521" d="M188.584,250.036a.487.487,0,0,0-.689,0l-2.175,2.175-.836-.836a.487.487,0,0,0-.689.689l1.181,1.181a.487.487,0,0,0,.689,0l2.52-2.52A.487.487,0,0,0,188.584,250.036Z" transform="translate(-184.052 -249.893)" fill="#784da8"/>
      </g>
    </g>
  </g>
</svg>
