<svg xmlns="http://www.w3.org/2000/svg" width="106" height="106" viewBox="0 0 106 106">
  <g id="ic-no_result_found" data-name="ic-no result found" transform="translate(-135 -230)">
    <circle id="Ellipse_3" data-name="Ellipse 3" cx="53" cy="53" r="53" transform="translate(135 230)" fill="#784da8" opacity="0.07"/>
    <g id="Group_6906" data-name="Group 6906" transform="translate(-0.882 -2.43)">
      <path id="Path_418" data-name="Path 418" d="M6.952,6.952a23.739,23.739,0,0,1,36.4,30.157l11.6,11.542a4.378,4.378,0,0,1-6.189,6.2l-11.6-11.536A23.738,23.738,0,0,1,6.952,6.952ZM51.091,52.514a1.084,1.084,0,0,0,1.85-.766,1.074,1.074,0,0,0-.314-.763L41.293,39.709q-.376.413-.773.811-.372.372-.757.724ZM9.282,38.19a20.441,20.441,0,1,0,0-28.908A20.464,20.464,0,0,0,9.282,38.19Zm0,0" transform="translate(160.882 257.43)" fill="#8b8b8b" stroke="#8b8b8b" stroke-width="0.5"/>
      <path id="Path_419" data-name="Path 419" d="M136.592,56.724a18.088,18.088,0,1,1-5.3,12.79A17.968,17.968,0,0,1,136.592,56.724Zm2.329,23.25a14.793,14.793,0,1,0-4.332-10.46A14.81,14.81,0,0,0,138.921,79.974Zm0,0" transform="translate(35.237 211.652)" fill="#8b8b8b" stroke="#8b8b8b" stroke-width="0.5"/>
      <path id="Path_420" data-name="Path 420" d="M282.546,150.785a1.647,1.647,0,0,1,1.647,1.647V158.9a1.647,1.647,0,0,1-3.295,0v-6.469A1.647,1.647,0,0,1,282.546,150.785Zm0,0" transform="translate(-97.927 123.207)" fill="#8b8b8b" stroke="#8b8b8b" stroke-width="0.5"/>
      <path id="Path_421" data-name="Path 421" d="M280.927,256.75c.011-.053.024-.106.04-.157a1.794,1.794,0,0,1,.123-.3c.025-.047.054-.093.083-.139a1.467,1.467,0,0,1,.1-.13,1.357,1.357,0,0,1,.109-.121,1.478,1.478,0,0,1,.121-.109,1.542,1.542,0,0,1,.129-.1c.045-.03.091-.058.139-.083a1.487,1.487,0,0,1,.146-.068c.049-.021.1-.039.151-.055s.1-.028.157-.039a1.622,1.622,0,0,1,.483-.024,1.529,1.529,0,0,1,.16.024c.053.011.106.024.156.039s.1.034.153.055a1.47,1.47,0,0,1,.145.068c.047.025.094.054.138.083s.089.062.131.1a1.465,1.465,0,0,1,.12.109,1.361,1.361,0,0,1,.109.121,1.4,1.4,0,0,1,.1.13,1.562,1.562,0,0,1,.082.139c.025.047.049.1.07.146s.038.1.054.152a1.248,1.248,0,0,1,.04.157,1.557,1.557,0,0,1,.024.159c.005.054.009.109.009.163s0,.107-.009.161a1.525,1.525,0,0,1-.024.16,1.187,1.187,0,0,1-.04.156c-.015.052-.034.1-.054.152s-.044.1-.07.146a1.378,1.378,0,0,1-.082.138,1.488,1.488,0,0,1-.1.131,1.426,1.426,0,0,1-.109.12,1.45,1.45,0,0,1-.12.109c-.042.034-.086.066-.131.1a1.579,1.579,0,0,1-.138.082c-.047.025-.1.048-.146.069a1.436,1.436,0,0,1-.151.054,1.176,1.176,0,0,1-.156.039,1.522,1.522,0,0,1-.16.024,1.534,1.534,0,0,1-.324,0,1.561,1.561,0,0,1-.16-.024,1.3,1.3,0,0,1-.157-.039c-.05-.015-.1-.033-.151-.054s-.1-.044-.146-.069-.094-.053-.139-.082a1.739,1.739,0,0,1-.251-.206,1.42,1.42,0,0,1-.109-.12,1.823,1.823,0,0,1-.179-.269,1.336,1.336,0,0,1-.068-.146,1.422,1.422,0,0,1-.055-.152c-.015-.05-.028-.1-.04-.156a1.465,1.465,0,0,1-.024-.16,1.559,1.559,0,0,1-.008-.161,1.582,1.582,0,0,1,.008-.163A1.475,1.475,0,0,1,280.927,256.75Zm0,0" transform="translate(-97.924 30.061)" fill="#8b8b8b" stroke="#8b8b8b" stroke-width="0.5"/>
    </g>
  </g>
</svg>
