<svg xmlns="http://www.w3.org/2000/svg" width="24.387" height="24.387" viewBox="0 0 24.387 24.387">
  <g id="ic-out_of_delivery" data-name="ic-out of delivery" transform="translate(-16 -16)">
    <path id="Path_503" data-name="Path 503" d="M34.487,29.842l.823.494a2.075,2.075,0,0,0,2.629-.413l2.347-2.682a.406.406,0,0,0,.08-.4l-.406-1.219a.406.406,0,0,0-.386-.278H38.354a.406.406,0,0,0-.406.406v.618l-1.642,1.314-.564-.395-.321-.225a9.884,9.884,0,0,0,.088-1.312,9.783,9.783,0,0,0-.308-2.439h.714a.406.406,0,1,0,0-.813H35.5a1.833,1.833,0,0,0-1.242-1.532A9.755,9.755,0,1,0,23.473,35.24l-.534,1.337a.406.406,0,0,0,.249.537l1.219.406a.406.406,0,0,0,.416-.1l.681-.681,4.363.336q.1.007.192.007a2.554,2.554,0,0,0,1.411-.426l.024-.016a2.524,2.524,0,0,0,.978-1.246l.348-.956,2.343,1.339.752,2.631V39.98a.406.406,0,0,0,.406.406h2.845a.406.406,0,0,0,.406-.419l-.039-1.219a.406.406,0,0,0-.274-.371l-.932-.321-.313-3.438a1.937,1.937,0,0,0-.929-1.481l-3.164-1.9.263-1.577Zm2.089-1.332,2.032-1.626a.406.406,0,0,0,.152-.317v-.406h.52l.24.721-2.193,2.506a1.262,1.262,0,0,1-1.6.251l-.517-.31.472-1.086.405.284A.406.406,0,0,0,36.576,28.511ZM34.29,26.275V25.3a1.154,1.154,0,0,0,.382-.2c.016.22.025.441.025.663,0,.26-.012.521-.034.781Zm-2.032,7.334V31.851H32.9ZM27.38,30.226h.358l.406.813H27.38Zm.654-2.517.115-.115.883,1.177.388,1.942a.407.407,0,0,0,.111.208l.525.525-.318.318-.43-.215-1.433-2.866a.848.848,0,0,1-.089-.377A.838.838,0,0,1,28.034,27.708Zm-.247,6.582V31.851h.765l.091.182a.406.406,0,0,0,.182.182l.813.406a.406.406,0,0,0,.469-.076l.694-.694h.645V34.29Zm4.064-3.252H30.8l-.607-.607-.041-.206h1.7ZM30.018,29.27l-.033.117-.12-.6.3-.2A5.4,5.4,0,0,1,30.018,29.27Zm-2.559-2.136a1.646,1.646,0,0,0-.485,1.171,1.665,1.665,0,0,0,.175.741l.184.367h-.054a.712.712,0,0,0-.711.711v1.321a.406.406,0,0,0,.406.406v1.118a7.371,7.371,0,0,1-.813.09v-.4a.406.406,0,0,0-.813,0v.395A7.287,7.287,0,0,1,20.88,31.2l.277-.277a.406.406,0,1,0-.575-.575l-.277.277a7.287,7.287,0,0,1-1.855-4.469h.395a.406.406,0,1,0,0-.813H18.45A7.287,7.287,0,0,1,20.3,20.88l.277.277a.406.406,0,1,0,.575-.575l-.277-.277a7.287,7.287,0,0,1,4.469-1.855v.395a.406.406,0,1,0,.813,0v-.394a7.334,7.334,0,0,1,4.47,1.853l-.278.278a.406.406,0,1,0,.575.575l.278-.278a7.3,7.3,0,0,1,.8,1.083,1.818,1.818,0,0,0-.16.746v2.235H30.324a1.615,1.615,0,0,0-1.15.476Zm5.205-3.817H34.29v.876a.344.344,0,0,1-.343.343h-.063a.406.406,0,0,0-.406.406v.764l-.813-.569Zm2.012-.813H32.685a1.016,1.016,0,0,1,1.992,0ZM18.864,31.454A8.942,8.942,0,1,1,33.279,20.922a1.822,1.822,0,0,0-.738.356,8.126,8.126,0,1,0-5.567,12.515v.5H25.807l-1.42-.373a.406.406,0,0,0-.481.242l-.127.318A8.969,8.969,0,0,1,18.864,31.454Zm5.561,5.216-.572-.191.674-1.685.735.193-.282,1.127Zm6.618-.7-.024.016a1.736,1.736,0,0,1-1.091.285l-4.07-.313.213-.851,5.637.016a1.716,1.716,0,0,1-.665.847Zm7.7,3.608H36.729v-.813H37.88l.851.293Zm-1.541-4.882.3,3.257h-.874L35.9,35.4a.406.406,0,0,0-.189-.241L33.1,33.666l.589-1.619,2.978,1.787a1.122,1.122,0,0,1,.538.858Zm-3.494-6.054a.406.406,0,0,0-.231.3l-.35,2.1h-.469v-.914a.712.712,0,0,0-.711-.711H30.821a6.208,6.208,0,0,0,.217-1.626.406.406,0,0,0-.632-.338l-.9.6-.777-1.036,1.019-1.019a.808.808,0,0,1,.575-.238H32.13L35,27.767l-.5,1.141-.416-.249A.406.406,0,0,0,33.713,28.637Z"/>
    <path id="Path_504" data-name="Path 504" d="M155.253,100.541V96.406a.406.406,0,1,0-.813,0v4.134a1.219,1.219,0,0,0-.694,1.675l-1.626,1.626a.406.406,0,1,0,.575.575l1.626-1.626a1.219,1.219,0,1,0,.932-2.25Zm-.406,1.556a.406.406,0,1,1,.406-.406A.406.406,0,0,1,154.847,102.1Z" transform="translate(-129.092 -75.936)"/>
  </g>
</svg>
