<svg xmlns="http://www.w3.org/2000/svg" width="12.889" height="12.889" viewBox="0 0 12.889 12.889">
  <g id="ic-pencil" transform="translate(0 0)">
    <g id="Group_7008" data-name="Group 7008" transform="translate(0 0)">
      <path id="Path_510" data-name="Path 510" d="M12.488,1.568,11.32.4A1.37,1.37,0,0,0,9.385.4L.695,9.091a.385.385,0,0,0-.1.2L.006,12.443a.378.378,0,0,0,.44.44L3.6,12.3a.385.385,0,0,0,.2-.1l8.69-8.69A1.368,1.368,0,0,0,12.488,1.568ZM.849,12.04,1.2,10.133l1.554,1.555Zm2.682-.647L1.5,9.358,8.927,1.926l2.036,2.036ZM11.954,2.97l-.457.457L9.461,1.392,9.918.934a.614.614,0,0,1,.868,0L11.954,2.1A.613.613,0,0,1,11.954,2.97Z" transform="translate(0 0)" fill="#fff"/>
    </g>
  </g>
</svg>
