<svg xmlns="http://www.w3.org/2000/svg" width="23.518" height="21.503" viewBox="0 0 23.518 21.503">
  <g id="ic-discount-voucher" transform="translate(0.303 -21.117)">
    <g id="Group_6915" data-name="Group 6915" transform="translate(0 21.321)">
      <g id="Group_6914" data-name="Group 6914">
        <path id="Path_424" data-name="Path 424" d="M22.536,32.829a.479.479,0,0,0,.48-.48v-2.4A1.92,1.92,0,0,0,21.1,28.034H17.488a2.321,2.321,0,0,1-.227-.959,2.393,2.393,0,0,1,1.258-2.095.481.481,0,0,0,.186-.659l-1.168-2.041a1.9,1.9,0,0,0-2.6-.7L.95,29.72a1.925,1.925,0,0,0-.7,2.615l1.208,2.112a.48.48,0,0,0,.664.173,2.356,2.356,0,0,1,1.23-.352,2.387,2.387,0,0,1,2.272,1.687,2.393,2.393,0,0,1-2.272,1.669.479.479,0,0,0-.48.48v2.4a1.92,1.92,0,0,0,1.918,1.918H21.1A1.92,1.92,0,0,0,23.015,40.5V38.1a.479.479,0,0,0-.48-.48,2.4,2.4,0,0,1,0-4.795ZM15.416,22.408a.926.926,0,0,1,.712-.1.94.94,0,0,1,.576.445l.943,1.646A3.343,3.343,0,0,0,16.3,27.075a3.3,3.3,0,0,0,.148.959H5.752Zm-12.06,10.9a3.291,3.291,0,0,0-1.288.266l-.981-1.716a.964.964,0,0,1,.346-1.31l1.47-.856a1.9,1.9,0,0,0-.026.259v2.4a.479.479,0,0,0,.48.48,2.39,2.39,0,0,1,2.063,1.2A3.33,3.33,0,0,0,3.356,33.309Zm15.823,1.918a3.362,3.362,0,0,0,2.877,3.322V40.5a.96.96,0,0,1-.959.959H9.589v-.839a.48.48,0,1,0-.959,0v.839H4.794a.96.96,0,0,1-.959-.959V38.549a3.357,3.357,0,0,0,0-6.645V29.952a.96.96,0,0,1,.959-.959H8.63v1.079a.48.48,0,0,0,.959,0V28.993H21.1a.96.96,0,0,1,.959.959V31.9A3.362,3.362,0,0,0,19.179,35.227Z" transform="translate(0 -21.321)" fill="#7146a2" stroke="#7146a2" stroke-width="0.4"/>
        <path id="Path_425" data-name="Path 425" d="M192.463,269.329a.479.479,0,0,0-.48.479v.959a.48.48,0,0,0,.959,0v-.959A.479.479,0,0,0,192.463,269.329Z" transform="translate(-183.353 -258.18)" fill="#7146a2" stroke="#7146a2" stroke-width="0.4"/>
        <path id="Path_426" data-name="Path 426" d="M192.463,354.662a.479.479,0,0,0-.48.479v.959a.48.48,0,1,0,.959,0v-.959A.479.479,0,0,0,192.463,354.662Z" transform="translate(-183.353 -339.677)" fill="#7146a2" stroke="#7146a2" stroke-width="0.4"/>
        <path id="Path_427" data-name="Path 427" d="M262.5,234.772a.48.48,0,0,0-.671.1l-5.754,7.672a.479.479,0,1,0,.767.575l5.754-7.672A.479.479,0,0,0,262.5,234.772Z" transform="translate(-244.474 -225.086)" fill="#7146a2" stroke="#7146a2" stroke-width="0.4"/>
        <path id="Path_428" data-name="Path 428" d="M257.422,238.5c.807,0,1.438-.842,1.438-1.918s-.632-1.918-1.438-1.918-1.438.842-1.438,1.918S256.616,238.5,257.422,238.5Zm0-2.877c.2,0,.48.374.48.959s-.284.959-.48.959-.479-.374-.479-.959S257.227,235.621,257.422,235.621Z" transform="translate(-244.477 -225.072)" fill="#7146a2" stroke="#7146a2" stroke-width="0.4"/>
        <path id="Path_429" data-name="Path 429" d="M342.755,341.329c-.807,0-1.438.842-1.438,1.918s.632,1.918,1.438,1.918,1.439-.842,1.439-1.918S343.562,341.329,342.755,341.329Zm0,2.877c-.2,0-.479-.374-.479-.959s.284-.959.479-.959.48.374.48.959S342.951,344.206,342.755,344.206Z" transform="translate(-325.974 -326.944)" fill="#7146a2" stroke="#7146a2" stroke-width="0.4"/>
      </g>
    </g>
  </g>
</svg>
