<svg xmlns="http://www.w3.org/2000/svg" width="14.554" height="14.544" viewBox="0 0 14.554 14.544">
  <g id="ic-payment_methods" data-name="ic-payment methods" transform="translate(0.15 -0.038)">
    <g id="Group_7026" data-name="Group 7026" transform="translate(0 0.243)">
      <g id="Group_7025" data-name="Group 7025" transform="translate(0 0)">
        <path id="Path_522" data-name="Path 522" d="M14.1,5.338,12.517,1.212A1.514,1.514,0,0,0,10.561.344l-.034.014L2.6,3.645A1.506,1.506,0,0,0,1.76,5.573l.218.582h-.5A1.48,1.48,0,0,0,0,7.633v5.321a1.48,1.48,0,0,0,1.478,1.478H11.529a1.48,1.48,0,0,0,1.478-1.478V7.633a1.453,1.453,0,0,0-.021-.239l.275-.111A1.519,1.519,0,0,0,14.1,5.338ZM1.478,6.628H11.529a1,1,0,0,1,1,.946H.479A1,1,0,0,1,1.478,6.628ZM3.855,5.2l1.581-.791.325.813-1.581.79Zm8.679,7.751a1.006,1.006,0,0,1-1.005,1.005H1.478A1.006,1.006,0,0,1,.473,12.954V9.939H12.534Zm0-3.488H.473V8.047H12.534Zm.549-2.62-.247.1a1.479,1.479,0,0,0-1.307-.791H4.96l1.207-.6a.237.237,0,0,0,.114-.3L5.779,4a.237.237,0,0,0-.307-.132l-.018.008-2.005,1a.237.237,0,0,0-.114.3l.391.978H2.483L2.2,5.408a1.035,1.035,0,0,1,.575-1.324L10.708.8a1.039,1.039,0,0,1,1.358.562l.01.025,1.587,4.126A1.044,1.044,0,0,1,13.083,6.845Z" transform="translate(0 -0.243)" fill="#784da8" stroke="#784da8" stroke-width="0.3"/>
        <path id="Path_523" data-name="Path 523" d="M264.586,354.875a1.419,1.419,0,1,0-.514-1.94A1.419,1.419,0,0,0,264.586,354.875Zm1.821-2.115a.946.946,0,1,1,0,1.776A1.413,1.413,0,0,0,266.407,352.76Zm-.4.269a.929.929,0,0,1,0,1.238A.929.929,0,0,1,266.011,353.029Zm-.709-.327a.936.936,0,0,1,.314.058,1.413,1.413,0,0,0,0,1.776.936.936,0,0,1-.314.058.946.946,0,0,1,0-1.892Z" transform="translate(-256.079 -341.824)" fill="#784da8" stroke="#784da8" stroke-width="0.3"/>
        <rect id="Rectangle_167" data-name="Rectangle 167" width="0.473" height="2.469" transform="translate(10.168 5.313) rotate(-113.966)" fill="#784da8" stroke="#784da8" stroke-width="0.3"/>
        <rect id="Rectangle_168" data-name="Rectangle 168" width="3.589" height="0.473" transform="matrix(0.908, -0.419, 0.419, 0.908, 8.469, 4.381)" fill="#784da8" stroke="#784da8" stroke-width="0.3"/>
      </g>
    </g>
  </g>
</svg>
