<svg xmlns="http://www.w3.org/2000/svg" width="14.629" height="13.087" viewBox="0 0 14.629 13.087">
  <g id="ic-refer_and_earn" data-name="ic-refer and earn" transform="translate(0 -26.992)">
    <path id="Path_524" data-name="Path 524" d="M12.6,267.832l-1.865,1.378a2.134,2.134,0,0,1-.59.3,1.285,1.285,0,0,0-.81-1.639l-3.723-1.232a3.827,3.827,0,0,0-3.634.685H.429a.429.429,0,0,0-.429.429v4.286a.429.429,0,0,0,.429.429H2.143a.429.429,0,0,0,.429-.429v-.32l3.362.764a8.3,8.3,0,0,0,1.823.214h.079a7.948,7.948,0,0,0,4.543-1.5l1.712-1.268a1.286,1.286,0,1,0-1.495-2.092ZM1.714,271.605H.857v-3.429h.857Zm11.878-2.378L11.88,270.5a7.094,7.094,0,0,1-4.055,1.339,7.375,7.375,0,0,1-1.7-.192l-3.552-.807v-2.9a3,3,0,0,1,2.767-.487l3.723,1.232a.429.429,0,0,1-.271.813h0l-2.626-.866a.429.429,0,1,0-.268.814l2.642.871a3.009,3.009,0,0,0,2.693-.4l1.865-1.378a.429.429,0,1,1,.5.7Z" transform="translate(0 -232.613)" fill="#784da8"/>
    <path id="Path_525" data-name="Path 525" d="M332.376,86.99a2.572,2.572,0,0,0-.748-.218,2.037,2.037,0,0,1-.5-.132c-.057-.03-.057-.038-.057-.09,0-.03.049-.086.144-.133a.774.774,0,0,1,.736.021.429.429,0,0,0,.514-.686,1.362,1.362,0,0,0-.486-.226v-.1a.429.429,0,1,0-.857,0v.118a1.614,1.614,0,0,0-.29.111,1.012,1.012,0,0,0-.618.9.912.912,0,0,0,.511.846,2.572,2.572,0,0,0,.748.218,2.037,2.037,0,0,1,.5.132c.057.03.057.038.057.09,0,.029-.051.086-.145.133a.773.773,0,0,1-.735-.021.429.429,0,0,0-.514.686,1.363,1.363,0,0,0,.486.226v.105a.429.429,0,1,0,.857,0v-.118a1.611,1.611,0,0,0,.29-.111,1.012,1.012,0,0,0,.619-.9A.912.912,0,0,0,332.376,86.99Z" transform="translate(-320.778 -56.344)" fill="#784da8"/>
    <path id="Path_526" data-name="Path 526" d="M245.857,34.707A3.857,3.857,0,1,0,242,30.849,3.862,3.862,0,0,0,245.857,34.707Zm0-6.857a3,3,0,1,1-3,3A3,3,0,0,1,245.857,27.849Z" transform="translate(-235.085)" fill="#784da8"/>
  </g>
</svg>
