<svg xmlns="http://www.w3.org/2000/svg" width="19" height="19" viewBox="0 0 19 19">
  <g id="ic-with_out_check" data-name="ic-with out check" fill="#fff">
    <path d="M 9.5 18 C 4.813079833984375 18 1 14.18692016601562 1 9.5 C 1 4.813079833984375 4.813079833984375 1 9.5 1 C 14.18692016601562 1 18 4.813079833984375 18 9.5 C 18 14.18692016601562 14.18692016601562 18 9.5 18 Z" stroke="none"/>
    <path d="M 9.5 2 C 5.364489555358887 2 2 5.364489555358887 2 9.5 C 2 13.6355094909668 5.364489555358887 17 9.5 17 C 13.6355094909668 17 17 13.6355094909668 17 9.5 C 17 5.364489555358887 13.6355094909668 2 9.5 2 M 9.5 0 C 14.7467098236084 0 19 4.253290176391602 19 9.5 C 19 14.7467098236084 14.7467098236084 19 9.5 19 C 4.253290176391602 19 0 14.7467098236084 0 9.5 C 0 4.253290176391602 4.253290176391602 0 9.5 0 Z" stroke="none" fill="#f8ca46"/>
  </g>
</svg>
