<svg xmlns="http://www.w3.org/2000/svg" width="226.89" height="81.547" viewBox="0 0 226.89 81.547">
  <g id="logo" transform="translate(-40.919 -184.404)">
    <g id="Group_7475" data-name="Group 7475" transform="translate(40.919 184.404)">
      <path id="Path_15982" data-name="Path 15982" d="M239.935,230.279l.005.007Z" transform="translate(-135.366 -206.175)" fill="#fff"/>
      <path id="Path_15983" data-name="Path 15983" d="M253.918,244.209" transform="translate(-142.002 -212.786)" fill="#fff"/>
      <g id="Group_7474" data-name="Group 7474">
        <path id="Path_15984" data-name="Path 15984" d="M102.5,194.346a19.371,19.371,0,0,1,1.025,6.45,20.085,20.085,0,0,1-1.025,6.537,16.714,16.714,0,0,1-2.906,5.349,13.077,13.077,0,0,1-4.661,3.572A15.052,15.052,0,0,1,83.8,216.7a18.938,18.938,0,0,1-4.323-2.237,25.821,25.821,0,0,1-3.793-3.219c-.951-.972-1.848-1.983-2.721-3.005l5.228-6.059c.191.216.379.429.572.646q.488.538,1,1.076a23.156,23.156,0,0,0,2.749,2.326,15.185,15.185,0,0,0,3.025,1.653,9.2,9.2,0,0,0,3.376.62,5.853,5.853,0,0,0,4.861-2.146,8.9,8.9,0,0,0-.127-10.663,6.086,6.086,0,0,0-4.991-2.243,7.6,7.6,0,0,0-3.285.762,14.241,14.241,0,0,0-2.99,1.93,28.734,28.734,0,0,0-2.69,2.548q-.526.575-1.012,1.113c-.044.043-.084.087-.12.127-.346.381-.671.742-.979,1.093v0l-.2.226-5.123,6.183-.16.178c-1.142,1.243-2.258,2.466-3.346,3.636a24.789,24.789,0,0,1-3.623,3.219,17.6,17.6,0,0,1-4.185,2.237,14.494,14.494,0,0,1-5.08.857,14.2,14.2,0,0,1-6.237-1.3,14.392,14.392,0,0,1-4.7-3.5,14.7,14.7,0,0,1-2.99-5.24,21.618,21.618,0,0,1-.043-13.033,15.043,15.043,0,0,1,2.858-5.2,13.832,13.832,0,0,1,4.612-3.494,14.155,14.155,0,0,1,6.153-1.3,14.573,14.573,0,0,1,4.884.8v9.817a14.931,14.931,0,0,0-1.637-.9,7.679,7.679,0,0,0-3.247-.762,5.59,5.59,0,0,0-4.745,2.374,8.792,8.792,0,0,0-1.744,5.339,7.755,7.755,0,0,0,1.79,5.281,6.217,6.217,0,0,0,4.955,2.057,8.192,8.192,0,0,0,3.242-.668,16.077,16.077,0,0,0,3.074-1.7,19.525,19.525,0,0,0,2.736-2.334q1.278-1.3,2.309-2.553l5.12-6q1.621-2.063,3.374-4.03a23.807,23.807,0,0,1,3.763-3.45,18.068,18.068,0,0,1,4.351-2.378,14.172,14.172,0,0,1,5.075-.9,14.7,14.7,0,0,1,6.161,1.251,13.31,13.31,0,0,1,4.6,3.453,15.748,15.748,0,0,1,2.906,5.154" transform="translate(-40.919 -184.444)" fill="#fff"/>
        <path id="Path_15985" data-name="Path 15985" d="M421.826,197.9h0s0,0,0,0Z" transform="translate(-221.686 -190.806)" fill="#fff"/>
        <path id="Path_15986" data-name="Path 15986" d="M446.448,196.25a14.48,14.48,0,0,0-1.5-4.378v0a14.164,14.164,0,0,0-2.613-3.415c-.005-.005-.008-.01-.013-.013a.038.038,0,0,0-.01-.013v0a13.837,13.837,0,0,0-3.582-2.527l-.007-.005.005.005a13.791,13.791,0,0,0-4.7-1.366l-.038,0-.036,0q-.637-.043-1.266-.044a18.393,18.393,0,0,0-1.876.1,14.258,14.258,0,0,0-2.68.519l-.013,0-.015.005a14.812,14.812,0,0,0-4.706,2.53,14.112,14.112,0,0,0-3.321,3.9,19.273,19.273,0,0,0-1.149,2.364,9.9,9.9,0,0,0-.712,2.942c0,.01,0,.02,0,.033a.33.33,0,0,0-.005.053,10.44,10.44,0,0,0-.074,1.233c0,.224.008.448.018.679.036.557.051,1.121.051,1.681v17.035h1.754c.747,0,1.515,0,2.3-.005h.007l.514.005h3.557V209.4c0-.536-.005-2.232-.018-3.935-.008-.852-.013-1.706-.026-2.415s-.018-1.269-.031-1.589-.025-.662-.025-.982c0-.631.033-1.244.089-1.836a8.574,8.574,0,0,1,.77-2.731h0a5.692,5.692,0,0,1,3.336-2.927,5.184,5.184,0,0,1,1.795-.328c.109,0,.226,0,.338.013h0a7.424,7.424,0,0,1,2.133.425,4.558,4.558,0,0,1,1.462.862,7.977,7.977,0,0,1,2.136,3.262l.425,1.142h1.223c.422,0,1.607-.01,2.708-.026s2.09-.02,2.09-.02l2.08-.026Z" transform="translate(-219.932 -184.444)" fill="#fff"/>
        <path id="Path_15987" data-name="Path 15987" d="M385.411,204.642c-.473-.043-.961-.061-1.472-.061q-.389,0-.793.016h0c-.348.013-.691.017-1.027.017s-.666,0-.989-.017l-1.5-.056-.272,1.475a5.749,5.749,0,0,1-.641,1.787,4.562,4.562,0,0,1-1.157,1.36,5.383,5.383,0,0,1-1.693.911,5.6,5.6,0,0,1-1.737.262c-.117,0-.239-.005-.363-.01a6.967,6.967,0,0,1-2.027-.438,5.108,5.108,0,0,1-1.556-.951,4.468,4.468,0,0,1-1.035-1.307,4.357,4.357,0,0,1-.445-1.586v0c-.048-.536-.076-1.1-.076-1.7,0-.4.013-.811.036-1.238.03-.554.04-1.113.043-1.678h0v-7.655h.008v-9.29h-7.625v1.731c0,.216-.013,4.116-.023,7.953,0,1.922-.01,3.824-.015,5.248s-.005,2.369-.005,2.372v.005c0,.854-.025,1.7-.068,2.555v0c-.015.32-.023.638-.023.948a16.4,16.4,0,0,0,.1,1.856v.005a9.825,9.825,0,0,0,1.376,4.094,13.02,13.02,0,0,0,2.449,2.926h-.005a15.076,15.076,0,0,0,3.247,2.159,12,12,0,0,0,4.462,1.159c.5.033.984.054,1.459.054a13.56,13.56,0,0,0,4.894-.829,13.388,13.388,0,0,0,4.449-2.7l.005-.005,0,0a12.2,12.2,0,0,0,2.466-3.259A10.869,10.869,0,0,0,387,206.478l.112-1.691Z" transform="translate(-192.797 -184.444)" fill="#fff"/>
        <path id="Path_15988" data-name="Path 15988" d="M382.9,209.946v-7.14l-1.691-.04q-.786-.023-1.592-.023t-1.615.023h-.1v7.18Z" transform="translate(-200.843 -193.107)" fill="#fff"/>
        <path id="Path_15989" data-name="Path 15989" d="M167.626,211.708v0Z" transform="translate(-101.05 -197.359)" fill="#fff"/>
        <path id="Path_15990" data-name="Path 15990" d="M171.709,199.982a0,0,0,0,1,0,0,.027.027,0,0,1,0-.01Z" transform="translate(-102.988 -191.791)" fill="#fff"/>
        <path id="Path_15991" data-name="Path 15991" d="M199.843,199.035v.008a15.552,15.552,0,0,0-1.632-5.5,18.558,18.558,0,0,0-2.959-4.243l-.015-.015-.015-.018a18.577,18.577,0,0,0-4.239-3.1,14.835,14.835,0,0,0-5.413-1.627l-.023,0h-.026c-.491-.038-.982-.056-1.462-.056a19.3,19.3,0,0,0-2.146.119,16.485,16.485,0,0,0-3.072.6l-.015,0-.015.007a16.379,16.379,0,0,0-5.342,2.929h0a17.64,17.64,0,0,0-5.1,7.271,13.957,13.957,0,0,0-.824,3.374,12.913,12.913,0,0,0-.089,1.536c0,.259.007.524.023.783v0c.036.694.059,1.393.059,2.107v14.345h7.938v-9.214q0-1.659-.03-3.321c-.008-.353-.013-.709-.013-1.055,0-.7.015-1.388.044-2.054v0a20.2,20.2,0,0,1,.282-2.741,7.141,7.141,0,0,1,.661-2.062,9.043,9.043,0,0,1,2.906-3.184,7.552,7.552,0,0,1,4.216-1.325h.013c.1,0,.191,0,.282,0a7.3,7.3,0,0,1,2.588.453,8.583,8.583,0,0,1,2.464,1.4,8.055,8.055,0,0,1,1.813,2.108h0a8.871,8.871,0,0,1,1.063,2.639,16.984,16.984,0,0,1,.318,3.394c0,.267-.005.541-.013.826q-.091,2.525-.094,4.872v9.272h7.879v-14.1q0-1,.058-2.072v-.005q.023-.392.023-.786a13.672,13.672,0,0,0-.089-1.554" transform="translate(-100.97 -184.443)" fill="#fff"/>
        <path id="Path_15992" data-name="Path 15992" d="M253.522,222.425c.01.023.023.046.033.066a.491.491,0,0,1-.023-.066Z" transform="translate(-141.814 -202.448)" fill="#fff"/>
        <path id="Path_15993" data-name="Path 15993" d="M262.306,204.862a24.914,24.914,0,0,0,3.824-.257,2.276,2.276,0,0,0,.679-.221,4.076,4.076,0,0,0,.926-.653,6.021,6.021,0,0,0,1.1-1.36,3.711,3.711,0,0,0,.57-1.757c0-.091,0-.183,0-.275a12.223,12.223,0,0,0-.435-3.269h0c-.091-.313-.2-.7-.358-1.134v0c-.15-.4-.308-.793-.478-1.18l-.008-.007,0-.013a18.289,18.289,0,0,0-2.12-3.471l-.008-.013.008.013a16.987,16.987,0,0,0-2.942-2.977h0a15.565,15.565,0,0,0-3.7-2.146,14.54,14.54,0,0,0-4.307-1.04.092.092,0,0,0-.028,0c-.005,0-.008,0-.015,0a16.973,16.973,0,0,0-2.09-.132,14.315,14.315,0,0,0-1.767.107h0a13.919,13.919,0,0,0-3.183.745s-.008,0-.013.007-.013,0-.02.005v0a16.46,16.46,0,0,0-3.623,1.734,18.1,18.1,0,0,0-2.865,2.321,16.757,16.757,0,0,0-2.042,2.492,17,17,0,0,0-1.617,3.036,15.463,15.463,0,0,0-.977,3.648,14.986,14.986,0,0,0-.158,2.187,18.539,18.539,0,0,0,.122,2.059,15.042,15.042,0,0,0,1.6,5.467,17,17,0,0,0,7.348,7.32,14.934,14.934,0,0,0,5.443,1.662l.015,0h.013c.946.084,1.889.127,2.835.127.47,0,.94-.01,1.413-.036q2.018-.084,4.1-.086h9.659l-.058-1.221c-.005-.107-.007-.308-.007-.557,0-.966.04-2.652.04-3.865,0-.267,0-.513-.01-.73s-.01-.394-.026-.559l-.1-1.066h-8.9q-1.941,0-3.888.061c-.417.013-.826.018-1.231.018-.811,0-1.6-.028-2.369-.076a8.308,8.308,0,0,1-5.027-2.077,7.989,7.989,0,0,1-2.013-2.825H245.6c-.023-.053-.036-.1-.054-.155-.01-.02-.023-.043-.033-.066h.008a8.944,8.944,0,0,1-.585-3.2,9.273,9.273,0,0,1,.816-3.758,8.914,8.914,0,0,1,.892-1.442l.02.005a8.69,8.69,0,0,1,1.505-1.556,8.313,8.313,0,0,1,4.447-1.62l.071-.007.068-.015a1.427,1.427,0,0,1,.275-.03,1.175,1.175,0,0,1,.213.023l.094.025.1.005A8.449,8.449,0,0,1,258,194.687a8.088,8.088,0,0,1,1.838,1.917c-2.227.023-4.47.04-6.758.04-1.775,0-3.511-.013-5.23-.028l-.292.348-.008.013-.038.056c-.036.048-.089.132-.155.236a7.873,7.873,0,0,0-.486.921,7.981,7.981,0,0,0-.709,3.257,8.515,8.515,0,0,0,.7,3.2c3.031,0,6.059.008,9.066.023,2.032.007,4.18.188,6.377.188" transform="translate(-133.809 -184.669)" fill="#fff"/>
        <path id="Path_15994" data-name="Path 15994" d="M236.883,219.854a.019.019,0,0,0,0,.01h0Z" transform="translate(-133.918 -201.228)" fill="#fff"/>
        <path id="Path_15995" data-name="Path 15995" d="M253.634,222.705h.018c-.023-.053-.051-.1-.071-.155.017.054.03.1.053.155" transform="translate(-141.842 -202.507)" fill="#fff"/>
        <path id="Path_15996" data-name="Path 15996" d="M322.23,194.1a9.908,9.908,0,0,1,6.473-2.939,6.072,6.072,0,0,1,1.236,0c.371.028.778.074,1.192.132l.333.048v-6.855l-.27-.023a19.3,19.3,0,0,0-3.063,0,19.712,19.712,0,0,0-2.762.4,17.911,17.911,0,0,0-4.5,1.785,15.9,15.9,0,0,0-3.519,2.779,17.61,17.61,0,0,0-2.99,4.131c-.1.191-.183.4-.275.6v-9.705h-7.7v33.172h7.7V208.14a15.129,15.129,0,0,0,1.36,2.431,15.627,15.627,0,0,0,2.107,2.481,20.46,20.46,0,0,0,4.455,3.135,13.946,13.946,0,0,0,5.667,1.558c.57.044,1.131.064,1.67.064.633,0,1.254-.03,1.848-.086l.264-.026v-6.839l-.348.068a9.4,9.4,0,0,1-1.856.188,9.6,9.6,0,0,1-3.916-.88,10.332,10.332,0,0,1-2.924-2.024,12.437,12.437,0,0,1-2.24-3.209,8.446,8.446,0,0,1-.839-4.294,10.3,10.3,0,0,1,2.888-6.61" transform="translate(-166.903 -184.404)" fill="#fff"/>
      </g>
    </g>
    <rect id="Rectangle_2673" data-name="Rectangle 2673" width="222.125" height="36.081" rx="18.041" transform="translate(43.302 229.87)" fill="#fff"/>
    <g id="Group_7477" data-name="Group 7477" transform="translate(80.515 235.525)">
      <g id="Group_7476" data-name="Group 7476" transform="translate(0)">
        <path id="Path_15997" data-name="Path 15997" d="M133.182,287.264a4.579,4.579,0,0,1-3.575,4.551,5.051,5.051,0,0,1,4.314,5.231c0,3.546-3.014,5.733-7.8,5.733h-9.841V282.092h9.516C130.345,282.092,133.182,284.072,133.182,287.264Zm-4.787.856c0-1.418-1.063-2.246-2.837-2.216h-4.61v4.522h4.61C127.331,290.426,128.394,289.568,128.394,288.12Zm.709,8.334c0-1.507-1.359-2.423-3.546-2.393h-4.61v4.905h4.61C127.744,298.966,129.1,298.05,129.1,296.454Z" transform="translate(-116.278 -281.885)" fill="#613996"/>
        <path id="Path_15998" data-name="Path 15998" d="M164.99,298.907c2.778,0,4.61-1.8,4.61-4.787V282.092h4.669V294.12c0,5.467-3.576,8.866-9.279,8.866-5.733,0-9.4-3.4-9.4-8.866V282.092h4.67V294.12A4.467,4.467,0,0,0,164.99,298.907Z" transform="translate(-134.935 -281.885)" fill="#613996"/>
        <path id="Path_15999" data-name="Path 15999" d="M204.727,285.688c-1.566,0-2.63.561-2.63,1.685,0,3.812,11.023,1.685,10.993,9.131,0,4.049-3.517,6.236-8.1,6.236a14.527,14.527,0,0,1-9.131-3.28l1.862-3.813a12.25,12.25,0,0,0,7.33,3.1c1.92,0,3.073-.709,3.073-1.98,0-3.9-11.022-1.625-11.022-8.954,0-3.753,3.221-6.117,8.009-6.117a14.784,14.784,0,0,1,7.861,2.246l-1.8,3.871A14.427,14.427,0,0,0,204.727,285.688Z" transform="translate(-154.046 -281.698)" fill="#613996"/>
        <path id="Path_16000" data-name="Path 16000" d="M239.563,282.092v20.686h-4.669V282.092Z" transform="translate(-172.57 -281.885)" fill="#613996"/>
        <path id="Path_16001" data-name="Path 16001" d="M256.752,282.092l10.048,13.3v-13.3h4.433v20.686h-4.255L256.959,289.51v13.269H252.5V282.092Z" transform="translate(-180.924 -281.885)" fill="#613996"/>
        <path id="Path_16002" data-name="Path 16002" d="M312.567,282.092v3.871H301.485v4.492h9.959v3.871h-9.959v4.58h11.407v3.871H296.816V282.092Z" transform="translate(-201.956 -281.885)" fill="#613996"/>
        <path id="Path_16003" data-name="Path 16003" d="M340.046,285.688c-1.566,0-2.63.561-2.63,1.685,0,3.812,11.023,1.685,10.994,9.131,0,4.049-3.517,6.236-8.1,6.236a14.525,14.525,0,0,1-9.131-3.28l1.862-3.813a12.249,12.249,0,0,0,7.329,3.1c1.92,0,3.073-.709,3.073-1.98,0-3.9-11.023-1.625-11.023-8.954,0-3.753,3.221-6.117,8.009-6.117a14.783,14.783,0,0,1,7.861,2.246l-1.8,3.871A14.431,14.431,0,0,0,340.046,285.688Z" transform="translate(-218.264 -281.698)" fill="#613996"/>
        <path id="Path_16004" data-name="Path 16004" d="M375.872,285.688c-1.566,0-2.63.561-2.63,1.685,0,3.812,11.023,1.685,10.994,9.131,0,4.049-3.517,6.236-8.1,6.236a14.525,14.525,0,0,1-9.131-3.28l1.862-3.813a12.249,12.249,0,0,0,7.329,3.1c1.92,0,3.073-.709,3.073-1.98,0-3.9-11.023-1.625-11.023-8.954,0-3.753,3.221-6.117,8.009-6.117a14.783,14.783,0,0,1,7.861,2.246l-1.8,3.871A14.429,14.429,0,0,0,375.872,285.688Z" transform="translate(-235.266 -281.698)" fill="#613996"/>
      </g>
    </g>
  </g>
</svg>
