<svg xmlns="http://www.w3.org/2000/svg" width="23.869" height="14.321" viewBox="0 0 23.869 14.321">
  <g id="mastercard" transform="translate(0 -100.8)">
    <path id="Path_450" data-name="Path 450" d="M215.921,107.961a7.161,7.161,0,0,1-14.321,0h0a7.161,7.161,0,1,1,14.321,0Z" transform="translate(-192.052 0)" fill="#ffb600"/>
    <path id="Path_451" data-name="Path 451" d="M208.761,100.8a7.179,7.179,0,0,1,7.161,7.161h0a7.161,7.161,0,0,1-14.321,0" transform="translate(-192.052)" fill="#f7981d"/>
    <path id="Path_452" data-name="Path 452" d="M352.8,100.8a7.179,7.179,0,0,1,7.161,7.161h0a7.155,7.155,0,0,1-7.161,7.161" transform="translate(-336.092)" fill="#ff8500"/>
    <path id="Path_453" data-name="Path 453" d="M7.085,100.8a7.161,7.161,0,0,0,.076,14.321,7.244,7.244,0,0,0,4.812-1.856h0a6.807,6.807,0,0,0,.72-.758H11.215a8.739,8.739,0,0,1-.53-.72h2.538a4.854,4.854,0,0,0,.417-.758H10.267a4.516,4.516,0,0,1-.3-.758H13.9A7.523,7.523,0,0,0,14.283,108a9.779,9.779,0,0,0-.152-1.515H9.737a5.539,5.539,0,0,1,.189-.758h3.94a4.516,4.516,0,0,0-.3-.758H10.229a7.513,7.513,0,0,1,.417-.758h2.538a3.6,3.6,0,0,0-.568-.758h-1.4a6.457,6.457,0,0,1,.72-.72,6.991,6.991,0,0,0-4.812-1.856C7.123,100.8,7.123,100.8,7.085,100.8Z" transform="translate(0)" fill="#ff5050"/>
    <path id="Path_454" data-name="Path 454" d="M0,109.485a7.155,7.155,0,0,0,7.161,7.161,7.244,7.244,0,0,0,4.812-1.856h0a6.807,6.807,0,0,0,.72-.758H11.215a8.739,8.739,0,0,1-.53-.72h2.538a4.853,4.853,0,0,0,.417-.758H10.267a4.516,4.516,0,0,1-.3-.758H13.9a7.523,7.523,0,0,0,.379-2.273,9.779,9.779,0,0,0-.152-1.515H9.737a5.539,5.539,0,0,1,.189-.758h3.94a4.516,4.516,0,0,0-.3-.758H10.229a7.514,7.514,0,0,1,.417-.758h2.538a3.6,3.6,0,0,0-.568-.758h-1.4a6.457,6.457,0,0,1,.72-.72A6.991,6.991,0,0,0,7.123,102.4H7.085" transform="translate(0 -1.524)" fill="#e52836"/>
    <path id="Path_455" data-name="Path 455" d="M149.676,116.645a7.244,7.244,0,0,0,4.812-1.856h0a6.806,6.806,0,0,0,.72-.758H153.73a8.75,8.75,0,0,1-.53-.72h2.538a4.852,4.852,0,0,0,.417-.758h-3.372a4.517,4.517,0,0,1-.3-.758h3.94a7.523,7.523,0,0,0,.379-2.273,9.779,9.779,0,0,0-.152-1.515h-4.395a5.541,5.541,0,0,1,.189-.758h3.94a4.519,4.519,0,0,0-.3-.758h-3.334a7.51,7.51,0,0,1,.417-.758H155.7a3.6,3.6,0,0,0-.568-.758h-1.4a6.459,6.459,0,0,1,.72-.72,6.991,6.991,0,0,0-4.812-1.856H149.6" transform="translate(-142.515 -1.524)" fill="#cb2026"/>
    <g id="Group_6943" data-name="Group 6943" transform="translate(0.682 106.104)">
      <path id="Path_456" data-name="Path 456" d="M182.7,223.334l.114-.644a1.641,1.641,0,0,1-.189.038c-.265,0-.3-.152-.265-.227l.227-1.326H183l.114-.72h-.379l.076-.455h-.758s-.455,2.5-.455,2.8a.569.569,0,0,0,.606.644A1.163,1.163,0,0,0,182.7,223.334Z" transform="translate(-173.682 -219.659)" fill="#fff"/>
      <path id="Path_457" data-name="Path 457" d="M210.4,230.408a1.205,1.205,0,0,0,1.326,1.326,1.967,1.967,0,0,0,.8-.114l.152-.72a2.271,2.271,0,0,1-.8.189c-.833,0-.682-.606-.682-.606h1.553a4.911,4.911,0,0,0,.114-.682,1.026,1.026,0,0,0-1.1-1.1C210.968,228.628,210.4,229.461,210.4,230.408Zm1.326-1.1c.417,0,.341.493.341.53h-.834C211.233,229.8,211.309,229.31,211.726,229.31Z" transform="translate(-201.118 -227.946)" fill="#fff"/>
      <path id="Path_458" data-name="Path 458" d="M298.084,216.475l.152-.834a1.862,1.862,0,0,1-.644.189c-.53,0-.758-.417-.758-.871,0-.909.455-1.4.985-1.4a1.265,1.265,0,0,1,.682.227l.114-.8a2.664,2.664,0,0,0-.871-.189c-.871,0-1.743.758-1.743,2.2,0,.947.455,1.591,1.364,1.591A3.4,3.4,0,0,0,298.084,216.475Z" transform="translate(-282.664 -212.8)" fill="#fff"/>
      <path id="Path_459" data-name="Path 459" d="M87.84,227.2a2.683,2.683,0,0,0-.909.152l-.114.644a2.239,2.239,0,0,1,.834-.152c.265,0,.493.038.493.265,0,.152-.038.189-.038.189h-.341c-.644,0-1.364.265-1.364,1.137,0,.682.455.833.72.833a1.138,1.138,0,0,0,.8-.341l-.038.3h.682l.3-2.084A.9.9,0,0,0,87.84,227.2Zm.152,1.7c0,.114-.076.72-.53.72a.3.3,0,0,1-.3-.3c0-.189.114-.455.682-.455A.6.6,0,0,0,87.991,228.9Z" transform="translate(-82.99 -226.518)" fill="#fff"/>
      <path id="Path_460" data-name="Path 460" d="M136.071,229.507a.971.971,0,0,0,1.137-.985c0-.947-.909-.758-.909-1.137,0-.189.152-.265.417-.265.114,0,.53.038.53.038l.114-.682a2.878,2.878,0,0,0-.72-.076c-.568,0-1.137.227-1.137.985,0,.871.947.8.947,1.137,0,.227-.265.265-.455.265a2.477,2.477,0,0,1-.682-.114l-.114.682C135.238,229.431,135.427,229.507,136.071,229.507Z" transform="translate(-129.479 -225.756)" fill="#fff"/>
      <path id="Path_461" data-name="Path 461" d="M429.359,214.4l-.152,1.023a1.05,1.05,0,0,0-.72-.379c-.682,0-1.288.833-1.288,1.819,0,.606.3,1.25.947,1.25a1.011,1.011,0,0,0,.72-.3l-.038.265h.758l.568-3.637Zm-.341,2.008c0,.417-.189.947-.606.947-.265,0-.417-.227-.417-.606,0-.606.265-.985.606-.985C428.867,215.764,429.018,215.953,429.018,216.408Z" transform="translate(-407.65 -214.324)" fill="#fff"/>
      <path id="Path_462" data-name="Path 462" d="M15.12,218.037l.455-2.728.076,2.728h.53l.985-2.728-.417,2.728h.8l.606-3.637H16.9l-.758,2.235L16.1,214.4h-1.1l-.606,3.637Z" transform="translate(-14.4 -214.324)" fill="#fff"/>
      <path id="Path_463" data-name="Path 463" d="M260.833,231.755c.227-1.25.265-2.273.8-2.084a2.974,2.974,0,0,1,.265-.871h-.152c-.341,0-.606.455-.606.455l.076-.417h-.72L260,231.793h.834Z" transform="translate(-248.369 -228.042)" fill="#fff"/>
      <path id="Path_464" data-name="Path 464" d="M347.84,227.2a2.683,2.683,0,0,0-.909.152l-.114.644a2.24,2.24,0,0,1,.833-.152c.265,0,.493.038.493.265,0,.152-.038.189-.038.189h-.341c-.644,0-1.364.265-1.364,1.137,0,.682.455.833.72.833a1.138,1.138,0,0,0,.8-.341l-.038.3h.682l.3-2.084A.885.885,0,0,0,347.84,227.2Zm.189,1.7c0,.114-.076.72-.53.72a.3.3,0,0,1-.3-.3c0-.189.114-.455.682-.455C347.991,228.9,347.991,228.9,348.029,228.9Z" transform="translate(-330.677 -226.518)" fill="#fff"/>
      <path id="Path_465" data-name="Path 465" d="M395.233,231.755c.227-1.25.265-2.273.8-2.084a2.974,2.974,0,0,1,.265-.871h-.152c-.341,0-.606.455-.606.455l.076-.417h-.72l-.493,2.955h.833Z" transform="translate(-376.404 -228.042)" fill="#fff"/>
    </g>
    <g id="Group_6944" data-name="Group 6944" transform="translate(0.682 106.104)">
      <path id="Path_466" data-name="Path 466" d="M180,222.8a.569.569,0,0,0,.606.644,1.442,1.442,0,0,0,.568-.114l.114-.644a1.641,1.641,0,0,1-.189.038c-.265,0-.3-.152-.265-.227l.227-1.326h.417l.114-.72h-.379l.076-.455" transform="translate(-172.157 -219.659)" fill="#dce5e5"/>
      <path id="Path_467" data-name="Path 467" d="M218.4,230.408c0,1.061.341,1.326.947,1.326a1.967,1.967,0,0,0,.8-.114l.152-.72a2.271,2.271,0,0,1-.8.189c-.834,0-.682-.606-.682-.606h1.553a4.912,4.912,0,0,0,.114-.682,1.026,1.026,0,0,0-1.1-1.1C218.589,228.628,218.4,229.461,218.4,230.408Zm.947-1.1c.417,0,.493.493.493.53h-.985C218.855,229.8,218.93,229.31,219.347,229.31Z" transform="translate(-208.739 -227.946)" fill="#dce5e5"/>
      <path id="Path_468" data-name="Path 468" d="M305.7,216.475l.152-.834a1.862,1.862,0,0,1-.644.189c-.53,0-.758-.417-.758-.871,0-.909.455-1.4.985-1.4a1.265,1.265,0,0,1,.682.227l.114-.8a2.663,2.663,0,0,0-.871-.189c-.871,0-1.364.758-1.364,2.2,0,.947.076,1.591.985,1.591A3.4,3.4,0,0,0,305.7,216.475Z" transform="translate(-290.285 -212.8)" fill="#dce5e5"/>
      <path id="Path_469" data-name="Path 469" d="M86.817,229.558a2.239,2.239,0,0,1,.834-.152c.265,0,.493.038.493.265,0,.152-.038.189-.038.189h-.341c-.644,0-1.364.265-1.364,1.137,0,.682.455.833.72.833a1.138,1.138,0,0,0,.8-.341l-.038.3h.682l.3-2.084c0-.871-.758-.909-1.061-.909m.568,1.629a1.24,1.24,0,0,1-.909.72.3.3,0,0,1-.3-.3c0-.189.114-.455.682-.455A3.1,3.1,0,0,0,88.37,230.429Z" transform="translate(-82.99 -228.042)" fill="#dce5e5"/>
      <path id="Path_470" data-name="Path 470" d="M136,229.431a3.207,3.207,0,0,0,.871.076.971.971,0,0,0,1.137-.985c0-.947-.909-.758-.909-1.137,0-.189.152-.265.417-.265.114,0,.53.038.53.038l.114-.682a2.877,2.877,0,0,0-.72-.076c-.568,0-.758.227-.758.985,0,.871.568.8.568,1.137,0,.227-.265.265-.455.265" transform="translate(-130.241 -225.756)" fill="#dce5e5"/>
      <path id="Path_471" data-name="Path 471" d="M436.774,216.185a1.051,1.051,0,0,0-.72-.379c-.682,0-.909.833-.909,1.819,0,.606-.076,1.25.568,1.25a1.011,1.011,0,0,0,.72-.3l-.038.265h.758l.568-3.637m-.985,1.97c0,.417-.341.947-.758.947-.265,0-.417-.227-.417-.606,0-.606.265-.985.606-.985A.579.579,0,0,1,436.736,217.17Z" transform="translate(-415.216 -215.086)" fill="#dce5e5"/>
      <path id="Path_472" data-name="Path 472" d="M15.12,218.037l.455-2.728.076,2.728h.53l.985-2.728-.417,2.728h.8l.606-3.637H17.2l-1.061,2.235L16.1,214.4h-.417L14.4,218.037Z" transform="translate(-14.4 -214.324)" fill="#dce5e5"/>
      <path id="Path_473" data-name="Path 473" d="M260.8,231.755h.8c.227-1.25.265-2.273.8-2.084a2.973,2.973,0,0,1,.265-.871H262.5c-.341,0-.606.455-.606.455l.076-.417" transform="translate(-249.131 -228.042)" fill="#dce5e5"/>
      <path id="Path_474" data-name="Path 474" d="M346.817,229.558a2.24,2.24,0,0,1,.834-.152c.265,0,.492.038.492.265,0,.152-.038.189-.038.189h-.341c-.644,0-1.364.265-1.364,1.137,0,.682.455.833.72.833a1.138,1.138,0,0,0,.8-.341l-.038.3h.682l.3-2.084c0-.871-.758-.909-1.061-.909m.568,1.629a1.24,1.24,0,0,1-.909.72.3.3,0,0,1-.3-.3c0-.189.114-.455.682-.455A3.334,3.334,0,0,0,348.37,230.429Z" transform="translate(-330.677 -228.042)" fill="#dce5e5"/>
      <path id="Path_475" data-name="Path 475" d="M395.2,231.755h.8c.227-1.25.265-2.273.8-2.084a2.973,2.973,0,0,1,.265-.871H396.9c-.341,0-.606.455-.606.455l.076-.417" transform="translate(-377.166 -228.042)" fill="#dce5e5"/>
    </g>
  </g>
</svg>
