<svg xmlns="http://www.w3.org/2000/svg" width="42" height="42" viewBox="0 0 42 42">
  <g id="Group_7993" data-name="Group 7993" transform="translate(-0.5 -1)">
    <rect id="Rectangle" width="42" height="42" rx="21" transform="translate(0.5 1)" fill="#ebe4fe"/>
    <path id="order" d="M9.919.978V8.053h3.548V.978a1.774,1.774,0,0,0-3.548,0ZM1.194,4.066A.612.612,0,0,1,2.06,3.2l.335.335L3.478,2.454A1.893,1.893,0,1,0,4.16,3.5L2.827,4.834a.612.612,0,0,1-.865,0ZM4.347,1.585,5.115.816a.612.612,0,1,1,.865.865l-.873.873a3.118,3.118,0,1,1-.76-.97ZM-1.5,14.374a.612.612,0,0,0-.612.612A.612.612,0,0,0-1.5,15.6a.612.612,0,0,0,.612-.612A.612.612,0,0,0-1.5,14.374ZM.948,15.6a.612.612,0,0,1,0-1.223H6.861a.612.612,0,0,1,0,1.223ZM-1.5,11.927a.612.612,0,0,0-.612.612.612.612,0,0,0,.612.612.612.612,0,0,0,.612-.612A.612.612,0,0,0-1.5,11.927ZM.948,13.151a.612.612,0,1,1,0-1.223H6.861a.612.612,0,1,1,0,1.223ZM9.92,9.277v8.971a.612.612,0,0,1-.612.612H-3.945a.612.612,0,0,1-.612-.612V.917A2.941,2.941,0,0,1-1.621-2.019H11.693a3,3,0,0,1,3,3V8.665a.612.612,0,0,1-.612.612ZM9.281-.8A2.98,2.98,0,0,0,8.7.978V17.636H-3.334V.917A1.717,1.717,0,0,1-1.621-.8ZM-1.5,9.481a.612.612,0,0,0-.612.612A.612.612,0,0,0-1.5,10.7a.612.612,0,0,0,.612-.612A.612.612,0,0,0-1.5,9.481ZM.948,10.7H6.861a.612.612,0,0,0,0-1.223H.948a.612.612,0,0,0,0,1.223Zm0,0" transform="translate(16.058 14.019)" fill-rule="evenodd"/>
  </g>
</svg>
