<svg xmlns="http://www.w3.org/2000/svg" xmlns:android="http://schemas.android.com/apk/res/android" width="40dp" height="40dp" viewportWidth="40" viewportHeight="40">
	<path d="M20,20m-20,0a20,20 0,1 1,40 0a20,20 0,1 1,-40 0" fill="#ffc843"/>
	<path d="M20,20m-15,0a15,15 0,1 1,30 0a15,15 0,1 1,-30 0" fill="#d38700"/>
	<path d="M31.153,17.541a7.134,7.134 0,0 1,0.377 2.376A7.4,7.4 0,0 1,31.153 22.323a6.156,6.156 0,0 1,-1.07 1.97,4.816 4.816,0 0,1 -1.716,1.316 5.544,5.544 0,0 1,-4.1 0.164,6.974 6.974,0 0,1 -1.592,-0.824 9.51,9.51 0,0 1,-1.4 -1.185c-0.35,-0.358 -0.681,-0.731 -1,-1.107L22.199,20.423l0.211,0.238q0.18,0.2 0.37,0.4a8.53,8.53 0,0 0,1.012 0.857,5.593 5.593,0 0,0 1.114,0.609 3.387,3.387 0,0 0,1.244 0.228,2.155 2.155,0 0,0 1.79,-0.79 3.277,3.277 0,0 0,-0.047 -3.927,2.242 2.242,0 0,0 -1.838,-0.826 2.8,2.8 0,0 0,-1.21 0.281,5.245 5.245,0 0,0 -1.1,0.711 10.581,10.581 0,0 0,-0.991 0.938q-0.194,0.212 -0.373,0.41c-0.016,0.016 -0.031,0.032 -0.044,0.047 -0.127,0.14 -0.247,0.273 -0.361,0.4h0l-0.073,0.083 -1.887,2.277L19.953,22.423c-0.421,0.458 -0.832,0.908 -1.232,1.339a9.13,9.13 0,0 1,-1.334 1.185,6.481 6.481,0 0,1 -1.541,0.824 5.338,5.338 0,0 1,-1.871 0.316,5.231 5.231,0 0,1 -2.3,-0.48A5.3,5.3 0,0 1,9.953 24.323a5.413,5.413 0,0 1,-1.1 -1.93,7.962 7.962,0 0,1 -0.016,-4.8 5.54,5.54 0,0 1,1.053 -1.915,5.094 5.094,0 0,1 1.7,-1.287 5.213,5.213 0,0 1,2.266 -0.48,5.367 5.367,0 0,1 1.8,0.3L15.656,17.823a5.5,5.5 0,0 0,-0.6 -0.331,2.828 2.828,0 0,0 -1.2,-0.281 2.059,2.059 0,0 0,-1.747 0.874,3.238 3.238,0 0,0 -0.642,1.966 2.856,2.856 0,0 0,0.659 1.945,2.29 2.29,0 0,0 1.825,0.757 3.017,3.017 0,0 0,1.194 -0.246,5.921 5.921,0 0,0 1.132,-0.626 7.193,7.193 0,0 0,1.008 -0.86q0.471,-0.479 0.85,-0.94l1.886,-2.211q0.6,-0.76 1.243,-1.484a8.769,8.769 0,0 1,1.386 -1.271,6.654 6.654,0 0,1 1.6,-0.876 5.219,5.219 0,0 1,1.869 -0.331,5.413 5.413,0 0,1 2.269,0.461 4.9,4.9 0,0 1,1.7 1.272,5.8 5.8,0 0,1 1.07,1.9" fill="#ffc843"/>
</svg>
