<svg xmlns="http://www.w3.org/2000/svg" width="27.593" height="8.365" viewBox="0 0 27.593 8.365">
  <g id="visa" transform="translate(0 -175.6)">
    <path id="Path_435" data-name="Path 435" d="M184.8,188.284l1.4-7.884h2.19l-1.358,7.884Z" transform="translate(-174.683 -4.537)" fill="#3c58bf"/>
    <path id="Path_436" data-name="Path 436" d="M184.8,188.284l1.8-7.884h1.8l-1.358,7.884Z" transform="translate(-174.683 -4.537)" fill="#293688"/>
    <path id="Path_437" data-name="Path 437" d="M254.7,175.95a5.555,5.555,0,0,0-2.015-.35c-2.19,0-3.767,1.095-3.767,2.672,0,1.183,1.095,1.8,1.971,2.19s1.139.657,1.139,1.007c0,.526-.7.788-1.314.788a4.761,4.761,0,0,1-2.1-.438l-.307-.131-.307,1.8a7.1,7.1,0,0,0,2.5.438c2.321,0,3.854-1.095,3.854-2.759,0-.92-.569-1.621-1.883-2.19-.788-.394-1.27-.613-1.27-1.007,0-.35.394-.7,1.27-.7a4.017,4.017,0,0,1,1.664.307l.219.088.35-1.708Z" transform="translate(-234.422)" fill="#3c58bf"/>
    <path id="Path_438" data-name="Path 438" d="M254.7,175.95a5.555,5.555,0,0,0-2.015-.35c-2.19,0-3.372,1.095-3.372,2.672a2.289,2.289,0,0,0,1.577,2.19c.876.394,1.139.657,1.139,1.007,0,.526-.7.788-1.314.788a4.761,4.761,0,0,1-2.1-.438l-.307-.131-.307,1.8a7.1,7.1,0,0,0,2.5.438c2.321,0,3.854-1.095,3.854-2.759,0-.92-.569-1.621-1.883-2.19-.788-.394-1.27-.613-1.27-1.007,0-.35.394-.7,1.27-.7a4.017,4.017,0,0,1,1.664.307l.219.088.35-1.708Z" transform="translate(-234.422)" fill="#293688"/>
    <path id="Path_439" data-name="Path 439" d="M362.824,180.4c-.526,0-.92.044-1.139.569l-3.285,7.314h2.365l.438-1.314h2.8l.263,1.314h2.1l-1.84-7.884Zm-1.007,5.256c.131-.394.876-2.321.876-2.321s.175-.482.307-.788l.131.745s.438,1.971.526,2.409h-1.84Z" transform="translate(-338.778 -4.537)" fill="#3c58bf"/>
    <path id="Path_440" data-name="Path 440" d="M363.349,180.4c-.526,0-.92.044-1.139.569l-3.81,7.314h2.365l.438-1.314h2.8l.263,1.314h2.1l-1.84-7.884Zm-1.533,5.256c.175-.438.876-2.321.876-2.321s.175-.482.307-.788l.131.745s.438,1.971.526,2.409h-1.84Z" transform="translate(-338.778 -4.537)" fill="#293688"/>
    <path id="Path_441" data-name="Path 441" d="M54.485,186.675l-.219-1.139a6.349,6.349,0,0,0-3.066-3.46l1.971,7.008h2.365l3.548-7.884H56.719Z" transform="translate(-48.397 -5.293)" fill="#3c58bf"/>
    <path id="Path_442" data-name="Path 442" d="M54.485,186.675l-.219-1.139a6.349,6.349,0,0,0-3.066-3.46l1.971,7.008h2.365l3.548-7.884H57.157Z" transform="translate(-48.397 -5.293)" fill="#293688"/>
    <path id="Path_443" data-name="Path 443" d="M0,180.4l.394.088a7.386,7.386,0,0,1,5.475,4.292l-.788-3.723c-.131-.526-.526-.657-1.007-.657Z" transform="translate(0 -4.537)" fill="#ffbc00"/>
    <path id="Path_444" data-name="Path 444" d="M0,180.4H0c2.8.657,5.124,2.365,5.869,4.336l-.745-3.11a1.069,1.069,0,0,0-1.051-.832Z" transform="translate(0 -4.537)" fill="#f7981d"/>
    <path id="Path_445" data-name="Path 445" d="M0,180.4H0c2.8.657,5.124,2.365,5.869,4.336l-.526-1.708a1.545,1.545,0,0,0-.92-1.27Z" transform="translate(0 -4.537)" fill="#ed7c00"/>
    <g id="Group_6942" data-name="Group 6942" transform="translate(2.847 176.739)">
      <path id="Path_446" data-name="Path 446" d="M57.431,200.78l-1.489-1.489-.7,1.664-.175-1.095A6.349,6.349,0,0,0,52,196.4l1.971,7.008h2.365Z" transform="translate(-52 -196.4)" fill="#051244"/>
      <path id="Path_447" data-name="Path 447" d="M187.034,291.127,185.15,289.2l-.35,1.927Z" transform="translate(-177.529 -284.119)" fill="#051244"/>
      <path id="Path_448" data-name="Path 448" d="M251.81,274.8h0c.175.175.263.307.219.482,0,.526-.7.788-1.314.788a4.76,4.76,0,0,1-2.1-.438l-.307-.131L248,277.3a7.1,7.1,0,0,0,2.5.438,4.337,4.337,0,0,0,3.2-1.095Z" transform="translate(-237.269 -270.508)" fill="#051244"/>
      <path id="Path_449" data-name="Path 449" d="M364,225.338h2.059l.438-1.314h2.8l.263,1.314h2.1l-.745-3.2-2.628-2.54.131.7s.438,1.971.526,2.409h-1.84c.175-.438.876-2.321.876-2.321s.175-.482.307-.788" transform="translate(-346.919 -218.33)" fill="#051244"/>
    </g>
  </g>
</svg>
