<svg xmlns="http://www.w3.org/2000/svg" width="15.475" height="15.478" viewBox="0 0 15.475 15.478">
  <g id="warehouse" transform="translate(0.05 0.053)">
    <g id="Group_7671" data-name="Group 7671" transform="translate(0 0)">
      <g id="Group_7670" data-name="Group 7670">
        <path id="Path_16996" data-name="Path 16996" d="M15.249,4.394,7.817.037a.256.256,0,0,0-.253,0L.132,4.134A.256.256,0,0,0,0,4.358V15.121a.256.256,0,0,0,.256.256H1.538a.256.256,0,0,0,.256-.256V6.152H13.582v8.969a.256.256,0,0,0,.256.256h1.281a.256.256,0,0,0,.256-.256V4.614A.256.256,0,0,0,15.249,4.394Zm-.386,10.471h-.769V5.9a.256.256,0,0,0-.256-.256H1.538a.256.256,0,0,0-.256.256v8.969H.513V4.509L7.684.553l7.179,4.208v10.1Z" transform="translate(0 -0.002)" fill="#262626" stroke="#262626" stroke-width="0.1"/>
      </g>
    </g>
    <g id="Group_7673" data-name="Group 7673" transform="translate(9.481 11.788)">
      <g id="Group_7672" data-name="Group 7672">
        <path id="Path_16997" data-name="Path 16997" d="M319.065,392.531H315.99a.256.256,0,0,0-.256.256v3.075a.256.256,0,0,0,.256.256h3.075a.256.256,0,0,0,.256-.256v-3.075A.256.256,0,0,0,319.065,392.531Zm-.256,3.075h-2.563v-2.563h2.563Z" transform="translate(-315.734 -392.531)" fill="#262626" stroke="#262626" stroke-width="0.1"/>
      </g>
    </g>
    <g id="Group_7675" data-name="Group 7675" transform="translate(10.506 12.044)">
      <g id="Group_7674" data-name="Group 7674">
        <path id="Path_16998" data-name="Path 16998" d="M350.891,401.064v.769h-.513v-.769h-.513v1.025a.256.256,0,0,0,.256.256h1.025a.256.256,0,0,0,.256-.256v-1.025Z" transform="translate(-349.866 -401.064)" fill="#262626" stroke="#262626" stroke-width="0.1"/>
      </g>
    </g>
    <g id="Group_7677" data-name="Group 7677" transform="translate(6.406 11.788)">
      <g id="Group_7676" data-name="Group 7676">
        <path id="Path_16999" data-name="Path 16999" d="M216.665,392.531H213.59a.256.256,0,0,0-.256.256v3.075a.256.256,0,0,0,.256.256h3.075a.256.256,0,0,0,.256-.256v-3.075A.256.256,0,0,0,216.665,392.531Zm-.256,3.075h-2.563v-2.563h2.563Z" transform="translate(-213.334 -392.531)" fill="#262626" stroke="#262626" stroke-width="0.1"/>
      </g>
    </g>
    <g id="Group_7679" data-name="Group 7679" transform="translate(7.431 12.044)">
      <g id="Group_7678" data-name="Group 7678">
        <path id="Path_17000" data-name="Path 17000" d="M248.491,401.064v.769h-.513v-.769h-.513v1.025a.256.256,0,0,0,.256.256h1.025a.256.256,0,0,0,.256-.256v-1.025Z" transform="translate(-247.466 -401.064)" fill="#262626" stroke="#262626" stroke-width="0.1"/>
      </g>
    </g>
    <g id="Group_7681" data-name="Group 7681" transform="translate(9.481 8.713)">
      <g id="Group_7680" data-name="Group 7680">
        <path id="Path_17001" data-name="Path 17001" d="M319.065,290.131H315.99a.256.256,0,0,0-.256.256v3.075a.256.256,0,0,0,.256.256h3.075a.256.256,0,0,0,.256-.256v-3.075A.256.256,0,0,0,319.065,290.131Zm-.256,3.075h-2.563v-2.563h2.563Z" transform="translate(-315.734 -290.131)" fill="#262626" stroke="#262626" stroke-width="0.1"/>
      </g>
    </g>
    <g id="Group_7683" data-name="Group 7683" transform="translate(10.506 8.969)">
      <g id="Group_7682" data-name="Group 7682">
        <path id="Path_17002" data-name="Path 17002" d="M350.891,298.664v.769h-.513v-.769h-.513v1.025a.256.256,0,0,0,.256.256h1.025a.256.256,0,0,0,.256-.256v-1.025Z" transform="translate(-349.866 -298.664)" fill="#262626" stroke="#262626" stroke-width="0.1"/>
      </g>
    </g>
    <g id="Group_7685" data-name="Group 7685" transform="translate(1.538 7.688)">
      <g id="Group_7684" data-name="Group 7684">
        <rect id="Rectangle_2701" data-name="Rectangle 2701" width="12.3" height="0.513" fill="#262626" stroke="#262626" stroke-width="0.1"/>
      </g>
    </g>
    <g id="Group_7687" data-name="Group 7687" transform="translate(1.538 6.663)">
      <g id="Group_7686" data-name="Group 7686">
        <rect id="Rectangle_2702" data-name="Rectangle 2702" width="12.3" height="0.513" fill="#262626" stroke="#262626" stroke-width="0.1"/>
      </g>
    </g>
    <g id="Group_7689" data-name="Group 7689" transform="translate(6.15 3.587)">
      <g id="Group_7688" data-name="Group 7688">
        <path id="Path_17003" data-name="Path 17003" d="M207.62,119.464h-2.563a.256.256,0,0,0-.256.256v1.025a.256.256,0,0,0,.256.256h2.563a.256.256,0,0,0,.256-.256V119.72A.256.256,0,0,0,207.62,119.464Zm-.256,1.025h-2.05v-.513h2.05Z" transform="translate(-204.801 -119.464)" fill="#262626" stroke="#262626" stroke-width="0.1"/>
      </g>
    </g>
  </g>
</svg>
